<?xml version="1.0" encoding="UTF-8"?><svg id="a" xmlns="http://www.w3.org/2000/svg" viewBox="0 0 574.39 689.04"><defs><style>.b{fill:#2f2e41;}.c{fill:#fff;}.d{fill:#3f3d56;}.e{fill:#e6e6e6;}.f{fill:#ffb8b8;}.g{fill:#f0ab45;}.h{fill:#f2f2f2;}</style></defs><path class="g" d="M522.6,136.77c19.2,18.22,1.83,81.99,8.23,138.56,6.86,57.05,38.4,106.44,42.97,179.32,4.57,73.36-17.83,169.25-60.34,169.25s-105.6-95.41-189.26-128.49c-84.12-33.08-188.81-3.36-248.69-37.4C16.07,424.44,1.44,327.11,14.7,232.66,27.95,138.2,69.1,46.63,136.3,37.04c66.75-9.11,160.01,63.77,234.98,86.3,74.97,23.01,131.66-4.32,151.32,13.42Z"/><path class="f" d="M4.09,329.56c7.94,13.26,25.12,17.57,38.38,9.63,1.41-.85,2.75-1.82,3.99-2.9l86.26,49.47-3.21-51.57-81.42-39.07c-10.95-11.02-28.76-11.08-39.79-.13-9.22,9.16-10.96,23.45-4.21,34.56Z"/><path class="b" d="M253.81,527.74c-25.59,35.81-24.67,95.73-17.53,161.3h120.97l5.26-12.27,7.01,12.27h113.96s-8.77-166.56-24.55-171.82-205.13,10.52-205.13,10.52Z"/><circle class="f" cx="357.25" cy="92.22" r="61.36"/><path class="d" d="M401.61,169.5l12,23,83,37-21.82,211.14-9.18,21.86,4.96,18.99-11.96,14.01c12.01,10.86,13.53,22.24,7,34l-38.22,8.76s-212.52,18.9-194.61-14.03c19.57-35.97,24.55-142.22-18.65-198.99-36.68-48.2-8.52-110.74-8.52-110.74l87-26,32-19h77Z"/><path class="b" d="M384.5,2.33c.59-1.25,1.88-2.01,3.26-1.93-28.09-1.68-57.68,1.59-81.19,17.08-5.69,3.75-11.06,8.22-17.26,10.95-.94,.42-1.35,1.52-.93,2.46,.12,.28,.31,.52,.55,.71l.68,.53c.81,.64,.95,1.81,.32,2.62-.24,.3-.56,.52-.92,.63h0c-.99,.3-1.54,1.34-1.24,2.33,.13,.42,.4,.78,.77,1.02l5.22,3.37c.87,.55,1.12,1.7,.57,2.56-.14,.22-.33,.42-.56,.56-.44,.27-.91,.51-1.39,.7-.96,.36-1.45,1.43-1.09,2.4,.11,.28,.28,.53,.5,.73,2.26,2.01,3.99,4.54,5.05,7.38,1.74,4.52,2.05,9.44,2.34,14.28,1.8-6.97,9.41-11.08,16.6-11.5s14.2,1.96,21.2,3.66c15.24,3.7,31.07,4.31,46.55,1.79-5.26,10.55-.82,23.13,3.64,34.04l14.44-6.19c19.84-11.2,6.02,36.17-1.4,42.67,15.14,5.25,54.77-53.01,42.02-75.11-6.63-11.5-1.92-26.32-14.96-37.23-6.39-6.73-19.15-3.74-25.66-9.33-2.56-2.2,1.34-8.09-2.18-9.37-1.17-.43-14.74-2.23-14.93-1.8Z"/><path class="d" d="M280.56,194.44c-11.26,49.99-40.14,166.71-69.44,191.12-1.86,1.75-4.09,3.07-6.52,3.85-102.99,25.09-135.99-38.91-135.99-38.91,0,0,27.6-13.45,28.3-39.74l55.66,17.27,48.52-109.19,7.14-6.66,.04-.04,72.29-17.7Z"/><path class="f" d="M500.15,656.08c11.14-10.71,11.49-28.42,.78-39.56-1.14-1.19-2.39-2.27-3.72-3.24l28.87-95.15-49.54,14.7-19.82,88.11c-8.28,13.14-4.35,30.52,8.8,38.8,11,6.93,25.31,5.43,34.63-3.64Z"/><path class="d" d="M473.72,224.18l22.88,5.32s94.58,184.03,71.79,219.09-50.71,151.16-50.71,151.16c0,0-41.3-8.21-57.08-29.25l28.9-137.69-29.81-115.71,14.03-92.92Z"/><path class="e" d="M39.58,497.46l.82-296.39c.05-12.49,10.2-22.58,22.69-22.56l223.84,.62c12.49,.05,22.58,10.2,22.56,22.69l-.82,296.39c-.05,12.49-10.2,22.58-22.69,22.56l-223.84-.62c-12.49-.05-22.58-10.2-22.56-22.69Z"/><path class="c" d="M57,407.98l.53-190.55c.05-11.7,9.55-21.15,21.25-21.13l192.37,.53c11.7,.05,21.15,9.55,21.13,21.25l-.73,263.75c-.05,11.7-9.55,21.15-21.25,21.13l-119.17-.33c-52.11-.2-94.22-42.55-94.13-94.65Z"/><path class="g" d="M249.11,280H99.11c-4.97,0-9-4.03-9-9s4.03-9,9-9H249.11c4.97,0,9,4.03,9,9s-4.03,9-9,9Z"/><path class="g" d="M132.11,238.5h-33c-4.97,0-9-4.03-9-9s4.03-9,9-9h33c4.97,0,9,4.03,9,9s-4.03,9-9,9Z"/><path class="g" d="M249.11,321.5H99.11c-4.97,0-9-4.03-9-9s4.03-9,9-9H249.11c4.97,0,9,4.03,9,9s-4.03,9-9,9Z"/><path class="g" d="M249.11,363H99.11c-4.97,0-9-4.03-9-9s4.03-9,9-9H249.11c4.97,0,9,4.03,9,9s-4.03,9-9,9Z"/><circle class="g" cx="236.97" cy="436.54" r="35.81" transform="translate(-215.27 641.97) rotate(-85.93)"/><path class="c" d="M232.08,455.18c-1.25,0-2.43-.59-3.19-1.59l-9.77-13.03c-1.32-1.76-.96-4.26,.8-5.58s4.26-.96,5.58,.8l6.39,8.52,16.42-24.62c1.22-1.83,3.69-2.33,5.52-1.11,1.83,1.22,2.33,3.69,1.11,5.52h0l-19.54,29.32c-.72,1.08-1.91,1.74-3.2,1.77-.04,0-.07,0-.11,0Z"/><circle class="h" cx="160.61" cy="92.5" r="17"/><circle class="h" cx="98.61" cy="581.5" r="17"/><circle class="h" cx="489.61" cy="158.5" r="17"/></svg>