<?xml version="1.0" encoding="UTF-8"?><svg id="a" xmlns="http://www.w3.org/2000/svg" viewBox="0 0 801.92 597.46"><defs><style>.h{fill:#ffb7b7;}.i{fill:#2f2e41;}.j{fill:#fff;}.k{fill:#cbcbcb;}.l{fill:#e6e6e6;}.m{fill:#e5e5e5;}.n{fill:#fdba4b;}.o{fill:#f1f1f1;}.p{fill:#f0ab45;}</style></defs><path class="p" d="M659.25,87.69c43.57,50.37,22.7,120.25,27,174.88,4.3,54.27,33.14,92.58,46.64,146.5,12.89,53.92,10.43,123.09-47.86,154.66-58.91,31.92-173.05,26.25-264.48,7.45-90.82-18.8-158.32-50.37-208.64-83.71-50.32-33.34-82.84-68.11-104.93-105.35-21.48-37.25-31.3-76.97-19.64-116.7,12.27-39.73,46.64-79.81,101.87-128.05,55.23-48.24,131.93-105,224.59-118.12,92.05-12.77,201.28,18.09,245.46,68.46Z"/><circle id="b" class="n" cx="436.31" cy="42" r="18.93"/><path id="c" class="j" d="M434.44,49.22c-.43,0-.84-.14-1.18-.39l-.02-.02-4.45-3.4c-.87-.66-1.03-1.91-.37-2.77,.66-.87,1.91-1.03,2.77-.37h0l2.88,2.21,6.81-8.89c.66-.87,1.9-1.03,2.77-.37h0l-.04,.06,.04-.06c.87,.67,1.03,1.91,.37,2.77l-8.01,10.45c-.38,.49-.96,.77-1.57,.77h0Z"/><circle id="d" class="n" cx="436.31" cy="170" r="18.93"/><path id="e" class="j" d="M434.44,177.22c-.43,0-.84-.14-1.18-.39l-.02-.02-4.45-3.4c-.87-.66-1.03-1.91-.37-2.77s1.91-1.03,2.77-.37l2.88,2.21,6.81-8.89c.66-.87,1.9-1.03,2.77-.37h0l-.04,.06,.04-.06c.87,.67,1.03,1.91,.37,2.77l-8.01,10.45c-.38,.49-.96,.77-1.57,.77h0Z"/><path class="h" d="M483.86,368.96c-.23-5.93,4.39-10.93,10.32-11.16,.63-.02,1.27,0,1.89,.09l17.34-34.02,9.8,17.26-17.97,29.66c-1.21,5.84-6.92,9.6-12.77,8.4-4.89-1.01-8.45-5.24-8.61-10.23h0Z"/><polygon class="h" points="564.71 583.19 551.1 583.19 544.63 530.7 564.71 530.7 564.71 583.19"/><path class="i" d="M568.18,596.39h-43.88v-.56c0-9.43,7.65-17.08,17.08-17.08h26.8v17.64Z"/><polygon class="h" points="638.48 583.19 624.87 583.19 618.4 530.7 638.48 530.7 638.48 583.19"/><path class="i" d="M641.95,596.39h-43.88v-.56c0-9.43,7.65-17.08,17.08-17.08h26.8v17.64Z"/><path class="m" d="M504.77,339.35l-5.94,9.9s9.9,0,11.88,14.85l7.92-9.9-13.86-14.85Z"/><path class="i" d="M608.73,318.56s15.84,41.59,18.81,67.33c2.97,25.74,7.92,94.06,7.92,94.06l9.9,88.12-27.72,3.96-11.88-89.11-26.73-88.12-5.94,88.12-4.95,80.2-25.74,.99-1.98-83.17-10.89-105.95,5.94-50.5,73.27-5.94Z"/><circle class="h" cx="564.18" cy="168.16" r="24.75"/><polygon class="m" points="589.42 192.31 599.33 199.24 612.2 328.95 532 330.93 542.89 240.83 552.79 215.09 559.94 205.64 589.42 192.31"/><path class="i" d="M591.4,285.39l3.03-89.57s5.88,.45,7.86,3.42,34.66,8.91,34.66,8.91l-5.94,92.08s24.75,73.27,15.84,77.23-24.75,2.97-24.75,2.97l-30.69-95.05Z"/><path class="i" d="M543.38,274l10.5-60.36-23.38,15.81,5.94,43.57-4.95,29.7s-18.81,82.18-12.87,85.15,12.87,0,12.87,0l11.88-83.17v-30.69Z"/><path class="i" d="M537.44,227.46l-6.93,1.98-2.97,39.61-4.95,34.66-23.76,42.58s11.88-7.92,16.83,14.85l26.17-45.56-4.39-88.11Z"/><path class="i" d="M584.9,144.58l4.67-1.87s-9.76-10.75-23.34-9.81l3.82-4.2s-9.34-3.74-17.82,6.07c-4.46,5.16-9.62,11.22-12.84,18.05h-5l2.09,4.59-7.3,4.59,7.5-.83c-.45,2.52-.52,5.08-.2,7.62,.32,2.54,1.62,4.85,3.61,6.45h0s5.79-11.98,5.79-13.85v4.67s4.67-4.2,4.67-7.01l2.55,3.27,1.27-5.14,15.7,5.14-2.55-4.2,9.76,1.4-3.82-5.14,15.11,21.22s8.65-24.02-3.65-31.03Z"/><path class="h" d="M591.3,360.84c.92-5.86,6.42-9.87,12.29-8.94,.63,.1,1.24,.25,1.84,.46l23.62-30.01,6.26,18.83-23.39,25.61c-2.32,5.5-8.65,8.08-14.15,5.76-4.6-1.94-7.27-6.78-6.46-11.71Z"/><polygon class="m" points="631.51 350.24 622.59 361.13 610.71 340.34 615.66 331.43 631.51 350.24"/><path class="i" d="M629.53,211.62l7.92-3.96s5.94,7.92,6.93,14.85,5.94,15.84,5.94,20.79,13.86,51.49,13.86,51.49l-31.68,64.36s-6.93-23.76-21.78-25.74l24.75-34.66-13.86-24.75,7.92-62.38Z"/><path class="k" d="M800.92,597H419.92c-.55,0-1-.45-1-1s.45-1,1-1h381c.55,0,1,.45,1,1s-.45,1-1,1Z"/><path class="j" d="M365,212H0v-84H365v84Z"/><path class="n" d="M52.68,155.77c-1.96,0-3.56,1.59-3.56,3.56s1.59,3.56,3.56,3.56H312.34c1.96,0,3.56-1.59,3.56-3.56s-1.59-3.56-3.56-3.56H52.68Z"/><path class="n" d="M52.68,177.11c-1.96,0-3.56,1.58-3.56,3.55,0,1.96,1.58,3.56,3.55,3.56H216.82c1.96,0,3.56-1.59,3.56-3.56s-1.59-3.56-3.56-3.56H52.68Z"/><path class="m" d="M365,212H0v-84H365v84ZM6,206H359v-72H6v72Z"/><path class="j" d="M365,340H0v-84H365v84Z"/><path class="l" d="M52.68,283.77c-1.96,0-3.56,1.59-3.56,3.56s1.59,3.56,3.56,3.56H312.34c1.96,0,3.56-1.59,3.56-3.56s-1.59-3.56-3.56-3.56H52.68Z"/><path class="l" d="M52.68,305.11c-1.96,0-3.56,1.58-3.56,3.55,0,1.96,1.58,3.56,3.55,3.56H216.82c1.96,0,3.56-1.59,3.56-3.56s-1.59-3.56-3.56-3.56H52.68Z"/><path class="m" d="M365,340H0v-84H365v84ZM6,334H359v-72H6v72Z"/><path class="j" d="M368,84H3V0H368V84Z"/><path class="n" d="M55.68,27.77c-1.96,0-3.55,1.6-3.55,3.56,0,1.96,1.59,3.55,3.55,3.55H315.34c1.96,0,3.55-1.6,3.55-3.56,0-1.96-1.59-3.55-3.55-3.55H55.68Z"/><path class="n" d="M55.68,49.11c-1.96,0-3.56,1.58-3.56,3.55s1.58,3.56,3.55,3.56H219.82c1.96,0,3.56-1.59,3.56-3.55,0-1.96-1.59-3.56-3.55-3.56,0,0,0,0-.01,0H55.68Z"/><path class="m" d="M368,84H3V0H368V84ZM9,78H362V6H9V78Z"/><path class="o" d="M739.25,597.46v-72.34s28.19,51.29,0,72.34Z"/><path class="o" d="M740.99,597.44l-53.29-48.92s56.85,13.92,53.29,48.92Z"/><circle id="f" class="n" cx="484.31" cy="347.85" r="18.93"/><path id="g" class="j" d="M482.44,355.07c-.43,0-.84-.14-1.18-.39l-.02-.02-4.45-3.4c-.87-.66-1.03-1.91-.37-2.77,.66-.87,1.91-1.03,2.77-.37h0l2.88,2.21,6.81-8.89c.66-.87,1.9-1.03,2.77-.37h0l-.04,.06,.04-.06c.87,.67,1.03,1.91,.37,2.77l-8.01,10.45c-.38,.49-.96,.77-1.57,.77h0Z"/></svg>