<?xml version="1.0" encoding="utf-8"?>
<!-- Generator: Adobe Illustrator 26.0.0, SVG Export Plug-In . SVG Version: 6.00 Build 0)  -->
<svg version="1.1" id="Layer_1" xmlns="http://www.w3.org/2000/svg" xmlns:xlink="http://www.w3.org/1999/xlink" x="0px" y="0px"
	 viewBox="0 0 595.28 164.04" style="enable-background:new 0 0 595.28 164.04;" xml:space="preserve">
<style type="text/css">
	.st0{fill:url(#SVGID_1_);}
	.st1{fill:url(#SVGID_00000137105960495351314610000002030212109213574541_);}
	.st2{fill:#E6E7E8;}
	.st3{fill:url(#SVGID_00000059998637776409172750000013219198812775437744_);}
	.st4{fill:#FFFFFF;}
	.st5{fill:#D1D3D4;}
	.st6{fill:#006870;}
	.st7{fill:url(#SVGID_00000059997992489329423830000005815417054438571198_);}
	.st8{fill:#6D6E71;}
</style>
<g>
	<g>
		<linearGradient id="SVGID_1_" gradientUnits="userSpaceOnUse" x1="143.5215" y1="93.7934" x2="102.0521" y2="135.2627">
			<stop  offset="0" style="stop-color:#F37121"/>
			<stop  offset="0.2737" style="stop-color:#EF7223"/>
			<stop  offset="0.5677" style="stop-color:#E57525"/>
			<stop  offset="0.7346" style="stop-color:#DE7728"/>
			<stop  offset="0.7686" style="stop-color:#D16A27"/>
			<stop  offset="0.8279" style="stop-color:#C15927"/>
			<stop  offset="0.8867" style="stop-color:#B44C26"/>
			<stop  offset="0.9445" style="stop-color:#AD4525"/>
			<stop  offset="1" style="stop-color:#AB4224"/>
		</linearGradient>
		<polygon class="st0" points="146.9,131.88 122.79,120.36 98.67,131.88 98.67,97.17 146.9,97.17 		"/>
		
			<linearGradient id="SVGID_00000026163576287638961320000006495477946262139015_" gradientUnits="userSpaceOnUse" x1="122.7868" y1="97.8517" x2="122.7868" y2="123.303">
			<stop  offset="0" style="stop-color:#DB335C"/>
			<stop  offset="1" style="stop-color:#FCCA26;stop-opacity:0.6"/>
		</linearGradient>
		<polygon style="fill:url(#SVGID_00000026163576287638961320000006495477946262139015_);" points="140.47,123.3 122.79,114.86 
			105.11,123.3 105.11,97.85 140.47,97.85 		"/>
		<path class="st2" d="M121.93,32.4c-21.59,0-39.09,17.5-39.09,39.09s17.5,39.09,39.09,39.09s39.09-17.5,39.09-39.09
			S143.52,32.4,121.93,32.4z M121.93,101.85c-16.77,0-30.36-13.59-30.36-30.36s13.59-30.36,30.36-30.36s30.36,13.59,30.36,30.36
			S138.7,101.85,121.93,101.85z"/>
		
			<linearGradient id="SVGID_00000032606874176411279470000005751987367550976922_" gradientUnits="userSpaceOnUse" x1="121.9335" y1="28.4833" x2="121.9335" y2="114.4939">
			<stop  offset="0" style="stop-color:#FDB714"/>
			<stop  offset="0.1307" style="stop-color:#FAB915"/>
			<stop  offset="0.2713" style="stop-color:#F5C017"/>
			<stop  offset="0.4161" style="stop-color:#EECC18"/>
			<stop  offset="0.4944" style="stop-color:#E9D419"/>
			<stop  offset="0.5354" style="stop-color:#EBC922"/>
			<stop  offset="0.6305" style="stop-color:#EEB12F"/>
			<stop  offset="0.7255" style="stop-color:#F09E37"/>
			<stop  offset="0.8194" style="stop-color:#F2913A"/>
			<stop  offset="0.9115" style="stop-color:#F5893C"/>
			<stop  offset="1" style="stop-color:#F6863C"/>
		</linearGradient>
		<path style="fill:url(#SVGID_00000032606874176411279470000005751987367550976922_);" d="M121.93,28.48
			c-23.75,0-43.01,19.25-43.01,43.01s19.25,43.01,43.01,43.01s43.01-19.25,43.01-43.01S145.68,28.48,121.93,28.48z M121.93,104.89
			c-18.45,0-33.41-14.96-33.41-33.41s14.96-33.41,33.41-33.41s33.41,14.96,33.41,33.41S140.38,104.89,121.93,104.89z"/>
		<circle class="st4" cx="121.93" cy="73.11" r="31.99"/>
		<g>
			<path class="st5" d="M142.63,60.31H96.86c-1.01,0-1.84-0.83-1.84-1.84v0c0-1.01,0.83-1.84,1.84-1.84h45.77
				c1.01,0,1.84,0.83,1.84,1.84v0C144.48,59.49,143.65,60.31,142.63,60.31z"/>
			<path class="st5" d="M142.63,67.23H96.86c-1.01,0-1.84-0.83-1.84-1.84v0c0-1.01,0.83-1.84,1.84-1.84h45.77
				c1.01,0,1.84,0.83,1.84,1.84v0C144.48,66.4,143.65,67.23,142.63,67.23z"/>
			<path class="st5" d="M142.63,74.14H96.86c-1.01,0-1.84-0.83-1.84-1.84v0c0-1.01,0.83-1.84,1.84-1.84h45.77
				c1.01,0,1.84,0.83,1.84,1.84v0C144.48,73.31,143.65,74.14,142.63,74.14z"/>
			<path class="st5" d="M142.63,82.09H96.86c-1.01,0-1.84-0.83-1.84-1.84v0c0-1.01,0.83-1.84,1.84-1.84h45.77
				c1.01,0,1.84,0.83,1.84,1.84v0C144.48,81.26,143.65,82.09,142.63,82.09z"/>
		</g>
		<path class="st6" d="M145.84,58.82c1.89-2.24,3.79-4.48,5.66-6.73c1.34-1.61,2.64-3.25,3.96-4.87c1.08-1.28,2.16-2.56,3.24-3.84
			c1.06-1.26,1.99-2.63,3.35-3.61c0.69-0.49,1.42-0.89,2.24-1.08c1.33-0.31,2.08,0.13,3.06,1.76c0,0.9,0,1.79,0,2.69
			c-0.36-0.12-0.3,0.19-0.36,0.36c-0.42,1.23-1.07,2.33-1.77,3.41c-1.1,1.69-2.16,3.4-3.24,5.1c-1.58,2.43-3.18,4.86-4.75,7.3
			c-1.84,2.84-3.66,5.69-5.49,8.53c-0.19,0.3-0.35,0.63-0.53,0.94c-0.2,0.27-0.4,0.53-0.58,0.81
			c-6.96,10.83-13.91,21.66-20.89,32.48c-2.74,4.25-8.46,4.63-11.78,0.82c-1.49-1.71-2.96-3.44-4.44-5.16
			c-4.28-5-8.58-9.99-12.85-15c-1.59-1.87-2.31-4.02-1.76-6.46c0.61-2.69,2.25-4.56,4.87-5.41c2.58-0.83,5.05-0.43,7.04,1.47
			c2.44,2.32,4.45,5.04,6.66,7.57c1.86,2.13,3.68,4.28,5.54,6.45c0.19-0.21,0.34-0.37,0.48-0.54c5.67-6.83,11.34-13.67,17-20.5
			C142.31,63.16,144.07,60.99,145.84,58.82z"/>
		
			<linearGradient id="SVGID_00000123425770260112866770000013873389723950671755_" gradientUnits="userSpaceOnUse" x1="101.3455" y1="68.8392" x2="169.9596" y2="68.8392">
			<stop  offset="0" style="stop-color:#009C9D"/>
			<stop  offset="1" style="stop-color:#BAD643"/>
		</linearGradient>
		<path style="fill:url(#SVGID_00000123425770260112866770000013873389723950671755_);" d="M148.44,55.6
			c1.89-2.24,3.79-4.48,5.66-6.73c1.34-1.61,2.64-3.25,3.96-4.87c1.08-1.28,2.16-2.56,3.24-3.84c1.06-1.26,1.99-2.63,3.35-3.61
			c0.69-0.49,1.42-0.89,2.24-1.08c1.33-0.31,2.08,0.13,3.06,1.76c0,0.9,0,1.79,0,2.69c-0.36-0.12-0.3,0.19-0.36,0.36
			c-0.42,1.23-1.07,2.33-1.77,3.41c-1.1,1.69-2.16,3.4-3.24,5.1c-1.58,2.43-3.18,4.86-4.75,7.3c-1.84,2.84-3.66,5.69-5.49,8.53
			c-0.19,0.3-0.35,0.63-0.53,0.94c-0.2,0.27-0.4,0.53-0.58,0.81c-6.96,10.83-13.91,21.66-20.89,32.48
			c-2.74,4.25-8.46,4.63-11.78,0.82c-1.49-1.71-2.96-3.44-4.44-5.16c-4.28-5-8.58-9.99-12.85-15c-1.59-1.87-2.31-4.02-1.76-6.46
			c0.61-2.69,2.25-4.56,4.87-5.41c2.58-0.83,5.05-0.43,7.04,1.47c2.44,2.32,4.45,5.04,6.66,7.57c1.86,2.13,3.68,4.28,5.54,6.45
			c0.19-0.21,0.34-0.37,0.48-0.54c5.67-6.83,11.34-13.67,17-20.5C144.9,59.94,146.66,57.76,148.44,55.6z"/>
	</g>
	<g>
		<path class="st8" d="M233.85,61.59v-0.43c0-3.76-3.12-6.87-6.87-6.87h-30.51c-3.76,0-6.87,3.12-6.87,6.87v0.43
			c0,3.76,3.12,6.87,6.87,6.87h27.07c6.98,0,13.21,3.01,17.51,7.73c0.32,0.32,0.54,0.64,0.86,0.97c3.33,4.08,5.37,9.35,5.37,15.04
			c0,13.1-10.63,23.74-23.74,23.74h-23.52c-13.1,0-23.74-10.63-23.74-23.74h13.43c0,5.69,4.62,10.31,10.31,10.31h23.52
			c5.69,0,10.42-4.62,10.42-10.31c0-5.69-4.73-10.31-10.42-10.31h-27.07c-5.48,0-10.42-2.15-14.07-5.69
			c-0.97-0.97-1.83-2.04-2.58-3.22c-2.26-3.22-3.54-7.2-3.54-11.49v-0.43c0-11.17,9.02-20.3,20.19-20.3h30.51
			c11.17,0,20.3,9.13,20.3,20.3v0.43L233.85,61.59z"/>
		<path class="st8" d="M324.61,115.94h-15.04l-6.87-13.43l-16.43-32.23l-16.43,32.23l-6.87,13.43h-15.04l6.87-13.43l31.47-61.77
			l31.47,61.77L324.61,115.94z"/>
		<path class="st8" d="M368.54,40.86c20.73,0,37.6,16.76,37.6,37.49c0,9.24-3.33,17.72-8.92,24.28c-0.64,0.75-1.4,1.5-2.15,2.26
			c-6.77,6.87-16.11,11.06-26.42,11.06h-37.6V40.75L368.54,40.86z M344.37,102.62h24.17c13.32,0,24.17-10.85,24.17-24.17
			c0-13.32-10.85-24.17-24.17-24.17h-24.17V102.62z"/>
		<path class="st8" d="M416.99,115.94V40.75h13.43v75.19H416.99z"/>
		<path class="st8" d="M516.35,40.86v75.19l-13.43-10.31l-48.34-37.27v47.59h-13.43V41.07l13.43,10.31l48.34,37.27V40.75
			L516.35,40.86z"/>
	</g>
</g>
</svg>
