<svg id="Capa_1" data-name="Capa 1" xmlns="http://www.w3.org/2000/svg" xmlns:xlink="http://www.w3.org/1999/xlink" viewBox="0 0 114.43 129.98"><defs><style>.cls-1{fill:url(#Degradado_sin_nombre_6);}.cls-2{fill:url(#Degradado_sin_nombre_5);}.cls-3{fill:#ececec;}.cls-4{fill:url(#Degradado_sin_nombre_4);}.cls-5{fill:#fff;}.cls-6{fill:#d9d9d9;}.cls-7{fill:#00656f;}.cls-8{fill:url(#linear-gradient);}</style><linearGradient id="Degradado_sin_nombre_6" x1="81.2" y1="82.1" x2="29.07" y2="134.23" gradientUnits="userSpaceOnUse"><stop offset="0" stop-color="#eb6907"/><stop offset="0.37" stop-color="#e76b0a"/><stop offset="0.73" stop-color="#db7111"/><stop offset="0.77" stop-color="#d06514"/><stop offset="0.85" stop-color="#bb511a"/><stop offset="0.93" stop-color="#af441e"/><stop offset="1" stop-color="#ab401f"/></linearGradient><linearGradient id="Degradado_sin_nombre_5" x1="55.13" y1="87.2" x2="55.13" y2="119.2" gradientUnits="userSpaceOnUse"><stop offset="0" stop-color="#d92854"/><stop offset="1" stop-color="#fccb00" stop-opacity="0.6"/></linearGradient><linearGradient id="Degradado_sin_nombre_4" x1="241.19" y1="120.19" x2="241.19" y2="228.31" gradientUnits="userSpaceOnUse"><stop offset="0" stop-color="#fab700"/><stop offset="0.18" stop-color="#f8bb00"/><stop offset="0.38" stop-color="#f2c800"/><stop offset="0.49" stop-color="#ecd400"/><stop offset="0.55" stop-color="#edc409"/><stop offset="0.66" stop-color="#eea81b"/><stop offset="0.78" stop-color="#ee9327"/><stop offset="0.89" stop-color="#ef862e"/><stop offset="1" stop-color="#ef8231"/></linearGradient><linearGradient id="linear-gradient" x1="215.31" y1="170.92" x2="301.56" y2="170.92" gradientUnits="userSpaceOnUse"><stop offset="0" stop-color="#009cb2"/><stop offset="1" stop-color="#aec741"/></linearGradient></defs><g id="_3._SADIN" data-name="3. SADIN"><polygon class="cls-1" points="85.45 129.98 55.13 115.5 24.82 129.98 24.82 86.35 85.45 86.35 85.45 129.98"/><polygon class="cls-2" points="77.36 119.2 55.13 108.58 32.91 119.2 32.91 87.2 77.36 87.2 77.36 119.2"/><path class="cls-3" d="M241.19,125.11a49.14,49.14,0,1,0,49.14,49.14A49.14,49.14,0,0,0,241.19,125.11Zm0,87.31a38.17,38.17,0,1,1,38.17-38.17A38.17,38.17,0,0,1,241.19,212.42Z" transform="translate(-187.13 -120.19)"/><path class="cls-4" d="M241.19,120.19a54.06,54.06,0,1,0,54.06,54.06A54.06,54.06,0,0,0,241.19,120.19Zm0,96.05a42,42,0,1,1,42-42A42,42,0,0,1,241.19,216.24Z" transform="translate(-187.13 -120.19)"/><path class="cls-5" d="M281.4,176.29a40.21,40.21,0,1,1-40.21-40.21A40.2,40.2,0,0,1,281.4,176.29Z" transform="translate(-187.13 -120.19)"/><path class="cls-6" d="M267.21,160.2H209.67a2.33,2.33,0,0,1-2.32-2.31h0a2.33,2.33,0,0,1,2.32-2.32h57.54a2.32,2.32,0,0,1,2.32,2.32h0A2.32,2.32,0,0,1,267.21,160.2Z" transform="translate(-187.13 -120.19)"/><path class="cls-6" d="M267.21,168.89H209.67a2.33,2.33,0,0,1-2.32-2.32h0a2.33,2.33,0,0,1,2.32-2.31h57.54a2.32,2.32,0,0,1,2.32,2.31h0A2.32,2.32,0,0,1,267.21,168.89Z" transform="translate(-187.13 -120.19)"/><path class="cls-6" d="M267.21,177.58H209.67a2.33,2.33,0,0,1-2.32-2.32h0a2.33,2.33,0,0,1,2.32-2.32h57.54a2.33,2.33,0,0,1,2.32,2.32h0A2.32,2.32,0,0,1,267.21,177.58Z" transform="translate(-187.13 -120.19)"/><path class="cls-6" d="M267.21,187.57H209.67a2.33,2.33,0,0,1-2.32-2.32h0a2.33,2.33,0,0,1,2.32-2.31h57.54a2.32,2.32,0,0,1,2.32,2.31h0A2.32,2.32,0,0,1,267.21,187.57Z" transform="translate(-187.13 -120.19)"/><path class="cls-7" d="M271.25,158.32c2.37-2.82,4.76-5.63,7.12-8.46,1.68-2,3.32-4.08,5-6.13,1.36-1.6,2.71-3.21,4.07-4.82a24.54,24.54,0,0,1,4.22-4.54,7.83,7.83,0,0,1,2.82-1.35c1.67-.4,2.62.16,3.84,2.21v3.39c-.44-.16-.38.24-.45.44a19.84,19.84,0,0,1-2.22,4.29c-1.38,2.13-2.72,4.28-4.07,6.41l-6,9.18q-3.46,5.37-6.89,10.73c-.25.38-.45.79-.67,1.18s-.51.67-.73,1Q264.15,192.3,251,212.71a9.13,9.13,0,0,1-14.8,1c-1.87-2.15-3.73-4.32-5.58-6.48q-8.09-9.42-16.15-18.86a9,9,0,0,1-2.22-8.12,8.77,8.77,0,0,1,6.13-6.8,8.45,8.45,0,0,1,8.84,1.84c3.06,2.92,5.59,6.33,8.37,9.51,2.34,2.68,4.62,5.39,7,8.11.23-.25.43-.46.61-.67q10.68-12.89,21.37-25.78C266.81,163.78,269,161.05,271.25,158.32Z" transform="translate(-187.13 -120.19)"/><path class="cls-8" d="M274.51,154.27c2.37-2.82,4.76-5.63,7.11-8.47,1.69-2,3.33-4.08,5-6.12l4.07-4.83a24.48,24.48,0,0,1,4.22-4.53,7.85,7.85,0,0,1,2.82-1.36c1.67-.39,2.62.16,3.84,2.22v3.38c-.44-.15-.38.24-.45.45a19.84,19.84,0,0,1-2.22,4.29c-1.38,2.12-2.72,4.27-4.07,6.41-2,3.06-4,6.11-6,9.18q-3.46,5.36-6.89,10.73c-.25.38-.45.78-.67,1.18s-.51.67-.73,1q-13.14,20.42-26.26,40.84a9.13,9.13,0,0,1-14.8,1c-1.88-2.15-3.73-4.32-5.58-6.49q-8.08-9.42-16.15-18.85a9,9,0,0,1-2.22-8.12,8.75,8.75,0,0,1,6.13-6.8,8.41,8.41,0,0,1,8.84,1.84c3.06,2.91,5.59,6.33,8.37,9.51,2.33,2.67,4.62,5.38,7,8.11.23-.26.43-.46.61-.68q10.68-12.89,21.37-25.77C270.06,159.73,272.28,157,274.51,154.27Z" transform="translate(-187.13 -120.19)"/></g></svg>