<?xml version="1.0" encoding="utf-8"?>
<!-- Generator: Adobe Illustrator 26.2.1, SVG Export Plug-In . SVG Version: 6.00 Build 0)  -->
<svg version="1.1" id="Capa_1" xmlns="http://www.w3.org/2000/svg" xmlns:xlink="http://www.w3.org/1999/xlink" x="0px" y="0px"
	 viewBox="0 0 479 487" style="enable-background:new 0 0 479 487;" xml:space="preserve">
<style type="text/css">
	.st0{fill:#ECECEC;}
	.st1{fill:#F5F5F5;}
	.st2{fill:#E1E1E1;}
	.st3{fill:#FFFFFF;}
	.st4{fill:#1A2E35;}
	.st5{fill:#00A99D;}
	.st6{opacity:0.3;}
	.st7{fill:#FAFAFA;}
	.st8{fill:#7EA2A8;}
	.st9{fill:#FF735D;}
	.st10{fill:#038478;}
	.st11{fill:#FFBF9D;}
	.st12{fill:#375A64;}
	.st13{fill:#FF9A6C;}
	.st14{fill:#998675;}
	.st15{opacity:0.6;}
	.st16{opacity:0.5;}
	.st17{fill:#038276;}
</style>
<g>
	<g>
		<path class="st0" d="M362.62,23.73l-5.24,55.21c-0.19,1.97,1.03,3.71,2.79,3.97l88.42,13.36c1.83,0.28,3.57-1.15,3.88-3.2
			l6.44-42.64c0.31-2.05-0.94-3.94-2.78-4.2l-54.44-7.83c-0.88-0.13-1.67-0.64-2.19-1.42l-7.88-11.81c-0.52-0.78-1.3-1.28-2.17-1.42
			l-22.93-3.47C364.62,20.02,362.83,21.59,362.62,23.73z"/>
	</g>
	<g>
		
			<rect x="358.42" y="32.61" transform="matrix(0.9888 0.1494 -0.1494 0.9888 14.3104 -60.1339)" class="st1" width="97.71" height="65.09"/>
	</g>
	<g>
		<path class="st0" d="M355.28,30.29l-2.77,68.23c-0.05,1.21,0.72,2.25,1.8,2.41l94.16,14.23c1.11,0.17,2.18-0.65,2.46-1.87
			l14.88-66.4c0.31-1.37-0.49-2.7-1.74-2.89L357.8,27.94C356.52,27.74,355.34,28.84,355.28,30.29z"/>
	</g>
</g>
<g>
	<g>
		<path class="st0" d="M207.04,368.21l-11.95,38.35c-0.43,1.37,0.23,2.8,1.49,3.28l63.75,24.02c1.32,0.5,2.82-0.23,3.35-1.63
			L274.69,403c0.53-1.41-0.12-2.95-1.45-3.44l-39.31-14.5c-0.64-0.23-1.15-0.73-1.42-1.37l-4.13-9.68c-0.27-0.64-0.78-1.12-1.4-1.36
			l-16.53-6.23C209.06,365.9,207.51,366.72,207.04,368.21z"/>
	</g>
	<g>
		
			<rect x="196.96" y="381.39" transform="matrix(0.9358 0.3526 -0.3526 0.9358 157.812 -56.559)" class="st1" width="74.43" height="47.13"/>
	</g>
	<g>
		<path class="st0" d="M200.63,371.65l-12.01,48c-0.21,0.85,0.21,1.71,0.99,2.01l67.88,25.58c0.8,0.3,1.72-0.1,2.1-0.92l20.75-44.71
			c0.43-0.92,0.03-2-0.87-2.34l-76.62-28.87C201.92,370.05,200.88,370.64,200.63,371.65z"/>
	</g>
</g>
<g>
	<g>
		<path class="st0" d="M33.83,47.27l2.68,43.45c0.1,1.55,1.38,2.75,2.93,2.75h78.23c1.62,0,2.93-1.31,2.93-2.94l0-33.84
			c0-1.63-1.33-2.95-2.95-2.93l-48.11,0.31c-0.78,0-1.52-0.3-2.08-0.84L59.1,45c-0.55-0.54-1.29-0.84-2.06-0.84H36.76
			C35.06,44.16,33.72,45.58,33.83,47.27z"/>
	</g>
	<g>
		<rect x="35.13" y="48.63" class="st1" width="85.47" height="51.07"/>
	</g>
	<g>
		<path class="st0" d="M28.33,53.22l6.53,53.26c0.12,0.95,0.92,1.66,1.87,1.66l83.3,0c0.99,0,1.8-0.76,1.88-1.74l4.19-53.26
			c0.09-1.1-0.78-2.04-1.88-2.04l-94.02,0C29.07,51.1,28.19,52.09,28.33,53.22z"/>
	</g>
</g>
<g>
	<g>
		<g>
			<path class="st0" d="M42.94,294.41c0,0-6.34-0.46-5.75,13.76c0.58,14.22,2.03,21.79,2.03,21.79s-0.19,3.15-2.63,2.53
				c-2.44-0.62-7.03-3.69-9.3-1.39c-2.35,2.38-1.52,6.03,1.6,10.32c3.12,4.3,9.61,13.96,10.2,14.84c0.57,0.86,0.8,2.47-0.93,2.32
				c-1.73-0.15-13.41-4.11-14.96,1.54c-1.55,5.66,9.11,16.2,10.26,17.37c1.14,1.17,1.2,1.92,0.74,2.63
				c-0.46,0.71-4.27-0.99-7.63-1.98c-3.37-0.99-7.45-1.55-8.07,1.79c-0.62,3.34,4.08,13.11,21.66,23.37l8.46,4.22l8.01-5.11
				c16.47-11.97,20.16-22.16,19.21-25.42c-0.95-3.26-4.95-2.3-8.21-0.97c-3.25,1.32-6.86,3.39-7.4,2.73
				c-0.53-0.66-0.55-1.4,0.47-2.69c1.02-1.28,10.57-12.84,8.47-18.31c-2.11-5.47-13.33-0.36-15.04-0.04
				c-1.71,0.33-1.64-1.3-1.16-2.21c0.49-0.93,5.99-11.2,8.66-15.78c2.68-4.59,3.14-8.3,0.56-10.43c-2.49-2.06-6.75,1.46-9.12,2.32
				c-2.37,0.86-2.87-2.26-2.87-2.26s0.69-7.68-0.16-21.89c-0.84-14.21-7.25-13.06-7.25-13.06"/>
		</g>
		<g>
			<g>
				<path class="st2" d="M43.45,307.15c0,0,0.02,0.1,0.03,0.3c0.02,0.21,0.04,0.5,0.07,0.87c0.05,0.78,0.13,1.91,0.23,3.36
					c0.19,2.92,0.44,7.14,0.73,12.36c0.58,10.43,1.26,24.86,1.95,40.79c0.7,15.93,1.34,30.36,1.86,40.79
					c0.26,5.21,0.48,9.43,0.63,12.36c0.07,1.45,0.13,2.58,0.17,3.36c0.01,0.37,0.03,0.66,0.04,0.87c0.01,0.2,0,0.3,0,0.3
					s-0.02-0.1-0.03-0.3c-0.02-0.21-0.04-0.5-0.07-0.87c-0.05-0.78-0.13-1.91-0.23-3.36c-0.19-2.92-0.44-7.14-0.73-12.35
					c-0.58-10.43-1.26-24.86-1.95-40.79c-0.7-15.93-1.34-30.35-1.86-40.79c-0.26-5.21-0.48-9.43-0.63-12.36
					c-0.07-1.45-0.13-2.58-0.17-3.36c-0.02-0.37-0.03-0.66-0.04-0.87C43.44,307.25,43.45,307.15,43.45,307.15z"/>
			</g>
		</g>
		<g>
			<g>
				<path class="st2" d="M33.55,335.66c0.02-0.02,0.2,0.14,0.53,0.44c0.33,0.3,0.78,0.74,1.34,1.29c1.12,1.11,2.62,2.67,4.24,4.44
					c1.59,1.74,3.03,3.31,4.14,4.53c0.49,0.54,0.91,0.99,1.26,1.37c0.3,0.32,0.46,0.51,0.44,0.52c-0.02,0.02-0.2-0.14-0.53-0.43
					c-0.32-0.3-0.78-0.74-1.34-1.3c-1.11-1.12-2.59-2.7-4.21-4.47c-1.6-1.73-3.05-3.29-4.17-4.5c-0.5-0.53-0.92-0.99-1.27-1.36
					C33.69,335.86,33.53,335.68,33.55,335.66z"/>
			</g>
		</g>
		<g>
			<g>
				<path class="st2" d="M46.33,347.96c-0.06-0.06,3.03-3.3,6.91-7.24c3.88-3.93,7.08-7.07,7.14-7.01c0.06,0.06-3.03,3.3-6.91,7.24
					C49.59,344.88,46.4,348.02,46.33,347.96z"/>
			</g>
		</g>
		<g>
			<g>
				<path class="st2" d="M46.3,372.47c-0.01-0.02,0.2-0.15,0.59-0.38c0.45-0.25,1-0.56,1.65-0.93c1.4-0.78,3.32-1.87,5.4-3.15
					c2.08-1.27,3.93-2.49,5.26-3.38c0.62-0.41,1.15-0.77,1.58-1.05c0.37-0.25,0.59-0.37,0.6-0.36c0.01,0.02-0.18,0.18-0.53,0.46
					c-0.35,0.28-0.87,0.67-1.52,1.14c-1.3,0.94-3.13,2.19-5.22,3.47c-2.09,1.28-4.04,2.34-5.46,3.08c-0.71,0.36-1.3,0.65-1.71,0.84
					C46.54,372.4,46.31,372.49,46.3,372.47z"/>
			</g>
		</g>
		<g>
			<g>
				<path class="st2" d="M32.28,363.89c0.01-0.02,0.22,0.08,0.59,0.27c0.37,0.19,0.89,0.49,1.53,0.85c1.29,0.73,3.06,1.76,5,2.92
					c1.94,1.16,3.69,2.22,4.95,3c0.63,0.39,1.13,0.71,1.48,0.94c0.35,0.23,0.53,0.36,0.52,0.38c-0.01,0.02-0.22-0.08-0.58-0.27
					s-0.89-0.49-1.53-0.85c-1.29-0.73-3.06-1.76-5-2.92c-1.94-1.16-3.69-2.22-4.95-3c-0.63-0.39-1.14-0.71-1.48-0.94
					C32.46,364.05,32.27,363.91,32.28,363.89z"/>
			</g>
		</g>
		<g>
			<g>
				<path class="st2" d="M29.5,385.53c0.01-0.02,0.28,0.11,0.74,0.36c0.52,0.29,1.18,0.65,1.97,1.09c1.66,0.93,3.93,2.23,6.43,3.69
					c2.5,1.46,4.76,2.79,6.39,3.77c0.77,0.47,1.41,0.86,1.92,1.17c0.45,0.28,0.69,0.45,0.68,0.47c-0.01,0.02-0.28-0.11-0.74-0.36
					c-0.52-0.29-1.18-0.65-1.97-1.09c-1.66-0.93-3.93-2.23-6.44-3.69c-2.5-1.46-4.76-2.79-6.39-3.77c-0.77-0.47-1.41-0.86-1.92-1.18
					C29.73,385.72,29.49,385.55,29.5,385.53z"/>
			</g>
		</g>
		<g>
			<g>
				<path class="st2" d="M47.27,395.71c-0.01-0.02,0.25-0.19,0.74-0.49c0.54-0.33,1.23-0.75,2.06-1.25
					c1.74-1.06,4.13-2.53,6.72-4.22c2.6-1.69,4.91-3.28,6.58-4.44c0.8-0.55,1.46-1.01,1.98-1.37c0.47-0.32,0.73-0.49,0.75-0.47
					c0.01,0.02-0.23,0.22-0.67,0.58c-0.45,0.35-1.1,0.85-1.92,1.46c-1.64,1.21-3.93,2.83-6.54,4.53c-2.6,1.7-5.02,3.14-6.78,4.15
					c-0.89,0.5-1.61,0.9-2.11,1.16C47.57,395.59,47.28,395.73,47.27,395.71z"/>
			</g>
		</g>
	</g>
	<g>
		<g>
			<g>
				<polygon class="st2" points="59.99,410.31 36.58,410.31 44.22,468.13 52.35,468.13 				"/>
			</g>
		</g>
		<g>
			<g>
				<g>
					<path class="st1" d="M37.8,417.41c-0.01,0.01,0.03,0.08,0.13,0.21c0.1,0.12,0.28,0.28,0.56,0.4c0.55,0.24,1.53,0.26,2.47-0.3
						c0.95-0.52,1.77-1.55,3.03-2c1.26-0.48,2.81-0.39,4.3,0.09c1.51,0.47,2.82,1.23,4.01,1.94c1.19,0.71,2.28,1.34,3.26,1.75
						c0.97,0.42,1.82,0.62,2.4,0.69c0.29,0.04,0.52,0.05,0.68,0.05c0.16,0,0.24-0.01,0.24-0.02c0.01-0.08-1.32-0.06-3.21-0.97
						c-0.94-0.43-2.01-1.08-3.19-1.8c-1.17-0.73-2.52-1.52-4.08-2c-1.54-0.5-3.2-0.59-4.54-0.05c-0.67,0.26-1.24,0.66-1.71,1.06
						c-0.48,0.4-0.91,0.77-1.34,1.04c-0.86,0.55-1.76,0.58-2.28,0.4C38,417.7,37.83,417.38,37.8,417.41z"/>
				</g>
			</g>
		</g>
		<g>
			<g>
				<g>
					<path class="st1" d="M38.65,428.06c0.03,0.02,0.19-0.24,0.55-0.62c0.37-0.37,0.98-0.86,1.87-1.19
						c0.88-0.34,2.01-0.54,3.25-0.49c1.25,0.04,2.62,0.32,4.07,0.55c1.45,0.24,2.89,0.35,4.17,0.17c1.28-0.16,2.4-0.53,3.28-0.94
						c0.89-0.4,1.54-0.85,1.97-1.17c0.43-0.33,0.64-0.55,0.62-0.56c-0.04-0.06-0.95,0.75-2.71,1.49c-0.88,0.36-1.97,0.69-3.22,0.83
						c-1.25,0.15-2.63,0.04-4.07-0.2c-1.44-0.23-2.83-0.5-4.12-0.53c-1.3-0.03-2.46,0.21-3.37,0.59c-0.91,0.38-1.53,0.92-1.88,1.34
						c-0.17,0.22-0.29,0.39-0.35,0.52C38.67,427.99,38.64,428.06,38.65,428.06z"/>
				</g>
			</g>
		</g>
		<g>
			<g>
				<g>
					<path class="st1" d="M57.34,433.77c0.01-0.02-0.21-0.16-0.64-0.33c-0.44-0.17-1.1-0.35-1.94-0.42
						c-0.84-0.07-1.84-0.01-2.93,0.17c-1.09,0.18-2.26,0.48-3.49,0.74c-1.23,0.26-2.41,0.43-3.49,0.39
						c-1.07-0.04-2.03-0.27-2.77-0.6c-1.51-0.66-2.04-1.62-2.1-1.56c-0.01,0.01,0.09,0.25,0.4,0.61c0.3,0.36,0.83,0.82,1.59,1.2
						c0.76,0.37,1.75,0.65,2.87,0.71c1.12,0.06,2.34-0.11,3.58-0.37c1.24-0.26,2.4-0.57,3.47-0.77c1.07-0.2,2.04-0.28,2.86-0.24
						C56.38,433.34,57.31,433.84,57.34,433.77z"/>
				</g>
			</g>
		</g>
		<g>
			<g>
				<g>
					<path class="st1" d="M40.72,441.78c0.01,0.06,0.84-0.52,2.27-0.23c0.7,0.13,1.49,0.48,2.38,0.89c0.88,0.41,1.95,0.76,3.09,0.85
						c2.3,0.22,4.34-0.52,5.6-1.3c0.64-0.38,1.09-0.79,1.39-1.07c0.28-0.3,0.43-0.48,0.41-0.5c-0.05-0.06-0.67,0.64-1.94,1.33
						c-1.25,0.69-3.23,1.36-5.43,1.15c-2.22-0.13-3.92-1.45-5.45-1.62c-0.75-0.11-1.38,0-1.77,0.15
						C40.88,441.6,40.71,441.77,40.72,441.78z"/>
				</g>
			</g>
		</g>
		<g>
			<g>
				<g>
					<path class="st1" d="M42.02,452.88c0,0.04,0.78,0.04,1.95-0.39c1.18-0.39,2.63-1.3,4.33-1.97c0.85-0.33,1.71-0.53,2.49-0.52
						c0.78,0,1.47,0.19,2,0.46c1.08,0.54,1.39,1.3,1.45,1.25c0.02-0.01-0.03-0.2-0.22-0.49c-0.19-0.29-0.55-0.68-1.1-0.99
						c-0.55-0.31-1.28-0.55-2.12-0.57c-0.84-0.02-1.74,0.18-2.63,0.52c-1.76,0.7-3.17,1.63-4.3,2.08
						C42.77,452.72,42.01,452.82,42.02,452.88z"/>
				</g>
			</g>
		</g>
		<g>
			<g>
				<g>
					<path class="st1" d="M43.17,458.05c-0.01,0.05,0.55,0.25,1.48,0.48c0.93,0.23,2.24,0.48,3.7,0.62c1.46,0.14,2.8,0.15,3.76,0.11
						c0.96-0.05,1.55-0.13,1.55-0.18c-0.01-0.12-2.37-0.01-5.27-0.31C45.5,458.49,43.2,457.93,43.17,458.05z"/>
				</g>
			</g>
		</g>
	</g>
</g>
<rect x="88.08" y="67.07" class="st3" width="331.83" height="291.82"/>
<g>
	<g>
		<path class="st4" d="M419.91,358.89c0-1.85-0.09-116.18-0.22-291.82l0.22,0.22c-95.43,0.01-209.51,0.03-331.8,0.04h-0.03
			l0.26-0.26c-0.01,106.06-0.02,205.92-0.03,291.82l-0.23-0.23C286.13,358.8,417.92,358.89,419.91,358.89
			c-1.99,0-133.78,0.09-331.83,0.23l-0.23,0v-0.23c-0.01-85.9-0.02-185.76-0.03-291.82v-0.26h0.26h0.03
			c122.29,0.01,236.37,0.03,331.8,0.04h0.22l0,0.22C419.99,242.71,419.91,357.04,419.91,358.89z"/>
	</g>
</g>
<g>
	<path class="st5" d="M159.37,141.7v52.34h63.62V141.7c0-2.49-2.02-4.51-4.51-4.51h-54.59C161.39,137.19,159.37,139.21,159.37,141.7
		z"/>
</g>
<g>
	<path class="st5" d="M146.59,231.27l14.21-39.09l62.18,1.86l-9.27,35.65c-0.37,1.41-1.66,2.39-3.12,2.36l-16.11-0.34l-2.64,3.76
		c-0.7,0.99-1.85,1.55-3.05,1.5l-38.92-1.64C147.88,235.32,146.34,233.42,146.59,231.27z"/>
</g>
<g>
	<g>
		<polygon class="st1" points="162.77,146.4 162.77,151.76 162.77,187.36 218.69,190.44 218.44,146.4 		"/>
	</g>
	<g>
		<g>
			<path class="st4" d="M162.77,146.4c0,0,0.08-0.01,0.25-0.01c0.19,0,0.44-0.01,0.76-0.01c0.7-0.01,1.7-0.02,2.99-0.03
				c2.66-0.01,6.5-0.04,11.37-0.06c9.83-0.03,23.77-0.07,40.29-0.12l0.23,0l0,0.23c0.08,12.77,0.17,27.3,0.26,42.66
				c0,0.46,0.01,0.93,0.01,1.38l0,0.28l-0.28-0.02c-20.93-1.17-40.26-2.25-55.91-3.13l-0.2-0.01l0-0.2
				c0.04-12.42,0.07-22.66,0.09-29.81c0.03-3.56,0.05-6.35,0.06-8.27c0.01-0.93,0.03-1.65,0.03-2.16
				C162.76,146.64,162.77,146.4,162.77,146.4s0.02,0.27,0.02,0.76c0.01,0.51,0.02,1.23,0.03,2.16c0.01,1.91,0.04,4.69,0.06,8.23
				c0.02,7.15,0.05,17.39,0.09,29.81l-0.2-0.21c15.66,0.85,34.99,1.9,55.92,3.03l-0.27,0.26c0-0.45-0.01-0.91-0.01-1.38
				c-0.08-15.36-0.15-29.89-0.21-42.66l0.23,0.23c-16.47-0.05-30.35-0.09-40.14-0.12c-4.89-0.03-8.75-0.05-11.42-0.06
				c-1.31-0.01-2.33-0.02-3.04-0.03c-0.33-0.01-0.59-0.01-0.79-0.01C162.87,146.41,162.78,146.41,162.77,146.4z"/>
		</g>
	</g>
</g>
<g>
	<g>
		<path class="st0" d="M165.7,156.62c0.05-1.36,0-7.22,0-7.22c15.63-0.05,33.14,0.06,48.77,0.01c0.44,7.73,0.53,18.18,0.97,25.91"/>
	</g>
	<g>
		<g>
			<path class="st2" d="M215.44,175.32c-0.01,0-0.04-0.17-0.07-0.49c-0.03-0.36-0.07-0.83-0.11-1.42c-0.09-1.24-0.18-3.06-0.28-5.35
				c-0.21-4.58-0.34-11.06-0.75-18.65l0.24,0.23c-4.63,0-9.71,0.01-15.03,0.01c-14.01,0-26.38-0.05-33.74-0.12l0.15-0.15
				c-0.03,2.24-0.05,4.04-0.07,5.33c-0.02,0.58-0.03,1.05-0.04,1.41c-0.01,0.32-0.03,0.49-0.04,0.49c-0.01,0-0.03-0.17-0.04-0.49
				c-0.01-0.36-0.02-0.83-0.04-1.41c-0.02-1.29-0.04-3.08-0.07-5.32l0-0.15l0.15,0c7.36-0.07,19.73-0.11,33.74-0.1
				c5.32,0.01,10.4,0.02,15.03,0.02l0.23,0l0.01,0.23c0.38,7.6,0.43,14.08,0.56,18.66c0.06,2.25,0.11,4.05,0.14,5.35
				c0.01,0.59,0.03,1.06,0.03,1.42C215.45,175.16,215.45,175.32,215.44,175.32z"/>
		</g>
	</g>
</g>
<g>
	<g>
		<polygon class="st3" points="154.23,156.8 165.76,190.44 218.69,190.44 210.78,156.62 		"/>
	</g>
	<g>
		<g>
			<path class="st4" d="M154.23,156.8c-0.01,0,0.08-0.01,0.25-0.01c0.2,0,0.45-0.01,0.78-0.01c0.72-0.01,1.75-0.02,3.07-0.04
				c2.73-0.02,6.67-0.06,11.63-0.1c10.04-0.06,24.2-0.15,40.81-0.26l0.19,0l0.04,0.19c2.34,9.99,4.91,20.96,7.61,32.45
				c0.11,0.46,0.22,0.92,0.32,1.37l0.07,0.32l-0.33,0c-19.98-0.02-38.35-0.04-52.92-0.05l-0.15,0l-0.05-0.14
				c-3.48-10.3-6.33-18.74-8.32-24.63c-0.97-2.9-1.73-5.17-2.26-6.74c-0.25-0.75-0.44-1.33-0.58-1.75
				C154.28,156.99,154.23,156.8,154.23,156.8s0.09,0.22,0.23,0.62c0.15,0.42,0.36,1.02,0.63,1.78c0.55,1.58,1.35,3.85,2.37,6.76
				c2.03,5.84,4.94,14.2,8.5,24.41l-0.2-0.14c14.57-0.01,32.95-0.03,52.92-0.05l-0.25,0.32c-0.1-0.45-0.21-0.91-0.32-1.37
				c-2.68-11.49-5.24-22.46-7.57-32.46l0.24,0.19c-16.53,0-30.63,0-40.62,0c-4.99-0.01-8.96-0.02-11.7-0.03
				c-1.35-0.01-2.4-0.01-3.13-0.02c-0.34,0-0.61-0.01-0.81-0.01C154.33,156.81,154.23,156.8,154.23,156.8z"/>
		</g>
	</g>
</g>
<g class="st6">
	<g>
		<path d="M218.62,191.14c-0.34-0.31-0.87-0.22-1.32-0.1c-20.68,5.43-40.51,14.06-58.57,25.51l-7.43,8.59
			c0.94,1.48,2.95,1.74,4.7,1.85c8.31,0.54,16.62,1.08,24.94,1.63c5.8,0.38,11.6,0.76,17.41,0.74c3.45-0.01,7.22-0.29,9.73-2.65
			c1.48-1.39,2.3-3.31,3.05-5.2c3.69-9.36,6.29-19.15,7.72-29.1C218.92,191.96,218.95,191.44,218.62,191.14z"/>
	</g>
</g>
<g>
	<g>
		<polygon class="st1" points="165.76,193.1 150.97,225.09 206.51,226.2 218.69,190.44 		"/>
	</g>
	<g>
		<g>
			<path class="st4" d="M165.76,193.1c0-0.01,0.08-0.02,0.24-0.03c0.18-0.01,0.42-0.03,0.73-0.05c0.67-0.04,1.63-0.1,2.86-0.18
				c2.54-0.14,6.21-0.35,10.84-0.61c9.36-0.5,22.6-1.2,38.24-2.03l0.35-0.02l-0.11,0.33c-3.67,10.81-7.8,22.96-12.16,35.77
				l-0.06,0.18l-0.19,0l-0.01,0c-21.02-0.44-40.37-0.85-55.53-1.17l-0.32-0.01l0.13-0.29c4.56-9.76,8.29-17.76,10.9-23.33
				c1.29-2.74,2.31-4.89,3.01-6.38c0.34-0.71,0.6-1.26,0.79-1.65C165.66,193.27,165.76,193.1,165.76,193.1s-0.08,0.21-0.25,0.6
				c-0.18,0.4-0.43,0.97-0.76,1.7c-0.68,1.5-1.67,3.67-2.92,6.45c-2.55,5.57-6.21,13.57-10.68,23.33l-0.18-0.29
				c15.15,0.29,34.51,0.66,55.53,1.06l0.01,0l-0.25,0.18c4.37-12.8,8.51-24.95,12.2-35.75l0.24,0.31
				c-15.61,0.74-28.81,1.37-38.14,1.81c-4.65,0.21-8.33,0.37-10.88,0.48c-1.25,0.05-2.22,0.09-2.9,0.11
				c-0.32,0.01-0.56,0.02-0.75,0.02C165.86,193.1,165.77,193.1,165.76,193.1z"/>
		</g>
	</g>
</g>
<g>
	<g>
		<polygon class="st7" points="165.52,190.44 149.47,208.11 204.64,208.53 218.44,190.44 		"/>
	</g>
	<g>
		<g>
			<path class="st4" d="M165.52,190.44c0-0.01,0.08-0.01,0.25-0.02c0.19,0,0.44-0.01,0.75-0.02c0.69-0.01,1.66-0.02,2.91-0.04
				c2.58-0.02,6.29-0.04,10.95-0.07c9.41-0.02,22.65-0.06,38.07-0.1l0.5,0l-0.3,0.4c-4.28,5.62-8.95,11.74-13.79,18.1l-0.08,0.1
				l-0.13,0c-0.53,0-1.11-0.01-1.68-0.01c-20.79-0.19-39.66-0.35-53.49-0.48l-0.42,0l0.28-0.31c4.98-5.43,9.02-9.83,11.83-12.89
				c1.38-1.49,2.47-2.66,3.22-3.47c0.36-0.38,0.64-0.67,0.84-0.89C165.42,190.53,165.52,190.43,165.52,190.44
				c0,0.01-0.09,0.12-0.27,0.34c-0.2,0.23-0.47,0.54-0.82,0.94c-0.74,0.83-1.8,2.03-3.16,3.56c-2.77,3.08-6.75,7.51-11.66,12.97
				l-0.14-0.31c13.83,0.09,32.7,0.2,53.49,0.33c0.58,0,1.15,0.01,1.68,0.01l-0.21,0.1c4.85-6.35,9.52-12.46,13.81-18.08l0.2,0.4
				c-15.38-0.04-28.59-0.08-37.98-0.1c-4.67-0.03-8.4-0.05-10.98-0.07c-1.26-0.02-2.24-0.03-2.94-0.04
				c-0.32-0.01-0.57-0.01-0.76-0.02C165.61,190.45,165.52,190.44,165.52,190.44z"/>
		</g>
	</g>
</g>
<g>
	<g>
		<polyline class="st1" points="163.78,175.04 159.04,160.27 208.22,160.27 215.11,187.27 		"/>
	</g>
	<g>
		<g>
			<path class="st4" d="M215.11,187.27c-0.01,0-0.07-0.17-0.17-0.5c-0.1-0.37-0.24-0.86-0.41-1.47c-0.36-1.33-0.86-3.2-1.48-5.54
				c-1.25-4.8-3-11.53-5.06-19.44l0.23,0.18c-5.63,0.01-11.86,0.01-18.41,0.02c-11.85-0.03-22.66-0.05-30.77-0.07l0.18-0.25
				c1.42,4.53,2.57,8.22,3.38,10.82c0.38,1.25,0.68,2.24,0.89,2.96c0.09,0.31,0.16,0.57,0.22,0.77c0.05,0.18,0.07,0.27,0.06,0.27
				c-0.01,0-0.05-0.08-0.11-0.25c-0.07-0.2-0.16-0.45-0.27-0.76c-0.24-0.71-0.57-1.69-0.99-2.93c-0.85-2.59-2.06-6.26-3.55-10.77
				l-0.08-0.25l0.27,0c8.11-0.02,18.92-0.04,30.77-0.07c6.55,0.01,12.78,0.01,18.41,0.02l0.19,0l0.04,0.18
				c1.98,7.93,3.67,14.67,4.88,19.48c0.57,2.35,1.03,4.23,1.35,5.57c0.14,0.62,0.25,1.11,0.34,1.48
				C215.09,187.09,215.12,187.27,215.11,187.27z"/>
		</g>
	</g>
</g>
<g>
	<path class="st3" d="M192.97,172.27c-0.77-0.63-1.56-1.27-2.51-1.55c-1.85-0.56-3.83,0.36-5.31,1.59c-1.48,1.24-2.67,2.8-4.25,3.92
		l17.25,0.28C196.42,175.1,194.69,173.68,192.97,172.27z"/>
</g>
<g>
	<path class="st3" d="M202,167.1c-0.62-0.93-2.68-2.08-4.02-1.22l0,0c-0.86,0.32-1.58,1.1-1.71,2.02c-0.21,1.5,1,2.99,2.48,3.3
		c1.09,0.23,2.31-0.13,3.03-0.99C202.5,169.35,202.63,168.02,202,167.1z"/>
</g>
<g>
	<g>
		<polygon class="st7" points="165.52,190.44 148.97,175.04 203.13,175.48 218.69,190.44 		"/>
	</g>
	<g>
		<g>
			<path class="st4" d="M165.52,190.44c0-0.01,0.09-0.01,0.27-0.02c0.2,0,0.45-0.01,0.77-0.02c0.7-0.01,1.69-0.02,2.96-0.04
				c2.6-0.02,6.35-0.04,11.05-0.07c9.45-0.02,22.72-0.06,38.12-0.1l-0.17,0.43c-4.85-4.66-10.11-9.71-15.56-14.95l0.18,0.07
				c-0.32,0-0.66-0.01-1-0.01c-20.72-0.2-39.49-0.38-53.16-0.51l0.13-0.32c5.06,4.76,9.17,8.62,12.03,11.32
				c1.4,1.33,2.5,2.38,3.27,3.11c0.36,0.35,0.64,0.62,0.85,0.82C165.43,190.33,165.52,190.43,165.52,190.44
				c0,0.01-0.11-0.08-0.3-0.25c-0.21-0.19-0.5-0.45-0.87-0.77c-0.78-0.71-1.89-1.72-3.32-3.02c-2.9-2.67-7.06-6.5-12.19-11.23
				l-0.35-0.32l0.48,0c13.67,0.09,32.44,0.22,53.16,0.36c0.34,0,0.69,0.01,1,0.01l0.1,0l0.07,0.07c5.45,5.25,10.7,10.31,15.55,14.97
				l0.45,0.43l-0.62,0c-15.44-0.04-28.74-0.07-38.21-0.1c-4.69-0.03-8.43-0.05-11.03-0.07c-1.26-0.02-2.24-0.03-2.93-0.04
				c-0.31-0.01-0.56-0.01-0.75-0.02C165.6,190.45,165.52,190.45,165.52,190.44z"/>
		</g>
	</g>
</g>
<g>
	<g>
		<path class="st7" d="M163.15,180.96c11.83,0,23.67,0,35.5,0"/>
	</g>
	<g>
		<g>
			<path class="st4" d="M198.65,180.96c0,0.14-7.95,0.26-17.75,0.26c-9.81,0-17.75-0.12-17.75-0.26s7.95-0.26,17.75-0.26
				C190.71,180.7,198.65,180.81,198.65,180.96z"/>
		</g>
	</g>
</g>
<g>
	<g>
		<path class="st7" d="M167.08,184.62c11.83,0,23.67,0,35.5,0"/>
	</g>
	<g>
		<g>
			<path class="st4" d="M202.58,184.62c0,0.14-7.95,0.26-17.75,0.26c-9.81,0-17.75-0.12-17.75-0.26c0-0.14,7.95-0.26,17.75-0.26
				C194.63,184.36,202.58,184.48,202.58,184.62z"/>
		</g>
	</g>
</g>
<g>
	<g>
		<path class="st7" d="M170.61,188.15c11.83,0,23.67,0,35.5,0"/>
	</g>
	<g>
		<g>
			<path class="st4" d="M206.11,188.15c0,0.14-7.95,0.26-17.75,0.26c-9.81,0-17.75-0.12-17.75-0.26c0-0.14,7.95-0.26,17.75-0.26
				C198.16,187.89,206.11,188,206.11,188.15z"/>
		</g>
	</g>
</g>
<g>
	<g>
		<path class="st7" d="M165.04,202.3c12.21,0,24.43,0,36.64,0"/>
	</g>
	<g>
		<g>
			<path class="st4" d="M201.68,202.3c0,0.14-8.2,0.26-18.32,0.26c-10.12,0-18.32-0.12-18.32-0.26s8.2-0.26,18.32-0.26
				C193.48,202.03,201.68,202.15,201.68,202.3z"/>
		</g>
	</g>
</g>
<g>
	<g>
		<path class="st7" d="M169.21,198.12c12.21,0,24.43,0,36.64,0"/>
	</g>
	<g>
		<g>
			<path class="st4" d="M205.85,198.12c0,0.14-8.2,0.26-18.32,0.26c-10.12,0-18.32-0.12-18.32-0.26c0-0.14,8.2-0.26,18.32-0.26
				C197.65,197.86,205.85,197.98,205.85,198.12z"/>
		</g>
	</g>
</g>
<g>
	<g>
		<path class="st4" d="M420.87,97c0,0.14-73.68,0.26-164.54,0.26c-90.89,0-164.55-0.12-164.55-0.26c0-0.14,73.66-0.26,164.55-0.26
			C347.19,96.74,420.87,96.86,420.87,97z"/>
	</g>
</g>
<g>
	<g>
		<path class="st8" d="M110.66,83.34c0,1.88-1.52,3.41-3.41,3.41c-1.88,0-3.41-1.52-3.41-3.41s1.52-3.41,3.41-3.41
			C109.13,79.93,110.66,81.46,110.66,83.34z"/>
	</g>
	<g>
		<path class="st8" d="M121.84,83.34c0,1.88-1.52,3.41-3.41,3.41c-1.88,0-3.41-1.52-3.41-3.41s1.52-3.41,3.41-3.41
			C120.31,79.93,121.84,81.46,121.84,83.34z"/>
	</g>
	<g>
		<path class="st8" d="M133.02,83.34c0,1.88-1.52,3.41-3.41,3.41c-1.88,0-3.41-1.52-3.41-3.41s1.52-3.41,3.41-3.41
			C131.49,79.93,133.02,81.46,133.02,83.34z"/>
	</g>
</g>
<g>
	<path class="st4" d="M237.35,89.34l-0.01-5.18l-2.54,4.27h-0.9l-2.53-4.16v5.07h-1.88v-8.64h1.65l3.23,5.37l3.18-5.37h1.64
		l0.03,8.64H237.35z"/>
	<path class="st4" d="M247.74,82.69l-3,7.05c-0.64,1.6-1.56,2.09-2.75,2.09c-0.68,0-1.42-0.22-1.85-0.6l0.7-1.37
		c0.3,0.26,0.7,0.42,1.09,0.42c0.53,0,0.83-0.23,1.09-0.83l0.02-0.06l-2.88-6.69h1.99l1.86,4.51l1.88-4.51H247.74z"/>
	<path class="st4" d="M257.65,82.3v2.28h4v1.6h-4v3.15h-2v-8.64h6.53v1.61H257.65z"/>
	<path class="st4" d="M263.05,80.69c0-0.61,0.48-1.07,1.2-1.07c0.72,0,1.2,0.44,1.2,1.04c0,0.64-0.48,1.11-1.2,1.11
		C263.53,81.77,263.05,81.3,263.05,80.69z M263.28,82.69h1.93v6.64h-1.93V82.69z"/>
	<path class="st4" d="M267,80.18h1.93v9.16H267V80.18z"/>
	<path class="st4" d="M277.18,86.56h-5.02c0.19,0.83,0.89,1.33,1.9,1.33c0.7,0,1.21-0.21,1.67-0.64l1.02,1.11
		c-0.62,0.7-1.54,1.07-2.74,1.07c-2.3,0-3.79-1.44-3.79-3.42c0-1.99,1.52-3.42,3.54-3.42c1.95,0,3.46,1.31,3.46,3.44
		C277.22,86.19,277.19,86.4,277.18,86.56z M272.13,85.43h3.27c-0.14-0.84-0.77-1.38-1.63-1.38
		C272.9,84.05,272.27,84.58,272.13,85.43z"/>
	<path class="st4" d="M277.86,88.72l0.64-1.38c0.59,0.38,1.49,0.64,2.31,0.64c0.89,0,1.22-0.23,1.22-0.61
		c0-1.09-4.01,0.02-4.01-2.63c0-1.26,1.14-2.15,3.07-2.15c0.91,0,1.93,0.21,2.55,0.58l-0.64,1.37c-0.65-0.37-1.31-0.49-1.91-0.49
		c-0.86,0-1.23,0.27-1.23,0.62c0,1.14,4.01,0.04,4.01,2.65c0,1.23-1.15,2.11-3.14,2.11C279.61,89.43,278.48,89.13,277.86,88.72z"/>
</g>
<g>
	<g>
		<g>
			<path class="st2" d="M404.47,122.76c0-0.02,0.2,0,0.56-0.11c0.34-0.12,0.88-0.41,1.16-1.09c0.15-0.34,0.14-0.74,0.13-1.2
				c0-0.46-0.01-0.96-0.01-1.5c-0.01-1.08-0.01-2.33-0.02-3.73c-0.01-1.41-0.01-2.97-0.02-4.67c-0.01-0.42,0-0.88-0.01-1.3
				c-0.04-0.41-0.23-0.82-0.54-1.12c-0.31-0.3-0.74-0.49-1.19-0.49c-0.48,0-0.97,0-1.47,0c-3.99,0.01-8.53,0.02-13.55,0.04
				c-20.1,0.02-47.83,0.05-78.47,0.08c-0.84-0.02-1.61,0.69-1.65,1.53c0,0.95,0,1.89-0.01,2.83c0,1.89,0,3.77,0,5.64
				c0,0.93,0,1.86,0,2.79c-0.01,0.49,0.01,0.85,0.21,1.22c0.19,0.35,0.52,0.62,0.9,0.75c0.19,0.07,0.38,0.09,0.59,0.09l0.69,0
				l1.37,0c0.91,0,1.82,0,2.72,0c7.22,0.01,14.19,0.01,20.83,0.02c13.27,0.02,25.23,0.04,35.28,0.06
				c10.03,0.03,18.15,0.06,23.78,0.08c2.79,0.02,4.97,0.04,6.47,0.05c0.72,0.01,1.28,0.02,1.68,0.03
				C404.27,122.74,404.47,122.76,404.47,122.76s-0.19,0.02-0.57,0.03c-0.4,0.01-0.96,0.01-1.68,0.03c-1.5,0.01-3.67,0.03-6.47,0.05
				c-5.64,0.02-13.76,0.05-23.78,0.08c-10.05,0.02-22,0.03-35.28,0.06c-6.64,0-13.61,0.01-20.83,0.02c-0.9,0-1.81,0-2.72,0l-1.37,0
				l-0.69,0c-0.25,0-0.52-0.04-0.76-0.12c-0.49-0.17-0.92-0.52-1.18-0.98c-0.28-0.44-0.3-1.04-0.28-1.47c0-0.93,0-1.86,0-2.79
				c0-1.87,0-3.75,0-5.64c0-0.95,0.01-1.91,0.01-2.87c0.06-1.1,1.07-2.03,2.17-2.01c30.63,0.03,58.37,0.06,78.47,0.08
				c5.02,0.01,9.56,0.03,13.55,0.04c0.5,0,0.99,0.01,1.47,0.01c0.52,0.01,1.01,0.23,1.37,0.58c0.36,0.35,0.57,0.82,0.61,1.29
				c0.02,0.47,0,0.89,0,1.32c-0.01,1.71-0.02,3.27-0.02,4.67c-0.01,1.4-0.02,2.65-0.02,3.73c0,0.54-0.01,1.04-0.01,1.5
				c0,0.45,0,0.89-0.16,1.24c-0.31,0.71-0.89,1-1.24,1.1C404.67,122.8,404.47,122.76,404.47,122.76z"/>
		</g>
	</g>
	<g>
		<path class="st2" d="M315.17,117.05l0.26-0.55c0.36,0.33,0.99,0.57,1.61,0.57c0.85,0,1.21-0.33,1.21-0.75
			c0-1.19-2.96-0.44-2.96-2.26c0-0.75,0.59-1.4,1.87-1.4c0.57,0,1.17,0.15,1.57,0.43l-0.23,0.56c-0.43-0.27-0.91-0.4-1.34-0.4
			c-0.83,0-1.19,0.35-1.19,0.78c0,1.19,2.96,0.45,2.96,2.24c0,0.75-0.6,1.39-1.89,1.39C316.29,117.66,315.56,117.41,315.17,117.05z"
			/>
		<path class="st2" d="M323.19,115.98h-3c0.08,0.65,0.61,1.08,1.34,1.08c0.43,0,0.8-0.15,1.07-0.45l0.37,0.43
			c-0.33,0.39-0.85,0.6-1.46,0.6c-1.19,0-1.99-0.79-1.99-1.89c0-1.1,0.79-1.89,1.86-1.89s1.83,0.77,1.83,1.91
			C323.21,115.83,323.2,115.92,323.19,115.98z M320.19,115.5h2.38c-0.07-0.62-0.54-1.06-1.19-1.06
			C320.73,114.44,320.26,114.87,320.19,115.5z"/>
		<path class="st2" d="M326.97,115.37v2.24h-0.64v-0.49c-0.22,0.34-0.64,0.53-1.22,0.53c-0.84,0-1.37-0.45-1.37-1.09
			c0-0.59,0.38-1.08,1.49-1.08h1.06v-0.13c0-0.57-0.33-0.89-0.99-0.89c-0.44,0-0.89,0.15-1.17,0.4l-0.28-0.5
			c0.38-0.31,0.94-0.48,1.53-0.48C326.39,113.87,326.97,114.36,326.97,115.37z M326.29,116.48v-0.52h-1.04
			c-0.66,0-0.85,0.26-0.85,0.57c0,0.37,0.31,0.6,0.82,0.6C325.73,117.13,326.13,116.9,326.29,116.48z"/>
		<path class="st2" d="M330.2,113.87v0.65c-0.06-0.01-0.11-0.01-0.15-0.01c-0.72,0-1.17,0.44-1.17,1.25v1.84h-0.67v-3.7h0.64v0.62
			C329.09,114.09,329.55,113.87,330.2,113.87z"/>
		<path class="st2" d="M330.65,115.76c0-1.1,0.82-1.89,1.96-1.89c0.66,0,1.22,0.27,1.51,0.79l-0.51,0.33
			c-0.24-0.36-0.6-0.53-1.01-0.53c-0.73,0-1.27,0.51-1.27,1.3c0,0.8,0.55,1.31,1.27,1.31c0.41,0,0.77-0.17,1.01-0.53l0.51,0.32
			c-0.29,0.52-0.85,0.8-1.51,0.8C331.47,117.65,330.65,116.86,330.65,115.76z"/>
		<path class="st2" d="M338.45,115.48v2.13h-0.67v-2.05c0-0.73-0.36-1.08-1-1.08c-0.71,0-1.17,0.43-1.17,1.23v1.91h-0.67v-5.19h0.67
			v2.01c0.28-0.36,0.74-0.56,1.31-0.56C337.81,113.87,338.45,114.39,338.45,115.48z"/>
		<path class="st2" d="M339.38,117.17c0-0.28,0.22-0.48,0.48-0.48c0.25,0,0.46,0.2,0.46,0.48c0,0.28-0.21,0.48-0.46,0.48
			C339.6,117.65,339.38,117.45,339.38,117.17z"/>
		<path class="st2" d="M340.96,117.17c0-0.28,0.22-0.48,0.48-0.48c0.25,0,0.46,0.2,0.46,0.48c0,0.28-0.21,0.48-0.46,0.48
			C341.18,117.65,340.96,117.45,340.96,117.17z"/>
		<path class="st2" d="M342.55,117.17c0-0.28,0.22-0.48,0.48-0.48c0.25,0,0.46,0.2,0.46,0.48c0,0.28-0.21,0.48-0.46,0.48
			C342.77,117.65,342.55,117.45,342.55,117.17z"/>
	</g>
</g>
<g>
	<g>
		<path class="st4" d="M139.59,215.64c-0.02,0.01-0.11-0.21-0.29-0.63c-0.17-0.42-0.42-1.05-0.71-1.86c-0.6-1.62-1.4-4-2.24-6.98
			c-1.65-5.94-3.39-14.48-2.69-23.96c0.37-4.73,1.35-9.17,2.72-13.04c1.37-3.87,3.09-7.18,4.83-9.75c1.73-2.58,3.39-4.48,4.64-5.69
			c0.6-0.63,1.13-1.05,1.46-1.36c0.34-0.3,0.53-0.45,0.54-0.44c0.01,0.01-0.15,0.19-0.47,0.52c-0.31,0.33-0.82,0.77-1.39,1.42
			c-1.19,1.25-2.8,3.17-4.47,5.75c-1.68,2.57-3.35,5.86-4.69,9.71c-1.33,3.84-2.29,8.24-2.66,12.93c-0.69,9.4,0.97,17.89,2.53,23.83
			c0.79,2.98,1.54,5.37,2.07,7.01c0.26,0.78,0.46,1.41,0.62,1.89C139.55,215.41,139.61,215.64,139.59,215.64z"/>
	</g>
</g>
<g>
	<path class="st9" d="M293.65,147.66v52.34h63.62v-52.34c0-2.49-2.02-4.51-4.51-4.51h-54.59
		C295.67,143.14,293.65,145.16,293.65,147.66z"/>
</g>
<g>
	<path class="st10" d="M293.65,147.66v52.34h63.62v-52.34c0-2.49-2.02-4.51-4.51-4.51h-54.59
		C295.67,143.14,293.65,145.16,293.65,147.66z"/>
</g>
<g>
	<g>
		<polyline class="st1" points="296.63,171.57 297.05,152.35 352.72,152.35 352.72,163.32 		"/>
	</g>
	<g>
		<g>
			<path class="st4" d="M352.72,163.32c-0.02,0-0.03-0.26-0.05-0.75c-0.01-0.54-0.03-1.25-0.05-2.16c-0.02-1.93-0.05-4.66-0.08-8.06
				l0.17,0.17c-7.79,0.02-19.23,0.05-31.96,0.09c-8.76-0.02-16.91-0.03-23.71-0.04l0.22-0.21c-0.16,5.76-0.3,10.55-0.4,13.95
				c-0.06,1.64-0.11,2.94-0.14,3.89c-0.02,0.42-0.04,0.75-0.05,1.02c-0.02,0.23-0.03,0.35-0.04,0.35c-0.01,0-0.02-0.12-0.03-0.35
				c0-0.27-0.01-0.61-0.01-1.02c0.01-0.94,0.02-2.25,0.03-3.89c0.05-3.4,0.13-8.19,0.21-13.95l0-0.21l0.21,0
				c6.8-0.01,14.94-0.03,23.71-0.04c12.73,0.03,24.17,0.07,31.96,0.09l0.17,0l0,0.17c-0.03,3.4-0.06,6.12-0.08,8.06
				c-0.02,0.91-0.03,1.62-0.05,2.16C352.76,163.06,352.74,163.32,352.72,163.32z"/>
		</g>
	</g>
</g>
<g>
	<g>
		<rect x="300.68" y="147.16" class="st1" width="48.64" height="5.19"/>
	</g>
	<g>
		<g>
			<path class="st4" d="M300.68,147.16c-0.01-0.01,0.07-0.01,0.23-0.02c0.19,0,0.42-0.01,0.71-0.02c0.67-0.01,1.59-0.02,2.76-0.04
				c2.46-0.02,5.95-0.04,10.28-0.08c8.8-0.03,20.98-0.07,34.66-0.11l0.26,0v0.26c0,1.65,0,3.41,0,5.19
				c-0.52,0.53-0.15,0.15-0.27,0.26h-0.02h-0.03h-0.06l-0.13,0h-0.25h-0.5l-1,0c-0.67,0-1.33,0-2,0c-1.32,0-2.63,0-3.93,0
				c-2.59,0-5.12-0.01-7.58-0.01c-4.91-0.01-9.52-0.02-13.73-0.03c-8.36-0.05-15.11-0.08-19.4-0.11l-0.11,0l0-0.11
				c0.03-1.67,0.05-2.97,0.06-3.9c0.01-0.41,0.02-0.73,0.03-0.98C300.66,147.26,300.67,147.15,300.68,147.16
				c0.01,0.01,0.01,0.13,0.02,0.36c0.01,0.26,0.02,0.59,0.03,1.01c0.01,0.91,0.04,2.19,0.06,3.83l-0.11-0.11
				c4.29-0.02,11.03-0.06,19.4-0.11c4.21-0.01,8.82-0.02,13.73-0.03c2.46,0,4.99-0.01,7.58-0.01c1.3,0,2.61,0,3.93,0
				c0.66,0,1.33,0,2,0l1,0h0.5h0.25h0.13h0.06h0.03h0.02c-0.11,0.11,0.27-0.26-0.25,0.26c0-1.78,0-3.54,0-5.19l0.26,0.26
				c-13.61-0.04-25.72-0.08-34.47-0.11c-4.35-0.03-7.87-0.06-10.34-0.08c-1.19-0.02-2.14-0.03-2.82-0.04
				c-0.3-0.01-0.54-0.01-0.74-0.02C300.77,147.17,300.68,147.17,300.68,147.16z"/>
		</g>
	</g>
</g>
<g>
	<g>
		<path class="st4" d="M354.97,213.09c0,0.14-12.16,0.26-27.15,0.26c-15,0-27.15-0.12-27.15-0.26c0-0.14,12.15-0.26,27.15-0.26
			C342.82,212.83,354.97,212.95,354.97,213.09z"/>
	</g>
</g>
<g>
	<path class="st5" d="M288.75,162.12l4.89,37.87h63.62v-36.68h-28.89l-5.6-4.93h-30.73C290.04,158.39,288.5,160.14,288.75,162.12z"
		/>
</g>
<g>
	<g>
		<path class="st4" d="M339.75,178.15c0,0.14-6.97,0.26-15.56,0.26c-8.59,0-15.56-0.12-15.56-0.26s6.97-0.26,15.56-0.26
			C332.79,177.89,339.75,178.01,339.75,178.15z"/>
	</g>
</g>
<g>
	<g>
		<path class="st4" d="M339.75,181.88c0,0.14-6.97,0.26-15.56,0.26c-8.59,0-15.56-0.12-15.56-0.26c0-0.14,6.97-0.26,15.56-0.26
			C332.79,181.62,339.75,181.73,339.75,181.88z"/>
	</g>
</g>
<g>
	<path class="st9" d="M149.47,261.33v52.34h63.62v-52.34c0-2.49-2.02-4.51-4.51-4.51h-54.59
		C151.49,256.82,149.47,258.84,149.47,261.33z"/>
</g>
<g>
	<path class="st10" d="M149.47,261.33v52.34h63.62v-52.34c0-2.49-2.02-4.51-4.51-4.51h-54.59
		C151.49,256.82,149.47,258.84,149.47,261.33z"/>
</g>
<g>
	<g>
		<polyline class="st1" points="152.46,285.25 152.88,266.03 208.55,266.03 208.55,277 		"/>
	</g>
	<g>
		<g>
			<path class="st4" d="M208.55,277c-0.02,0-0.03-0.26-0.05-0.75c-0.01-0.54-0.03-1.25-0.05-2.16c-0.02-1.93-0.05-4.66-0.08-8.06
				l0.17,0.17c-7.79,0.02-19.23,0.05-31.96,0.09c-8.76-0.02-16.91-0.03-23.71-0.04l0.22-0.21c-0.16,5.76-0.3,10.55-0.4,13.95
				c-0.06,1.64-0.11,2.94-0.14,3.89c-0.02,0.42-0.04,0.75-0.05,1.02c-0.02,0.23-0.03,0.35-0.04,0.35c-0.01,0-0.02-0.12-0.03-0.35
				c0-0.27-0.01-0.61-0.01-1.02c0.01-0.94,0.02-2.25,0.03-3.89c0.05-3.4,0.13-8.19,0.21-13.95l0-0.21l0.21,0
				c6.8-0.01,14.94-0.03,23.71-0.04c12.73,0.03,24.17,0.07,31.96,0.09l0.17,0l0,0.17c-0.03,3.4-0.06,6.12-0.08,8.06
				c-0.02,0.91-0.03,1.62-0.05,2.16C208.58,276.74,208.56,277,208.55,277z"/>
		</g>
	</g>
</g>
<g>
	<g>
		<rect x="156.5" y="260.84" class="st1" width="48.64" height="5.19"/>
	</g>
	<g>
		<g>
			<path class="st4" d="M156.5,260.84c-0.01-0.01,0.07-0.01,0.23-0.02c0.19,0,0.42-0.01,0.71-0.02c0.67-0.01,1.59-0.02,2.76-0.04
				c2.46-0.02,5.95-0.04,10.28-0.08c8.8-0.03,20.98-0.07,34.66-0.11l0.26,0l0,0.26c0,1.65,0,3.41,0,5.19
				c-0.52,0.53-0.15,0.15-0.27,0.26h-0.02h-0.03h-0.06h-0.13h-0.25l-0.5,0l-1,0c-0.67,0-1.33,0-2,0c-1.32,0-2.63,0-3.93,0
				c-2.59,0-5.12-0.01-7.58-0.01c-4.91-0.01-9.52-0.02-13.73-0.03c-8.36-0.05-15.11-0.08-19.4-0.11l-0.11,0l0-0.11
				c0.03-1.67,0.05-2.97,0.06-3.9c0.01-0.41,0.02-0.73,0.03-0.98C156.49,260.94,156.49,260.83,156.5,260.84
				c0.01,0.01,0.01,0.13,0.02,0.36c0.01,0.26,0.02,0.59,0.03,1.01c0.01,0.91,0.04,2.19,0.06,3.83l-0.11-0.11
				c4.29-0.02,11.03-0.06,19.4-0.11c4.21-0.01,8.82-0.02,13.73-0.03c2.46,0,4.99-0.01,7.58-0.01c1.3,0,2.61,0,3.93,0
				c0.66,0,1.33,0,2,0l1,0h0.5h0.25h0.13h0.06h0.03h0.02c-0.11,0.11,0.27-0.26-0.25,0.26c0-1.78,0-3.54,0-5.19l0.26,0.26
				c-13.61-0.04-25.72-0.08-34.47-0.11c-4.35-0.03-7.87-0.06-10.34-0.08c-1.19-0.02-2.14-0.03-2.82-0.04
				c-0.3-0.01-0.54-0.01-0.74-0.02C156.6,260.85,156.51,260.85,156.5,260.84z"/>
		</g>
	</g>
</g>
<g>
	<g>
		<path class="st4" d="M210.8,326.77c0,0.14-12.16,0.26-27.15,0.26c-15,0-27.15-0.12-27.15-0.26s12.15-0.26,27.15-0.26
			C198.64,326.51,210.8,326.63,210.8,326.77z"/>
	</g>
</g>
<g>
	<path class="st5" d="M144.58,275.8l4.89,37.87h63.62V277h-28.89l-5.6-4.93h-30.73C145.86,272.07,144.32,273.82,144.58,275.8z"/>
</g>
<g>
	<g>
		<path class="st4" d="M195.58,291.83c0,0.14-6.97,0.26-15.56,0.26c-8.59,0-15.56-0.12-15.56-0.26s6.97-0.26,15.56-0.26
			C188.61,291.57,195.58,291.68,195.58,291.83z"/>
	</g>
</g>
<g>
	<g>
		<path class="st4" d="M195.58,295.55c0,0.14-6.97,0.26-15.56,0.26c-8.59,0-15.56-0.12-15.56-0.26s6.97-0.26,15.56-0.26
			C188.61,295.29,195.58,295.41,195.58,295.55z"/>
	</g>
</g>
<g>
	<path class="st9" d="M301.55,261.37v52.34h63.62v-52.34c0-2.49-2.02-4.51-4.51-4.51h-54.59
		C303.57,256.86,301.55,258.88,301.55,261.37z"/>
</g>
<g>
	<path class="st10" d="M301.55,261.37v52.34h63.62v-52.34c0-2.49-2.02-4.51-4.51-4.51h-54.59
		C303.57,256.86,301.55,258.88,301.55,261.37z"/>
</g>
<g>
	<g>
		<polyline class="st1" points="304.54,285.28 304.96,266.07 360.63,266.07 360.63,277.03 		"/>
	</g>
	<g>
		<g>
			<path class="st4" d="M360.63,277.03c-0.02,0-0.03-0.26-0.05-0.75c-0.01-0.54-0.03-1.25-0.05-2.16c-0.02-1.93-0.05-4.66-0.08-8.06
				l0.17,0.17c-7.79,0.02-19.23,0.05-31.96,0.09c-8.76-0.02-16.91-0.03-23.71-0.04l0.22-0.21c-0.16,5.76-0.3,10.55-0.4,13.95
				c-0.06,1.64-0.11,2.94-0.14,3.89c-0.02,0.42-0.04,0.75-0.05,1.02c-0.02,0.23-0.03,0.35-0.04,0.35c-0.01,0-0.02-0.12-0.03-0.35
				c0-0.27-0.01-0.61-0.01-1.02c0.01-0.94,0.02-2.25,0.03-3.89c0.05-3.4,0.13-8.19,0.21-13.95l0-0.21l0.21,0
				c6.8-0.01,14.94-0.03,23.71-0.04c12.73,0.03,24.17,0.07,31.96,0.09l0.17,0l0,0.17c-0.03,3.4-0.06,6.12-0.08,8.06
				c-0.02,0.91-0.03,1.62-0.05,2.16C360.66,276.77,360.65,277.03,360.63,277.03z"/>
		</g>
	</g>
</g>
<g>
	<g>
		<rect x="308.59" y="260.87" class="st1" width="48.64" height="5.19"/>
	</g>
	<g>
		<g>
			<path class="st4" d="M308.59,260.87c-0.01-0.01,0.07-0.01,0.23-0.02c0.19,0,0.42-0.01,0.71-0.02c0.67-0.01,1.59-0.02,2.76-0.04
				c2.46-0.02,5.95-0.04,10.28-0.08c8.8-0.03,20.98-0.07,34.66-0.11l0.26,0v0.26c0,1.65,0,3.41,0,5.19
				c-0.52,0.53-0.15,0.15-0.27,0.26h-0.02h-0.03h-0.06h-0.13l-0.25,0h-0.5l-1,0c-0.67,0-1.33,0-2,0c-1.32,0-2.63,0-3.93,0
				c-2.59,0-5.12-0.01-7.58-0.01c-4.91-0.01-9.52-0.02-13.73-0.03c-8.36-0.05-15.11-0.08-19.4-0.11l-0.11,0l0-0.11
				c0.03-1.67,0.05-2.97,0.06-3.9c0.01-0.41,0.02-0.73,0.03-0.98C308.57,260.97,308.58,260.86,308.59,260.87
				c0.01,0.01,0.01,0.13,0.02,0.36c0.01,0.26,0.02,0.59,0.03,1.01c0.01,0.91,0.04,2.19,0.06,3.83l-0.11-0.11
				c4.29-0.02,11.03-0.06,19.4-0.11c4.21-0.01,8.82-0.02,13.73-0.03c2.46,0,4.99-0.01,7.58-0.01c1.3,0,2.61,0,3.93,0
				c0.66,0,1.33,0,2,0l1,0h0.5h0.25h0.13h0.06h0.03h0.02c-0.11,0.11,0.27-0.26-0.25,0.26c0-1.78,0-3.54,0-5.19l0.26,0.26
				c-13.61-0.04-25.72-0.08-34.47-0.11c-4.35-0.03-7.87-0.06-10.34-0.08c-1.19-0.02-2.14-0.03-2.82-0.04
				c-0.3-0.01-0.54-0.01-0.74-0.02C308.68,260.88,308.59,260.88,308.59,260.87z"/>
		</g>
	</g>
</g>
<g>
	<g>
		<path class="st4" d="M362.88,326.8c0,0.14-12.16,0.26-27.15,0.26c-15,0-27.15-0.12-27.15-0.26c0-0.14,12.15-0.26,27.15-0.26
			C350.73,326.54,362.88,326.66,362.88,326.8z"/>
	</g>
</g>
<g>
	<path class="st5" d="M296.66,275.83l4.89,37.87h63.62v-36.68h-28.89l-5.6-4.93h-30.73C297.95,272.1,296.4,273.85,296.66,275.83z"/>
</g>
<g>
	<g>
		<path class="st4" d="M347.66,291.86c0,0.14-6.97,0.26-15.56,0.26c-8.59,0-15.56-0.12-15.56-0.26s6.97-0.26,15.56-0.26
			C340.7,291.6,347.66,291.72,347.66,291.86z"/>
	</g>
</g>
<g>
	<g>
		<path class="st4" d="M347.66,295.59c0,0.14-6.97,0.26-15.56,0.26c-8.59,0-15.56-0.12-15.56-0.26c0-0.14,6.97-0.26,15.56-0.26
			C340.7,295.33,347.66,295.44,347.66,295.59z"/>
	</g>
</g>
<g>
	<g>
		<path class="st4" d="M129.68,177.38c-0.04,0-0.05-0.38-0.05-1.08c0-0.69,0.06-1.69,0.2-2.92c0.27-2.46,0.97-5.84,2.36-9.37
			c1.4-3.53,3.2-6.48,4.68-8.46c0.74-0.99,1.38-1.77,1.85-2.27c0.47-0.51,0.74-0.78,0.77-0.75c0.07,0.06-0.93,1.21-2.32,3.24
			c-1.39,2.02-3.12,4.96-4.5,8.44c-1.37,3.48-2.12,6.8-2.48,9.23C129.83,175.86,129.77,177.39,129.68,177.38z"/>
	</g>
</g>
<g>
	<g>
		<path class="st4" d="M132.87,173.48c0.06,0.04-0.24,0.52-0.77,1.25l-0.94,1.27c-0.19,0.24-0.38,0.49-0.57,0.74l-0.31,0.39
			l-0.16,0.2l-0.08,0.1l-0.04,0.05l-0.02,0.03l-0.01,0.01l-0.01,0.01l0,0c0.09,0-0.75,0.02-0.4,0.01l0,0
			c-0.96-1.05-1.54-2.21-1.82-3.09c-0.29-0.88-0.31-1.45-0.25-1.46c0.15-0.05,0.62,2.2,2.45,4.19l0,0c0.35-0.01-0.48,0.02-0.39,0.01
			l0,0l0.01-0.01l0.01-0.01l0.02-0.03l0.04-0.05l0.08-0.1l0.16-0.2l0.31-0.38c0.2-0.24,0.4-0.48,0.6-0.72l1.03-1.2
			C132.41,173.83,132.81,173.44,132.87,173.48z"/>
	</g>
</g>
<g>
	<g>
		<path class="st2" d="M341.64,220.17c0,0.14-7.62,0.26-17.02,0.26c-9.4,0-17.02-0.12-17.02-0.26c0-0.14,7.62-0.26,17.02-0.26
			C334.02,219.91,341.64,220.03,341.64,220.17z"/>
	</g>
</g>
<g>
	<g>
		<path class="st2" d="M350.39,332.82c0,0.14-7.62,0.26-17.02,0.26c-9.4,0-17.02-0.12-17.02-0.26s7.62-0.26,17.02-0.26
			C342.76,332.56,350.39,332.68,350.39,332.82z"/>
	</g>
</g>
<g>
	<g>
		<path class="st2" d="M191.19,334.63c0,0.14-7.62,0.26-17.02,0.26c-9.4,0-17.02-0.12-17.02-0.26s7.62-0.26,17.02-0.26
			C183.56,334.37,191.19,334.49,191.19,334.63z"/>
	</g>
</g>
<g>
	<path class="st11" d="M57.37,255.26c-1,4.41-6,6.71-9.08,10.02c-3.08,3.31-7.62,6.03-11.95,4.74c-2.85-0.85-4.99-3.31-6.23-6.01
		c-2.88-6.3-1.51-13.69,0.64-20.27c2.16-6.58,5.08-13.09,5.2-20.02l14.51,4.87l3.58-4.41C54.05,224.18,58.1,252.05,57.37,255.26z"/>
</g>
<g>
	<path class="st11" d="M113.9,217.74c0,0,8.77,35.15,17.16,40.31c10.6,6.52,16.8-1.23,16.8-1.23l16.61-30.39l-11.33-2.84
		l-11.04,13.9l-7.7-21.06L113.9,217.74z"/>
</g>
<g>
	<g>
		<g>
			<g>
				<path class="st11" d="M101.14,363.9c0,1.18,1.4,18.56,1.4,18.56s-2.58,8-2.79,16.82c-0.38,16.22-0.23,51.13-0.23,51.13h17.31
					l0.01-1.97c0,0,9.12-60.93,8.8-66.9l-1.21-22.65L101.14,363.9"/>
			</g>
		</g>
		<g>
			<g>
				<path class="st11" d="M87.05,336.9l-28.81,4.87c0,0,2.91,7.89,3.11,8.66c0.76,2.82,2.42,10.11,1.44,16.94
					c-1.24,8.71-2.34,19.28-1.79,24.25c0.55,4.97,5.95,57.35,5.95,57.35l17.17,0.54l4.17-96.43L87.05,336.9z"/>
			</g>
		</g>
	</g>
	<g>
		<g>
			<g>
				<g>
					<g>
						<g>
							<g>
								<g>
									<g>
										<g>
											<path class="st11" d="M75.01,129.09l-0.16,51.88l22.26,1.06l0.64-12.62c0,0,7.91,1.57,9.95-5.77
												c1.3-4.69,0.98-40.94,0.98-40.94L75.01,129.09z"/>
										</g>
									</g>
								</g>
							</g>
						</g>
					</g>
				</g>
				<g>
					<g>
						<g>
							<g>
								<g>
									<g>
										<g>
											<path class="st4" d="M111.61,126.36c-3.51,1-4.27,6.73-4.27,6.73l-5.5,12.15c-2.8-2.19-6.56-2.07-7.28,2.86
												c-0.51,3.56,3.91,4.28,3.91,4.28c-2.57,4.38-4.32,7.93-8.07,12.09c-4.06,4.51-6.33,4.97-10.73,5.04h-4.85
												c0,0-2.38-7.71-6.77-26.99c-4.88-21.39,20.42-18.64,25.1-24.1C100.79,109.52,122.66,123.19,111.61,126.36z"/>
										</g>
									</g>
								</g>
							</g>
						</g>
					</g>
				</g>
			</g>
		</g>
		<g>
			<g>
				<g>
					<g>
						<g>
							<g>
								<path class="st4" d="M68.51,144.53c-4.1-2.75-4.47-10.46-2.08-15.08c2.39-4.62,7.43-7.75,12.63-7.85
									c0.7-0.01,1.41,0.02,2.06-0.23c0.96-0.37,1.59-1.28,2.22-2.1c3.66-4.76,7.27-9.45,14.1-9.44c1.11,0,2.34,0,4.29,1.06
									c0.97,0.53,2.35,2.33,2.58,3.41c1.28-0.61,2.59-1.22,3.99-1.44c1.4-0.21,2.95,0.03,4.01,0.98c1.06,0.94,1.45,2.68,0.63,3.84
									c2.3-0.15,4.48,1.76,4.85,4.04c0.36,2.28-2.9,3.88-3.24,4.06c0,0,1.79,3.75-2.48,6c-1.72,0.91-3.96-0.19-4.21-0.32"/>
							</g>
						</g>
					</g>
				</g>
			</g>
		</g>
		<g>
			<g>
				<g>
					<g>
						<g>
							<g>
								<g>
									<path class="st12" d="M84.76,149.51c0.14-0.02,0.36,1.79-0.13,3.94c-0.48,2.16-1.45,3.69-1.57,3.61
										c-0.15-0.07,0.56-1.66,1.02-3.74C84.56,151.26,84.59,149.52,84.76,149.51z"/>
								</g>
							</g>
						</g>
					</g>
				</g>
			</g>
		</g>
		<g>
			<g>
				<g>
					<g>
						<g>
							<g>
								<g>
									<path class="st12" d="M87.45,146.97c0.15,0.01,0.18,1.72-0.21,3.79c-0.38,2.07-1.03,3.66-1.17,3.61
										c-0.15-0.05,0.25-1.68,0.62-3.72C87.07,148.63,87.29,146.96,87.45,146.97z"/>
								</g>
							</g>
						</g>
					</g>
				</g>
			</g>
		</g>
		<g>
			<g>
				<g>
					<g>
						<g>
							<g>
								<g>
									<path class="st12" d="M95.16,138.41c0.05,0.07-0.58,0.53-1.38,1.47c-0.81,0.93-1.73,2.38-2.4,4.14
										c-0.67,1.76-1.04,3.45-1.33,4.67c-0.28,1.22-0.47,1.98-0.55,1.96c-0.07-0.01-0.02-0.79,0.16-2.04
										c0.19-1.24,0.5-2.97,1.2-4.79c0.69-1.82,1.72-3.31,2.63-4.21C94.4,138.7,95.13,138.35,95.16,138.41z"/>
								</g>
							</g>
						</g>
					</g>
				</g>
			</g>
		</g>
		<g>
			<g>
				<g>
					<g>
						<g>
							<g>
								<g>
									<path class="st12" d="M98.28,132.58c0.07-0.02,0.29,0.5,0.43,1.4c0.14,0.9,0.15,2.18-0.19,3.54
										c-0.34,1.36-0.95,2.49-1.5,3.22c-0.55,0.73-0.99,1.08-1.04,1.03c-0.14-0.11,1.37-1.78,2-4.39
										C98.64,134.79,98.11,132.6,98.28,132.58z"/>
								</g>
							</g>
						</g>
					</g>
				</g>
			</g>
		</g>
		<g>
			<g>
				<g>
					<g>
						<g>
							<g>
								<g>
									<path class="st12" d="M71.71,145.53c-0.08,0.14-0.76-0.1-1.52-0.53c-0.76-0.43-1.32-0.88-1.25-1.02
										c0.08-0.14,0.76,0.1,1.52,0.53C71.23,144.94,71.79,145.4,71.71,145.53z"/>
								</g>
							</g>
						</g>
					</g>
				</g>
			</g>
		</g>
		<g>
			<g>
				<g>
					<g>
						<g>
							<g>
								<g>
									<path class="st12" d="M82.47,139.99c0.15,0.02,0.06,1.12-0.64,2.26c-0.68,1.14-1.61,1.73-1.7,1.61
										c-0.11-0.12,0.59-0.86,1.22-1.9C81.99,140.92,82.31,139.96,82.47,139.99z"/>
								</g>
							</g>
						</g>
					</g>
				</g>
			</g>
		</g>
		<g>
			<g>
				<g>
					<g>
						<g>
							<g>
								<g>
									<path class="st12" d="M85.77,138.22c0.14,0.03-0.09,1.35-0.99,2.7c-0.89,1.35-2.01,2.08-2.1,1.96
										c-0.11-0.13,0.8-1,1.63-2.27C85.16,139.34,85.62,138.17,85.77,138.22z"/>
								</g>
							</g>
						</g>
					</g>
				</g>
			</g>
		</g>
		<g>
			<g>
				<g>
					<g>
						<g>
							<g>
								<g>
									<path class="st12" d="M102.21,116.49c-0.04,0.04-0.42-0.32-1.22-0.77c-0.8-0.44-2.09-0.92-3.73-0.96
										c-1.63-0.05-3.63,0.34-5.47,1.47c-1.84,1.13-3.48,2.97-4.66,5.19c-0.86,1.61-1.46,3.29-1.89,4.86l-0.09,0.33l-0.3-0.16
										c-1.65-0.87-3.4-1.25-4.97-1.27c-1.57-0.04-2.95,0.24-4.04,0.61c-2.2,0.75-3.24,1.74-3.3,1.65
										c-0.02-0.02,0.23-0.27,0.74-0.66c0.52-0.38,1.33-0.88,2.44-1.31c1.11-0.42,2.53-0.76,4.16-0.75
										c1.63-0.01,3.46,0.36,5.21,1.26l-0.39,0.17c0.42-1.61,1.03-3.33,1.92-4.99c1.22-2.29,2.93-4.2,4.89-5.37
										c1.96-1.17,4.06-1.53,5.76-1.42c1.71,0.09,3.03,0.66,3.82,1.17c0.39,0.27,0.68,0.49,0.86,0.68
										C102.14,116.38,102.22,116.48,102.21,116.49z"/>
								</g>
							</g>
						</g>
					</g>
				</g>
			</g>
		</g>
		<g>
			<g>
				<g>
					<g>
						<g>
							<g>
								<g>
									<path class="st12" d="M113.92,119.31c-0.04-0.01,0.62-0.17,1.28,0.58c0.3,0.36,0.58,0.93,0.51,1.62
										c-0.07,0.7-0.55,1.42-1.29,1.85c-0.73,0.45-1.74,0.6-2.7,0.37c-0.98-0.21-1.91-0.73-2.79-1.35
										c-0.88-0.62-1.73-1.34-2.73-1.87c-0.99-0.54-2.11-0.93-3.29-1.16c-2.37-0.44-4.72-0.18-6.71,0.46
										c-2,0.64-3.66,1.6-4.96,2.52c-2.6,1.87-3.88,3.43-3.96,3.35c-0.03-0.02,0.27-0.43,0.88-1.1c0.62-0.66,1.54-1.6,2.84-2.58
										c1.3-0.98,2.98-2,5.03-2.69c2.05-0.69,4.5-0.98,6.98-0.52c1.23,0.23,2.41,0.65,3.45,1.23c1.05,0.57,1.91,1.32,2.76,1.93
										c0.85,0.62,1.71,1.11,2.59,1.32c0.88,0.22,1.74,0.11,2.4-0.26c0.67-0.36,1.1-0.96,1.18-1.54c0.08-0.59-0.13-1.11-0.37-1.45
										C114.49,119.32,113.89,119.38,113.92,119.31z"/>
								</g>
							</g>
						</g>
					</g>
				</g>
			</g>
		</g>
	</g>
	<g>
		<g>
			<g>
				<g>
					<path class="st4" d="M55.76,294.39c0,0-0.81,21.38,0,27.89c0.81,6.51-0.36,45.8-0.36,45.8s30.17,8.78,38.31-1.63
						c0,0-3.29-47.75-3.62-49.05c-0.33-1.3-2.99-33.84-2.99-33.84L55.76,294.39z"/>
				</g>
			</g>
			<g>
				<g>
					<path class="st4" d="M124.58,283.56c1.78,5.53,5.53,26.36,5.53,26.36v55.21c0,0-26.14,9.44-36.55,4.77l-6.46-55.42v-28.72
						l21.51-8.38L124.58,283.56z"/>
				</g>
			</g>
			<g>
				<g>
					<g>
						<path class="st12" d="M107.99,321.92c0,0.03-0.44,0.02-1.22-0.02c-0.78-0.05-1.91-0.13-3.3-0.24
							c-2.88-0.26-6.68-0.61-10.88-0.99c-4.2-0.38-7.99-0.73-10.88-0.99c-1.32-0.12-2.42-0.22-3.3-0.3
							c-0.78-0.08-1.21-0.14-1.21-0.17c0-0.03,0.44-0.04,1.22-0.02c0.78,0.02,1.91,0.07,3.31,0.15c2.79,0.16,6.65,0.45,10.9,0.85
							c4.25,0.4,8.09,0.82,10.87,1.14c1.31,0.16,2.41,0.29,3.29,0.4C107.56,321.81,107.99,321.89,107.99,321.92z"/>
					</g>
				</g>
			</g>
			<g>
				<g>
					<g>
						<path class="st12" d="M88.4,320.18c0.13-0.01,1.4,11.1,2.82,24.83c1.42,13.73,2.47,24.87,2.33,24.88
							c-0.13,0.01-1.4-11.1-2.82-24.83C89.31,331.33,88.27,320.19,88.4,320.18z"/>
					</g>
				</g>
			</g>
			<g>
				<g>
					<g>
						<path class="st12" d="M88.78,319.88c0.08,0.11-1.29,1.33-3.06,2.72c-1.77,1.4-3.28,2.45-3.36,2.34
							c-0.08-0.11,1.29-1.33,3.06-2.72C87.19,320.82,88.69,319.77,88.78,319.88z"/>
					</g>
				</g>
			</g>
			<g>
				<g>
					<g>
						<path class="st12" d="M129.33,306.31c-0.03,0.05-0.85-0.33-2.09-1.11c-1.23-0.78-2.86-1.99-4.47-3.55
							c-1.61-1.56-2.87-3.15-3.69-4.35c-0.82-1.21-1.23-2.02-1.18-2.05c0.06-0.04,0.57,0.7,1.46,1.84c0.88,1.14,2.17,2.67,3.75,4.21
							c1.58,1.53,3.15,2.77,4.33,3.61C128.61,305.76,129.37,306.24,129.33,306.31z"/>
					</g>
				</g>
			</g>
		</g>
		<g>
			<g>
				<g>
					<path class="st12" d="M87.4,314.91c-0.03,0.01-0.19-0.24-0.44-0.71c-0.26-0.47-0.6-1.17-0.97-2.06
						c-0.75-1.77-1.6-4.31-2.11-7.21c-0.5-2.9-0.57-5.58-0.46-7.5c0.05-0.96,0.13-1.74,0.22-2.27c0.08-0.53,0.14-0.82,0.18-0.82
						c0.08,0.01-0.03,1.19-0.05,3.1c-0.02,1.91,0.1,4.54,0.59,7.41c0.5,2.86,1.28,5.38,1.95,7.17
						C86.97,313.8,87.47,314.88,87.4,314.91z"/>
				</g>
			</g>
		</g>
	</g>
	<g>
		<g>
			<g>
				<path class="st12" d="M119.19,238.36c-0.26-0.79-3.17-17.44-3.17-17.44l21.41-0.53c0,0-9.4-36.72-14.52-39.43
					c-7.94-4.2-25.39-4.71-25.39-4.71H75.05c0,0-24.85,6.87-29.34,14.27l-15.86,30.49l20.62,7.57l3.58-4.41l3.56,31.1
					c0,0-2.11,28.02-2.11,32.25c0,4.23,0.26,6.87,0.26,6.87s46.71-12.68,58.07-8.98c11.37,3.7,13.06,7.17,13.06,7.17
					s1.03-12.46-1.62-17.22L119.19,238.36z"/>
			</g>
		</g>
		<g>
			<g>
				<g>
					<path class="st4" d="M54.55,228.58c-0.08,0.01-0.29-1.48-0.77-3.86c-0.48-2.38-1.27-5.64-2.49-9.14
						c-1.22-3.5-2.62-6.55-3.7-8.72c-0.51-1.01-0.95-1.87-1.3-2.57c-0.31-0.61-0.47-0.95-0.44-0.97c0.03-0.02,0.24,0.29,0.61,0.87
						c0.37,0.58,0.86,1.43,1.44,2.5c1.16,2.14,2.62,5.2,3.85,8.72c1.23,3.52,1.98,6.83,2.37,9.23c0.2,1.2,0.33,2.18,0.38,2.86
						C54.57,228.2,54.58,228.58,54.55,228.58z"/>
				</g>
			</g>
		</g>
		<g>
			<g>
				<g>
					<path class="st4" d="M98.7,240.29c0.02,0.01-0.03,0.16-0.12,0.46c-0.12,0.35-0.26,0.78-0.43,1.29
						c-0.19,0.56-0.43,1.24-0.75,2.02c-0.31,0.78-0.65,1.68-1.09,2.64c-0.83,1.95-1.94,4.22-3.27,6.68
						c-1.36,2.45-2.96,5.09-4.81,7.74c-1.86,2.65-3.79,5.06-5.63,7.17c-1.86,2.1-3.61,3.92-5.16,5.36
						c-0.75,0.74-1.48,1.37-2.11,1.93c-0.62,0.57-1.18,1.03-1.64,1.4c-0.43,0.34-0.78,0.62-1.07,0.85
						c-0.25,0.19-0.38,0.28-0.39,0.27c-0.01-0.01,0.1-0.13,0.33-0.35c0.27-0.25,0.6-0.55,1.01-0.92c0.44-0.39,0.98-0.87,1.59-1.45
						c0.61-0.58,1.32-1.22,2.05-1.97c1.51-1.47,3.23-3.31,5.06-5.41c1.81-2.12,3.72-4.53,5.57-7.16c1.84-2.64,3.44-5.26,4.81-7.68
						c1.35-2.44,2.48-4.68,3.35-6.61c0.46-0.95,0.81-1.84,1.15-2.61c0.34-0.77,0.61-1.44,0.82-1.99c0.21-0.5,0.38-0.92,0.52-1.26
						C98.62,240.44,98.69,240.29,98.7,240.29z"/>
				</g>
			</g>
		</g>
		<g>
			<g>
				<g>
					<path class="st4" d="M116.2,195.43c0.09,0.02-0.25,1.47-0.5,3.86c-0.24,2.39-0.37,5.71-0.28,9.38
						c0.09,3.67,0.32,6.99,0.51,9.39c0.09,1.12,0.17,2.07,0.23,2.84c0.05,0.67,0.07,1.05,0.04,1.05c-0.03,0-0.12-0.36-0.23-1.03
						c-0.11-0.67-0.25-1.63-0.39-2.83c-0.29-2.4-0.57-5.72-0.66-9.41c-0.1-3.69,0.09-7.03,0.42-9.43c0.19-1.2,0.35-2.16,0.54-2.82
						C116.06,195.78,116.17,195.42,116.2,195.43z"/>
				</g>
			</g>
		</g>
	</g>
	<g class="st6">
		<g>
			<g>
				<path d="M48.73,209.42c0,0,1.33,12.79,1.75,19.16l3.58-4.41C54.05,224.18,50.54,211.02,48.73,209.42z"/>
			</g>
		</g>
	</g>
	<g class="st6">
		<g>
			<g>
				<path d="M81.71,254.56c-2.46,3.9-4.79,8.66-6.36,13c7.19-5.85,12.93-13.47,16.56-22C87.61,247.21,84.18,250.66,81.71,254.56z"/>
			</g>
		</g>
	</g>
</g>
<g>
	<path class="st5" d="M34.55,280.65c-1,0.26-2-0.43-2.11-1.46l-4.47-42.25c-0.27-2.56,1.36-4.94,3.85-5.61l22.31-5.99l3.72,32.52
		L56.19,275L34.55,280.65z"/>
</g>
<g class="st6">
	<g>
		<path d="M56.19,275c-1.38-2.68-0.84-5.84-0.53-8.84c1.44-13.82-4.53-27.25-1.54-40.82c0,0,3.06,25.85,3.72,32.52L56.19,275z"/>
	</g>
</g>
<g>
	<g>
		<path class="st4" d="M54.36,229.15c0,0.02-0.22,0.09-0.65,0.22c-0.48,0.14-1.11,0.31-1.89,0.53c-1.71,0.46-4.07,1.09-6.98,1.87
			c-1.48,0.39-3.09,0.81-4.82,1.27c-0.87,0.23-1.76,0.46-2.69,0.7c-0.94,0.24-1.86,0.45-2.67,1.01c-0.81,0.53-1.54,1.25-2.08,2.11
			c-0.54,0.86-0.88,1.87-0.8,2.92c0.12,2.19,0.25,4.46,0.38,6.78c0.49,9.26,0.92,17.65,1.25,23.79c0.13,3,0.24,5.45,0.32,7.21
			c0.02,0.81,0.04,1.46,0.06,1.96c0.01,0.45,0,0.69-0.01,0.69c-0.02,0-0.05-0.23-0.09-0.68c-0.04-0.5-0.09-1.15-0.16-1.96
			c-0.12-1.76-0.28-4.21-0.48-7.21c-0.36-6.14-0.85-14.53-1.4-23.79c-0.13-2.32-0.25-4.59-0.37-6.78c-0.08-1.15,0.31-2.28,0.89-3.2
			c0.59-0.93,1.36-1.69,2.24-2.25c0.44-0.29,0.91-0.5,1.39-0.67c0.5-0.16,0.95-0.25,1.42-0.38c0.93-0.23,1.82-0.46,2.69-0.68
			c1.73-0.43,3.35-0.84,4.84-1.2c2.92-0.71,5.3-1.29,7.02-1.71c0.79-0.18,1.42-0.33,1.91-0.44
			C54.12,229.17,54.35,229.13,54.36,229.15z"/>
	</g>
</g>
<g>
	<g>
		<path class="st4" d="M56.66,246.63c0.02,0.07-0.82,0.39-2.19,0.82c-1.37,0.44-3.29,0.98-5.42,1.52c-2.13,0.53-4.08,0.95-5.5,1.21
			c-1.42,0.26-2.3,0.37-2.32,0.3c-0.01-0.07,0.84-0.31,2.24-0.66c1.59-0.39,3.42-0.85,5.45-1.35c2.03-0.51,3.86-0.97,5.45-1.37
			C55.77,246.75,56.64,246.56,56.66,246.63z"/>
	</g>
</g>
<g>
	<g>
		<path class="st4" d="M57.04,250.31c0.05,0.13-1.99,0.96-4.62,1.62c-2.63,0.67-4.81,0.91-4.83,0.77c-0.02-0.15,2.1-0.61,4.71-1.28
			C54.89,250.77,56.99,250.17,57.04,250.31z"/>
	</g>
</g>
<g>
	<g>
		<path class="st13" d="M146.08,251.14c-0.16,0.01-0.23-3.21-1.53-6.92c-1.28-3.7-2.76-6.56-2.59-6.64c0.06-0.03,0.48,0.65,1.08,1.8
			c0.59,1.15,1.36,2.78,2,4.67c0.64,1.89,0.97,3.68,1.07,4.98C146.22,250.33,146.14,251.14,146.08,251.14z"/>
	</g>
</g>
<g>
	<g>
		<path class="st11" d="M153.14,223.6c0,0-2.17-13.42-1.04-15.54l8.82-10.96c0,0,1.51,2.08,0.87,3.92
			c-0.64,1.84-2.59,4.42-2.59,4.42s5.01-0.13,6.46,1.67c0.51,0.64,0.85,2.48,0.95,3.65c0.05,0.55-0.13,1.1-0.48,1.53l-1.26,1.55
			c2.45,10.37-0.66,12.86-0.66,12.86L153.14,223.6z"/>
	</g>
	<g>
		<g>
			<path class="st13" d="M163.09,205.82c0.04,0.06-0.24,0.29-0.64,0.68c-0.4,0.39-0.97,0.92-1.24,1.69c-0.3,0.79-0.5,1.55-0.59,2.1
				c-0.11,0.55-0.06,0.88-0.13,0.91c-0.06,0.03-0.26-0.33-0.24-0.94c0.01-0.6,0.16-1.4,0.48-2.25c0.33-0.91,1.03-1.47,1.5-1.79
				C162.7,205.88,163.05,205.76,163.09,205.82z"/>
		</g>
	</g>
	<g>
		<path class="st11" d="M151.77,210.52c0.02-0.37-0.31-0.06-0.64,0.12c-0.33,0.17-0.72,0.8-0.86,1.15
			c-0.58,1.43-0.43,3.14-0.11,4.65c0.44,2.07,1.68,3.24,2.74,5.07"/>
	</g>
	<g>
		<g>
			<path class="st13" d="M159.54,205.28c0.13,0.13-0.9,1.04-1.78,2.35c-0.42,0.67-0.65,1.35-0.73,1.85
				c-0.08,0.51-0.05,0.84-0.13,0.86c-0.06,0.02-0.23-0.31-0.24-0.89c-0.02-0.57,0.19-1.37,0.65-2.11c0.47-0.73,1.04-1.26,1.46-1.61
				C159.2,205.41,159.49,205.23,159.54,205.28z"/>
		</g>
	</g>
	<g>
		<g>
			<path class="st13" d="M152.9,219.45c-0.07,0.01-0.23-0.6-0.44-1.59c-0.21-0.99-0.49-2.37-0.69-3.92
				c-0.44-3.11-0.01-5.66,0.14-5.63c0.14,0.02-0.05,2.51,0.38,5.56C152.7,216.93,153.07,219.43,152.9,219.45z"/>
		</g>
	</g>
	<g>
		<g>
			<path class="st13" d="M165.69,207.32c0.06-0.03,0.35,0.51,0.63,1.45c0.14,0.47,0.28,1.03,0.38,1.67
				c0.11,0.63,0.11,1.44-0.24,2.17c-0.17,0.36-0.42,0.69-0.74,0.93c-0.16,0.12-0.34,0.2-0.53,0.27c-0.1,0.03-0.22,0.05-0.36,0.03
				c-0.15-0.02-0.3-0.15-0.35-0.25c-0.27-0.68-0.36-1.21-0.45-1.71c-0.14-0.97-0.07-1.58,0-1.58c0.08,0,0.14,0.59,0.36,1.51
				c0.11,0.44,0.28,1.04,0.5,1.53c0.03,0.03,0.01,0.03,0.15,0c0.12-0.05,0.26-0.11,0.37-0.2c0.24-0.18,0.43-0.44,0.57-0.74
				c0.29-0.62,0.32-1.27,0.24-1.89c-0.07-0.62-0.17-1.18-0.26-1.65C165.78,207.92,165.62,207.34,165.69,207.32z"/>
		</g>
	</g>
</g>
<g>
	<g>
		<g>
			<g>
				<g>
					<g>
						<g>
							<g>
								<g>
									<path class="st14" d="M99.44,448.78v19.85l39.82-0.6c-0.29-4.02-22.05-11.65-22.05-11.65l0.44-7.6H99.44z"/>
								</g>
							</g>
						</g>
					</g>
				</g>
			</g>
		</g>
	</g>
</g>
<g class="st15">
	<g>
		<g>
			<g>
				<g>
					<g>
						<g>
							<g>
								<g>
									<g>
										<path class="st3" d="M105.91,454.59c-0.77,0.24-1.29,1.16-1.1,1.98c0.19,0.82,1.08,1.39,1.85,1.17
											c0.77-0.22,1.43-1.31,1.15-2.11c-0.28-0.79-1.35-1.4-2.05-0.99"/>
									</g>
								</g>
							</g>
						</g>
					</g>
				</g>
			</g>
		</g>
	</g>
</g>
<g>
	<g>
		<g>
			<g>
				<g>
					<g>
						<g>
							<g>
								<g>
									<path class="st4" d="M99.44,468.63l0.06-3.42l38.15,0.7c0,0,1.78,0.79,1.6,2.12L99.44,468.63z"/>
								</g>
							</g>
						</g>
					</g>
				</g>
			</g>
		</g>
	</g>
</g>
<g>
	<g>
		<g>
			<g>
				<g>
					<g>
						<g>
							<g>
								<g>
									<g>
										<path class="st4" d="M117.2,456.77c0,0.21-0.97,0.31-1.92,0.99c-0.96,0.65-1.44,1.55-1.62,1.47
											c-0.18-0.04,0.09-1.27,1.25-2.07C116.06,456.35,117.24,456.58,117.2,456.77z"/>
									</g>
								</g>
							</g>
						</g>
					</g>
				</g>
			</g>
		</g>
	</g>
</g>
<g>
	<g>
		<g>
			<g>
				<g>
					<g>
						<g>
							<g>
								<g>
									<g>
										<path class="st4" d="M122.45,458.6c0.05,0.2-0.79,0.56-1.44,1.44c-0.67,0.86-0.83,1.8-1.02,1.8
											c-0.18,0.04-0.33-1.17,0.49-2.25C121.3,458.51,122.44,458.41,122.45,458.6z"/>
									</g>
								</g>
							</g>
						</g>
					</g>
				</g>
			</g>
		</g>
	</g>
</g>
<g>
	<g>
		<g>
			<g>
				<g>
					<g>
						<g>
							<g>
								<g>
									<g>
										<path class="st4" d="M124.81,463.66c-0.18,0.05-0.46-0.98,0.02-2.11c0.48-1.14,1.39-1.6,1.47-1.43
											c0.11,0.17-0.47,0.78-0.85,1.72C125.04,462.77,125,463.64,124.81,463.66z"/>
									</g>
								</g>
							</g>
						</g>
					</g>
				</g>
			</g>
		</g>
	</g>
</g>
<g>
	<g>
		<g>
			<g>
				<g>
					<g>
						<g>
							<g>
								<g>
									<g>
										<path class="st4" d="M116.81,451.12c-0.08,0.19-0.97-0.08-2.07,0.01c-1.1,0.07-1.95,0.48-2.05,0.3
											c-0.11-0.15,0.71-0.92,2-1.02C115.99,450.32,116.91,450.96,116.81,451.12z"/>
									</g>
								</g>
							</g>
						</g>
					</g>
				</g>
			</g>
		</g>
	</g>
</g>
<g>
	<g>
		<g>
			<g>
				<path class="st4" d="M117.03,456.73c0.03,0,0.13-0.42,0.09-1.21c-0.06-0.78-0.29-1.94-1.06-3.13c-0.39-0.58-0.89-1.17-1.57-1.65
					c-0.33-0.23-0.83-0.48-1.35-0.24c-0.49,0.23-0.76,0.78-0.79,1.31c0.05,2.04,1.52,3.93,3.52,4.64c2.05,0.72,4.22-0.17,5.41-1.61
					c0.29-0.37,0.57-0.74,0.72-1.23c0.07-0.24,0.1-0.52,0.01-0.79c-0.09-0.27-0.31-0.48-0.54-0.57c-0.48-0.16-0.89-0.02-1.25,0.12
					c-0.35,0.17-0.65,0.34-0.93,0.53c-1.14,0.76-1.86,1.63-2.29,2.26c-0.43,0.64-0.58,1.05-0.55,1.06c0.09,0.09,0.83-1.57,3.05-2.96
					c0.54-0.31,1.24-0.75,1.8-0.55c0.25,0.1,0.35,0.39,0.23,0.74c-0.1,0.34-0.36,0.69-0.63,1.01c-1.08,1.27-3.04,2.04-4.84,1.4
					c-1.78-0.6-3.12-2.4-3.17-4.03c0.01-0.38,0.2-0.72,0.47-0.86c0.26-0.14,0.59-0.02,0.89,0.18c0.61,0.41,1.11,0.94,1.49,1.47
					c0.76,1.08,1.05,2.17,1.17,2.91C117.01,456.3,116.98,456.73,117.03,456.73z"/>
			</g>
		</g>
	</g>
</g>
<g>
	<g>
		<g>
			<g>
				<g>
					<g>
						<polygon class="st14" points="84.04,448.43 84.86,454.61 84.31,468.54 66.16,468.98 65.51,454.61 66.28,448.43 						"/>
					</g>
				</g>
			</g>
		</g>
	</g>
</g>
<g>
	<g>
		<g>
			<g>
				<g>
					<g>
						<g>
							<path class="st4" d="M75.34,467.49c-0.11,0.01,0.15-4.26,0.58-9.52c0.43-5.26,0.87-9.53,0.98-9.54
								c0.11-0.01-0.15,4.26-0.58,9.52C75.89,463.21,75.45,467.48,75.34,467.49z"/>
						</g>
					</g>
				</g>
			</g>
		</g>
	</g>
</g>
<g>
	<g>
		<g>
			<g>
				<g>
					<g>
						<polygon class="st4" points="84.3,466.22 66.15,466.6 66.16,468.98 84.31,468.54 						"/>
					</g>
				</g>
			</g>
		</g>
	</g>
</g>
<g>
	<g>
		<g>
			<g>
				<g>
					<g>
						<g>
							<path class="st4" d="M66.09,458.21c-0.03-0.02,0.13-0.29,0.46-0.74c0.34-0.45,0.87-1.06,1.62-1.73
								c0.75-0.67,1.72-1.39,2.93-1.97c1.2-0.58,2.67-0.99,4.23-0.98c3.14,0,5.78,1.54,7.08,3.07c0.67,0.76,1.09,1.47,1.33,1.97
								c0.23,0.51,0.32,0.81,0.29,0.82c-0.1,0.06-0.54-1.13-1.9-2.53c-1.32-1.4-3.82-2.78-6.8-2.79c-2.97-0.02-5.42,1.48-6.9,2.69
								C66.91,457.28,66.17,458.27,66.09,458.21z"/>
						</g>
					</g>
				</g>
			</g>
		</g>
	</g>
</g>
<g>
	<g>
		<path class="st9" d="M408.16,443.35c-2.37-0.12-3.07-3.47-2.19-5.67c0.88-2.2,2.63-4.17,2.66-6.54c0.02-2.06-1.29-3.93-1.41-5.99
			c-0.23-3.71,3.36-6.74,3.51-10.45c0.12-2.9-1.89-5.66-1.4-8.51c0.52-3.07,3.72-5.08,4.45-8.1c0.78-3.22-1.45-6.62-0.6-9.82
			c0.85-3.19,4.61-5.53,4.07-8.78c-0.18-1.08-0.83-2.02-1.12-3.07c-0.67-2.43,0.65-4.96,2.26-6.9c1.61-1.94,3.58-3.66,4.57-5.98
			c1.53-3.56,0.47-7.89,2.27-11.32c1.5-2.85,4.84-4.78,5.26-7.97c1.69,2.88,0.04,6.54,0.42,9.86c0.25,2.16,1.37,4.11,2.06,6.18
			c1.4,4.21,0.93,9.01-1.26,12.87c-1.45,2.55-3.69,4.96-3.57,7.89c0.14,3.55,3.69,6.12,4.32,9.62c0.9,5-4.43,9.5-3.69,14.53
			c0.19,1.3,0.78,2.52,0.89,3.82c0.38,4.45-4.66,7.59-5.43,11.98c-0.56,3.23,1.31,6.58,0.53,9.77c-0.6,2.46-2.72,4.66-2.2,7.14
			c0.23,1.07,0.93,1.98,1.36,2.99c0.82,1.93,0.51,4.33-0.89,5.89c-1.4,1.56-3.86,2.12-5.73,1.18"/>
	</g>
</g>
<g class="st16">
	<g>
		<g>
			<path class="st3" d="M423.91,440.87c-0.43-1.01-1.13-1.91-1.36-2.99c-0.52-2.48,1.6-4.68,2.2-7.14c0.77-3.19-1.1-6.53-0.53-9.77
				c0.77-4.39,5.81-7.54,5.43-11.98c-0.11-1.31-0.7-2.53-0.89-3.82c-0.74-5.03,4.59-9.53,3.69-14.53c-0.63-3.5-4.18-6.07-4.32-9.62
				c-0.11-2.93,2.12-5.34,3.57-7.89c2.2-3.86,2.67-8.66,1.26-12.87c-0.69-2.06-1.81-4.02-2.06-6.18c-0.39-3.32,1.27-6.98-0.42-9.86
				c-0.42,3.2-3.76,5.12-5.26,7.97c-1.8,3.43-0.74,7.76-2.27,11.32c-0.99,2.32-2.96,4.04-4.57,5.98c-1.61,1.94-2.93,4.48-2.26,6.9
				c0.29,1.05,0.94,1.99,1.12,3.07c0.54,3.26-3.22,5.6-4.07,8.78c-0.86,3.2,1.38,6.6,0.6,9.82c-0.73,3.02-3.93,5.04-4.45,8.1
				c-0.49,2.86,1.52,5.62,1.4,8.51c-0.15,3.72-3.74,6.74-3.51,10.45c0.13,2.06,1.43,3.93,1.41,5.99c-0.02,2.38-1.77,4.34-2.66,6.54
				c-0.88,2.2-0.19,5.55,2.19,5.67l9.13,4.59c1.87,0.94,4.33,0.38,5.73-1.18C424.42,445.2,424.73,442.8,423.91,440.87z"/>
		</g>
	</g>
</g>
<g>
	<g>
		<path class="st17" d="M420.82,438.7c-0.5-0.82-1.09-2.54-0.92-3.51c0.24-1.36,2.54-2.55,3.11-4.86c0.74-2.99-0.6-8.28-0.03-11.29
			c0.77-4.1,5.01-6.79,4.84-10.86c-0.05-1.2,0.12-4.39,0-5.57c-0.45-4.58,3.57-7.66,2.99-12.21c-0.41-3.18-3.71-6.9-3.71-10.16
			c0-2.69,1.93-5.05,3.21-7.5c1.94-3.7,2.48-8.15,1.45-11.93c-0.51-1.86-1.37-3.58-1.51-5.55c-0.22-3.03,1.27-6.51-0.04-9.05
			c-0.45,2.97-3.28,4.96-4.61,7.68c-1.6,3.27-0.86,7.19-2.23,10.57c-0.9,2.2-2.58,3.91-3.97,5.8c-1.39,1.89-2.57,4.31-2.09,6.5
			c0.21,0.95,0.72,1.77,0.83,2.76c0.34,2.96-2.85,5.36-3.65,8.35c-0.81,3,0.93,5.99,0.19,9.01c-0.7,2.83-3.47,6.68-4,9.54
			c-0.49,2.66,1.92,4.4,1.73,7.07c-0.24,3.43-3.68,7.58-3.61,10.99c0.04,1.89,1.62,2.49,1.53,4.39c-0.09,2.19-1.93,6.54-2.73,8.63
			c-0.8,2.09-0.75,3.7,0.57,5.87l10.2,5.06C422.91,446.24,422.71,441.82,420.82,438.7z"/>
	</g>
</g>
<g>
	<g>
		<g>
			<path class="st4" d="M427.67,361.7c0.01,0,0.01,0.08,0.02,0.23c0,0.17,0,0.39,0.01,0.66c0,0.58-0.01,1.44-0.1,2.55
				c-0.11,1.1-0.29,2.47-0.92,3.94c-0.6,1.5-1.87,2.84-3.07,4.38c-0.59,0.78-1.17,1.64-1.45,2.66c-0.31,1.01-0.45,2.12-0.37,3.26
				c0.11,2.3,0.82,4.7,1.16,7.32c0.16,1.3,0.21,2.69-0.13,4.06c-0.16,0.69-0.46,1.34-0.8,1.97c-0.37,0.61-0.8,1.17-1.08,1.79
				c-0.58,1.25-0.35,2.72-0.06,4.14c0.15,0.72,0.31,1.45,0.39,2.2c0.1,0.76,0.05,1.53-0.06,2.3c-0.25,1.53-0.82,2.94-1.4,4.28
				c-0.58,1.35-1.19,2.66-1.58,4.01c-0.4,1.35-0.5,2.72-0.35,4.07c0.12,1.35,0.33,2.71,0.14,4.05c-0.18,1.34-0.75,2.53-1.29,3.64
				c-0.54,1.11-1.06,2.19-1.29,3.31c-0.43,2.25,0.21,4.41,0.16,6.41c-0.03,2.03-0.7,3.74-1.17,5.22c-0.5,1.49-0.9,2.78-1,3.87
				c-0.11,1.09,0.05,1.95,0.26,2.48c0.21,0.54,0.37,0.8,0.34,0.81c0,0-0.19-0.25-0.42-0.78c-0.24-0.54-0.42-1.41-0.34-2.53
				c0.08-1.12,0.46-2.44,0.94-3.93c0.46-1.49,1.1-3.2,1.1-5.15c0-0.98-0.14-2-0.25-3.08c-0.11-1.07-0.19-2.23,0.04-3.4
				c0.44-2.36,2.17-4.39,2.53-6.93c0.17-1.27-0.04-2.59-0.16-3.96c-0.16-1.37-0.05-2.83,0.36-4.22c0.78-2.78,2.47-5.31,2.96-8.25
				c0.1-0.73,0.15-1.46,0.06-2.19c-0.08-0.73-0.24-1.44-0.39-2.17c-0.29-1.42-0.55-2.99,0.09-4.39c0.31-0.68,0.75-1.25,1.1-1.83
				c0.33-0.59,0.61-1.21,0.76-1.86c0.33-1.29,0.29-2.64,0.14-3.92c-0.32-2.57-1.02-4.99-1.12-7.35c-0.07-1.17,0.07-2.33,0.41-3.38
				c0.31-1.07,0.92-1.96,1.52-2.74c1.24-1.55,2.49-2.85,3.09-4.29c0.64-1.42,0.84-2.77,0.97-3.86c0.12-1.1,0.15-1.95,0.18-2.54
				c0.01-0.27,0.03-0.49,0.03-0.66C427.66,361.78,427.67,361.7,427.67,361.7z"/>
		</g>
	</g>
</g>
<g>
	<g>
		<path class="st9" d="M393.59,444.52c-3.32,0.49-5.2-3.96-4.58-7.26c0.62-3.3,2.5-6.49,1.89-9.79c-0.54-2.86-2.86-5.1-3.6-7.91
			c-1.33-5.08,2.81-10.26,2-15.45c-0.63-4.05-4.17-7.32-4.28-11.41c-0.12-4.39,3.76-8.06,3.95-12.45c0.2-4.67-3.83-8.78-3.52-13.45
			c0.31-4.65,4.87-8.92,3.24-13.28c-0.54-1.44-1.7-2.57-2.39-3.95c-1.6-3.18-0.45-7.05,1.24-10.18c1.69-3.13,3.95-6.06,4.69-9.54
			c1.14-5.35-1.52-11.06,0.04-16.31c1.3-4.36,5.39-7.94,5.1-12.48c3.13,3.52,1.84,9.05,3.29,13.54c0.94,2.93,3.03,5.32,4.55,7.99
			c3.1,5.45,3.76,12.23,1.78,18.18c-1.31,3.93-3.75,7.88-2.79,11.91c1.16,4.88,6.79,7.47,8.62,12.15
			c2.61,6.69-3.54,14.38-1.14,21.14c0.62,1.75,1.77,3.27,2.29,5.05c1.74,6.05-4.38,11.79-4.24,18.09c0.1,4.64,3.61,8.75,3.41,13.39
			c-0.15,3.57-2.49,7.21-1.09,10.49c0.61,1.43,1.83,2.48,2.7,3.77c1.66,2.45,1.89,5.86,0.38,8.41c-1.51,2.55-4.77,3.99-7.62,3.2"/>
	</g>
</g>
<g class="st16">
	<g>
		<g>
			<path class="st3" d="M414.74,436.76c-0.87-1.28-2.09-2.34-2.7-3.77c-1.4-3.29,0.94-6.92,1.09-10.5c0.2-4.63-3.31-8.75-3.41-13.39
				c-0.14-6.3,5.99-12.03,4.24-18.09c-0.51-1.78-1.67-3.31-2.29-5.05c-2.4-6.77,3.75-14.46,1.14-21.14
				c-1.83-4.67-7.45-7.27-8.62-12.15c-0.96-4.03,1.48-7.98,2.79-11.91c1.99-5.95,1.32-12.73-1.78-18.18
				c-1.52-2.67-3.6-5.07-4.55-7.99c-1.44-4.49-0.15-10.02-3.29-13.54c0.29,4.54-3.8,8.12-5.1,12.48c-1.56,5.24,1.1,10.96-0.04,16.31
				c-0.74,3.48-3,6.41-4.69,9.54c-1.69,3.13-2.84,7-1.24,10.18c0.69,1.38,1.85,2.5,2.39,3.95c1.63,4.36-2.93,8.63-3.24,13.28
				c-0.31,4.67,3.72,8.77,3.52,13.45c-0.19,4.39-4.07,8.06-3.95,12.45c0.11,4.09,3.65,7.36,4.28,11.41c0.81,5.19-3.33,10.36-2,15.45
				c0.74,2.82,3.06,5.05,3.6,7.91c0.62,3.3-1.27,6.49-1.89,9.79c-0.62,3.3,1.26,7.75,4.58,7.26l13.91,3.85
				c2.85,0.79,6.11-0.65,7.62-3.2C416.63,442.62,416.4,439.21,414.74,436.76z"/>
		</g>
	</g>
</g>
<g>
	<g>
		<path class="st17" d="M409.85,434.6c-0.91-1-2.21-3.22-2.23-4.61c-0.03-1.95,2.82-4.23,2.98-7.58c0.21-4.34-3.09-11.3-3.13-15.64
			c-0.05-5.89,5.08-10.78,3.73-16.37c-0.4-1.64-1.04-6.12-1.53-7.72c-1.88-6.23,2.85-11.59,0.79-17.73
			c-1.44-4.29-7.03-8.55-7.92-13.07c-0.74-3.73,1.29-7.53,2.39-11.26c1.68-5.65,1.21-11.97-1.26-16.93
			c-1.21-2.43-2.88-4.58-3.62-7.28c-1.13-4.14-0.02-9.37-2.53-12.52c0.19,4.24-3.18,7.76-4.28,11.9c-1.32,4.97,0.78,10.2-0.2,15.26
			c-0.64,3.29-2.5,6.13-3.92,9.13c-1.41,3-2.38,6.68-1.11,9.58c0.55,1.26,1.48,2.26,1.9,3.59c1.28,4.01-2.47,8.21-2.77,12.57
			c-0.3,4.38,2.93,8.05,2.72,12.43c-0.2,4.12-2.98,10.2-2.94,14.31c0.05,3.82,3.86,5.56,4.33,9.32c0.6,4.82-3.02,11.52-1.99,16.21
			c0.57,2.6,2.92,3.01,3.33,5.66c0.47,3.06-0.88,9.59-1.42,12.7c-0.54,3.11-0.03,5.33,2.4,7.98l15.52,4.22
			C414.82,444.48,413.33,438.4,409.85,434.6z"/>
	</g>
</g>
<g>
	<g>
		<g>
			<path class="st4" d="M398.26,326.05c0,0,0.44,1.68,0.8,4.79c0.15,1.55,0.27,3.5-0.21,5.69c-0.23,1.1-0.66,2.23-1.22,3.36
				c-0.56,1.14-1.23,2.29-1.84,3.53c-0.61,1.24-1.18,2.6-1.3,4.11c-0.16,1.49-0.04,3.07,0.38,4.65c0.78,3.17,2.42,6.3,3.6,9.83
				c0.57,1.76,1.02,3.66,0.92,5.63c-0.03,0.99-0.26,1.97-0.56,2.92c-0.34,0.94-0.78,1.83-1,2.78c-0.47,1.92,0.26,3.92,1.05,5.8
				c0.4,0.95,0.82,1.92,1.15,2.94c0.34,1.02,0.48,2.1,0.54,3.17c0.08,2.17-0.33,4.27-0.77,6.3c-0.44,2.03-0.91,4.02-1.08,6
				c-0.07,0.99-0.09,1.98,0.03,2.94c0.09,0.97,0.34,1.9,0.6,2.83c0.53,1.84,1.19,3.66,1.31,5.55c0.12,1.89-0.35,3.69-0.78,5.37
				c-0.44,1.69-0.87,3.34-0.87,4.96c-0.01,1.62,0.4,3.16,0.83,4.61c0.44,1.46,0.9,2.85,1.16,4.24c0.28,1.39,0.27,2.74,0.19,4
				c-0.08,1.26-0.23,2.44-0.37,3.54c-0.28,2.2-0.47,4.1-0.3,5.65c0.16,1.54,0.61,2.69,1.05,3.38c0.44,0.69,0.74,1.01,0.71,1.02
				c0,0-0.32-0.3-0.78-0.98c-0.47-0.68-0.96-1.84-1.14-3.4c-0.19-1.57-0.02-3.49,0.24-5.69c0.13-1.1,0.27-2.28,0.34-3.53
				c0.07-1.25,0.06-2.58-0.22-3.93c-0.27-1.36-0.73-2.74-1.18-4.2c-0.44-1.46-0.87-3.03-0.87-4.7c0-1.68,0.43-3.36,0.86-5.04
				c0.43-1.69,0.87-3.45,0.75-5.26c-0.11-1.82-0.76-3.6-1.3-5.46c-0.26-0.93-0.52-1.89-0.62-2.89c-0.12-1-0.11-2.01-0.03-3.02
				c0.17-2.03,0.65-4.03,1.09-6.05c0.44-2.02,0.83-4.09,0.76-6.2c-0.06-1.05-0.2-2.08-0.53-3.07c-0.31-0.99-0.73-1.94-1.13-2.9
				c-0.4-0.96-0.79-1.93-1.02-2.95c-0.24-1.01-0.29-2.09-0.05-3.1c0.24-1.01,0.69-1.92,1.02-2.83c0.29-0.92,0.52-1.86,0.55-2.81
				c0.1-1.9-0.33-3.75-0.89-5.49c-1.15-3.48-2.79-6.63-3.57-9.86c-0.42-1.6-0.54-3.23-0.36-4.77c0.13-1.55,0.73-2.95,1.35-4.2
				c0.63-1.26,1.31-2.4,1.87-3.52c0.57-1.12,0.99-2.22,1.23-3.29c0.49-2.15,0.4-4.08,0.27-5.63c-0.13-1.55-0.34-2.75-0.46-3.56
				c-0.06-0.39-0.11-0.7-0.14-0.92C398.27,326.16,398.25,326.05,398.26,326.05z"/>
		</g>
	</g>
</g>
<g>
	<g>
		<path class="st9" d="M391.51,446.7c-1.89,0.93-3.88-1.37-4.15-3.46c-0.27-2.09,0.24-4.37-0.76-6.22c-0.87-1.61-2.7-2.5-3.68-4.04
			c-1.78-2.78-0.3-6.68-1.79-9.63c-1.16-2.3-3.91-3.57-4.76-6c-0.92-2.61,0.7-5.55-0.04-8.21c-0.78-2.84-3.99-4.51-4.7-7.37
			c-0.71-2.84,1.19-6.28-0.63-8.58c-0.6-0.76-1.51-1.21-2.19-1.9c-1.57-1.59-1.64-4.13-1.23-6.34c0.41-2.2,1.19-4.39,0.96-6.62
			c-0.35-3.42-3.05-6.33-3.13-9.77c-0.07-2.86,1.69-5.8,0.64-8.46c2.56,1.5,2.85,5.06,4.58,7.47c1.13,1.57,2.84,2.6,4.27,3.91
			c2.91,2.66,4.62,6.59,4.58,10.54c-0.03,2.61-0.72,5.44,0.63,7.67c1.64,2.7,5.51,3.16,7.5,5.6c2.86,3.5,0.66,9.29,3.41,12.87
			c0.71,0.92,1.7,1.62,2.35,2.58c2.21,3.29-0.35,7.9,0.96,11.65c0.96,2.75,3.85,4.54,4.63,7.35c0.6,2.17-0.1,4.79,1.38,6.49
			c0.64,0.74,1.58,1.13,2.34,1.73c1.47,1.15,2.26,3.14,1.85,4.96c-0.41,1.82-2.08,3.31-3.94,3.39"/>
	</g>
</g>
<g class="st16">
	<g>
		<g>
			<path class="st3" d="M402.67,437.97c-0.77-0.6-1.7-1-2.34-1.73c-1.47-1.7-0.78-4.33-1.38-6.49c-0.78-2.81-3.67-4.6-4.63-7.35
				c-1.3-3.74,1.26-8.36-0.96-11.65c-0.65-0.97-1.64-1.66-2.35-2.58c-2.74-3.59-0.55-9.38-3.41-12.87c-2-2.44-5.87-2.91-7.5-5.6
				c-1.35-2.23-0.66-5.06-0.63-7.67c0.04-3.94-1.67-7.87-4.58-10.54c-1.43-1.31-3.14-2.34-4.27-3.91c-1.73-2.41-2.03-5.97-4.58-7.47
				c1.05,2.66-0.71,5.6-0.64,8.46c0.08,3.44,2.77,6.34,3.13,9.77c0.23,2.23-0.55,4.41-0.96,6.62c-0.41,2.2-0.34,4.74,1.23,6.33
				c0.68,0.69,1.59,1.14,2.19,1.9c1.82,2.3-0.08,5.73,0.63,8.58c0.72,2.85,3.92,4.53,4.7,7.37c0.74,2.66-0.88,5.61,0.04,8.21
				c0.86,2.43,3.61,3.7,4.76,6c1.49,2.95,0.01,6.85,1.79,9.63c0.99,1.54,2.81,2.43,3.68,4.04c1.01,1.85,0.5,4.13,0.76,6.22
				c0.27,2.09,2.25,4.39,4.15,3.46l9.07-0.38c1.86-0.08,3.53-1.57,3.94-3.39C404.93,441.12,404.14,439.12,402.67,437.97z"/>
		</g>
	</g>
</g>
<g>
	<g>
		<path class="st17" d="M399.33,437.62c-0.74-0.42-1.94-1.5-2.23-2.33c-0.4-1.16,0.87-3.08,0.32-5.11
			c-0.72-2.64-4.04-6.17-4.89-8.75c-1.17-3.51,0.96-7.44-0.93-10.52c-0.56-0.91-1.81-3.46-2.41-4.33
			c-2.33-3.36-0.53-7.49-2.95-10.77c-1.69-2.29-5.86-3.76-7.27-6.29c-1.16-2.09-0.69-4.75-0.74-7.2c-0.09-3.71-1.59-7.4-4.03-9.89
			c-1.19-1.22-2.61-2.19-3.57-3.66c-1.47-2.26-1.82-5.6-3.94-7.01c0.93,2.5-0.4,5.26-0.26,7.95c0.17,3.23,2.44,5.96,2.83,9.17
			c0.25,2.09-0.31,4.15-0.58,6.22c-0.26,2.07-0.13,4.46,1.19,5.95c0.57,0.65,1.32,1.07,1.83,1.78c1.54,2.15,0.11,5.39,0.77,8.06
			c0.67,2.68,3.31,4.25,4.03,6.91c0.68,2.5,0.19,6.68,1.01,9.13c0.77,2.28,3.39,2.58,4.39,4.74c1.29,2.77,0.42,7.48,1.94,10.09
			c0.84,1.45,2.33,1.24,3.09,2.75c0.87,1.74,1.33,5.91,1.61,7.87c0.28,1.97,1.01,3.19,2.98,4.31l10.1-0.48
			C404.21,442.58,402.14,439.23,399.33,437.62z"/>
	</g>
</g>
<g>
	<g>
		<g>
			<path class="st4" d="M371.41,374.9c0.01,0,0.04,0.05,0.11,0.17c0.08,0.14,0.17,0.3,0.29,0.51c0.25,0.45,0.62,1.12,1.02,2.02
				c0.39,0.9,0.85,2.04,0.99,3.46c0.18,1.42-0.22,3.01-0.49,4.73c-0.12,0.86-0.2,1.77,0.02,2.69c0.19,0.91,0.57,1.83,1.12,2.69
				c1.08,1.74,2.66,3.29,4.06,5.18c0.69,0.95,1.33,2,1.65,3.21c0.18,0.6,0.23,1.24,0.23,1.88c-0.02,0.63-0.11,1.25-0.06,1.85
				c0.09,1.21,0.9,2.26,1.73,3.23c0.42,0.49,0.86,0.99,1.26,1.54c0.4,0.55,0.7,1.17,0.95,1.81c0.47,1.29,0.63,2.64,0.76,3.94
				c0.13,1.3,0.23,2.58,0.51,3.79c0.27,1.22,0.78,2.32,1.48,3.31c0.67,1,1.42,1.96,1.86,3.08c0.44,1.12,0.51,2.29,0.57,3.39
				c0.06,1.1,0.12,2.16,0.43,3.12c0.63,1.93,2.06,3.33,2.89,4.91c0.86,1.59,1.07,3.21,1.34,4.57c0.25,1.37,0.5,2.54,0.89,3.44
				c0.39,0.89,0.87,1.49,1.27,1.82c0.39,0.33,0.63,0.47,0.62,0.49c0,0-0.25-0.11-0.67-0.42c-0.42-0.31-0.94-0.91-1.36-1.82
				c-0.43-0.9-0.7-2.09-0.97-3.46c-0.29-1.36-0.53-2.95-1.37-4.47c-0.81-1.52-2.27-2.91-2.96-4.94c-0.68-2.03-0.21-4.35-1.03-6.47
				c-0.41-1.05-1.14-1.99-1.83-3c-0.71-1-1.27-2.18-1.55-3.44c-0.59-2.5-0.37-5.19-1.26-7.68c-0.24-0.61-0.52-1.19-0.9-1.72
				c-0.38-0.53-0.81-1.01-1.23-1.51c-0.84-0.97-1.72-2.09-1.83-3.46c-0.05-0.66,0.04-1.29,0.07-1.9c0-0.6-0.05-1.2-0.21-1.76
				c-0.3-1.14-0.91-2.16-1.58-3.09c-1.35-1.86-2.94-3.43-4.04-5.22c-0.56-0.88-0.95-1.85-1.14-2.8c-0.22-0.96-0.13-1.92,0-2.79
				c0.29-1.74,0.7-3.28,0.55-4.66c-0.12-1.38-0.54-2.51-0.91-3.41c-0.38-0.9-0.73-1.58-0.95-2.05c-0.1-0.21-0.19-0.39-0.26-0.53
				C371.43,374.96,371.4,374.9,371.41,374.9z"/>
		</g>
	</g>
</g>
<g>
	<g>
		<polygon class="st12" points="377.01,438.72 380.94,446.7 428.8,446.7 434.2,438.72 		"/>
	</g>
</g>
<g>
	<g>
		<polygon class="st12" points="382.08,443.95 389.25,468.69 421.49,468.71 427.98,444 		"/>
	</g>
</g>
<g>
	<g>
		<g>
			<path class="st4" d="M428.58,446.65c0,0.11-10.68,0.2-23.85,0.2c-13.17,0-23.85-0.09-23.85-0.2s10.68-0.2,23.85-0.2
				C417.91,446.44,428.58,446.53,428.58,446.65z"/>
		</g>
	</g>
</g>
<g>
	<g>
		<path class="st4" d="M432.44,468.71c0,0.14-88.61,0.26-197.9,0.26c-109.32,0-197.91-0.12-197.91-0.26s88.59-0.26,197.91-0.26
			C343.82,468.45,432.44,468.57,432.44,468.71z"/>
	</g>
</g>
</svg>
