<?xml version="1.0" encoding="utf-8"?>
<!-- Generator: Adobe Illustrator 26.0.0, SVG Export Plug-In . SVG Version: 6.00 Build 0)  -->
<svg version="1.1" id="Layer_1" xmlns="http://www.w3.org/2000/svg" xmlns:xlink="http://www.w3.org/1999/xlink" x="0px" y="0px"
	 viewBox="0 0 32 32" style="enable-background:new 0 0 32 32;" xml:space="preserve">
<style type="text/css">
	.st0{opacity:0.2;fill:#00100F;enable-background:new    ;}
	.st1{fill:#6EB254;}
	.st2{opacity:0.2;}
	.st3{fill:#FFFFFF;}
	.st4{opacity:0.2;fill:#FFFFFF;enable-background:new    ;}
</style>
<circle class="st0" cx="16" cy="17" r="14"/>
<circle class="st1" cx="16" cy="16" r="14"/>
<g transform="translate(0,1)" class="st2">
	<path d="M16,6c-2.2,0-4,1.8-4,4s1.8,4,4,4s4-1.8,4-4S18.2,6,16,6z"/>
	<path d="M16,16c-7,0-7,4.4-7,4.4v1.8c0,0,1.3,2.8,7,2.8s7-2.8,7-2.8v-1.8C23,20.4,23,16,16,16L16,16z"/>
</g>
<g>
	<path class="st3" d="M16,6c-2.2,0-4,1.8-4,4s1.8,4,4,4s4-1.8,4-4S18.2,6,16,6z"/>
	<path class="st3" d="M16,16c-7,0-7,4.4-7,4.4v1.8c0,0,1.3,2.8,7,2.8s7-2.8,7-2.8v-1.8C23,20.4,23,16,16,16L16,16z"/>
</g>
<path class="st4" d="M16,2C8.3,2,2,8.3,2,16c0,0.2,0,0.4,0,0.6C2.2,9,8.4,3,16,3c7.5,0,13.7,5.9,14,13.4c0-0.1,0-0.3,0-0.4
	C30,8.3,23.7,2,16,2z"/>
</svg>
