<?xml version="1.0" encoding="UTF-8"?><svg id="a" xmlns="http://www.w3.org/2000/svg" viewBox="0 0 140.43 138.29"><defs><style>.b{fill:#fab84d;}.c{fill:#1d71b8;}.d{fill:#b0bfd5;}.e{fill:#063;}</style></defs><circle class="b" cx="70.07" cy="68.76" r="66.95"/><path class="c" d="M66.97,78.46c-11.73,1.24-21.31,10.35-23.22,21.87-.17,1.03-.34,2.04-.29,3.07,.06,1.13-.24,1.8-1.53,1.59-.18-.03-.37,0-.55,0-3.64,0-4.1-.45-3.43-3.97,.73-3.78,1.66-7.51,3.49-10.96,3.74-7.05,9.24-12.12,16.93-15.16-7.12-5.92-10.05-13.34-7.78-22.33,1.24-4.91,4.3-8.87,8.59-11.51,9.15-5.64,21.54-2.97,27.31,5.65,6.05,9.04,4.42,20.98-5.15,28.07,2.5,1.32,5.04,2.42,7.29,4.07,7.35,5.38,11.79,12.47,13.04,21.53,0,.06,0,.12,.01,.18,.81,5.71,.79,4.21-4.26,4.43-.57,.03-.9-.13-.91-.82-.03-6.97-2.85-12.89-7.49-17.81-2.72-2.89-6.13-5.11-10.03-6.4-1.98-.66-3.99-1.12-6.02-1.52-.48-.39-1.02-.3-1.56-.22-.96,0-1.93,0-2.89,0-.54-.09-1.08-.15-1.56,.22Zm2.81-5.68c7.93,.21,14.73-6.34,14.92-14.37,.19-7.84-6.38-14.72-14.21-14.9-8.11-.18-14.82,6.14-15.05,14.19-.23,8.17,6.13,14.86,14.34,15.08Z"/><path class="e" d="M123.44,91.38c-.44-3.02-.66-6.05-1.81-8.96-2.4-6.01-6.27-10.69-11.89-13.88-2.65-1.51-5.48-2.65-8.51-3.14-1.72-.28-3.48-.4-5.22-.5-.99-.06-1.96,.11-1.3-1.43,.25-.59,.43-1.32,.33-1.93-.32-1.96,.6-2.08,2.29-2.2,5.57-.41,9.71-3.15,12.36-8.17,3.48-6.59,1.17-13.82-3.96-17.74-6.68-5.1-15.23-4.26-20.71,2.67-.79,1-1.28,1.24-2.2,.4-.17-.16-.4-.26-.62-.37q-3.23-1.68-.88-4.47c6.74-8.01,19.35-9.28,27.63-2.78,9.44,7.41,10.54,20.94,2.38,29.7-.95,1.02-2.1,1.85-3.25,2.85,2.1,1.2,4.4,2.07,6.43,3.44,7.94,5.34,12.46,12.83,14.03,22.18,.2,1.19-.05,2.43,.33,3.63,.22,.7-.27,.99-.95,.95-1.47-.48-2.99-.02-4.47-.26Z"/><path class="e" d="M16.74,91.09c-.18,.17-.35,.35-.53,.52-1.6-.38-3.22-.06-4.83-.19-.04-.11-.07-.22-.08-.34v-.44c0-.34,0-.69,0-1.03l.04-.42c.8-11.02,5.96-19.36,15.38-25.13,1.33-.81,2.63-1.61,4.12-2.11,.87-.29,.8-.62,.09-1.18-5.1-4.06-7.63-9.36-7.72-15.89-.14-9.45,6.41-17.54,15.14-19.6,7.92-1.87,16.93,1.4,21.46,8.04,.69,1.02,.85,1.66-.64,2-1.24,.28-2.19,1.86-3.34,1.58-.98-.24-1.64-1.64-2.51-2.46-3.98-3.7-8.66-5.09-13.91-3.67-5.43,1.47-8.93,5.13-10.3,10.57-2.45,9.7,5.49,18.27,13.97,18.04,1.48-.04,1.91,.39,1.87,1.79-.03,.96,.16,1.95,.43,2.87,.3,1-.12,1.36-.93,1.15-3.64-.91-7.05,.17-10.31,1.4-9.23,3.49-14.84,10.22-17.02,19.85-.21,.92-.12,1.82-.26,2.72-.18,.14-.23,.3-.07,.48,0,.2-.02,.39-.03,.59-.2,.28-.23,.56-.03,.85Z"/><path class="d" d="M66.97,78.46c.48-.37,1.01-.32,1.56-.22-.47,.41-1.01,.33-1.56,.22Z"/><path class="d" d="M71.42,78.23c.54-.09,1.09-.18,1.56,.22-.55,.11-1.09,.18-1.56-.22Z"/></svg>