<?xml version="1.0" encoding="utf-8"?>
<!-- Generator: Adobe Illustrator 26.2.1, SVG Export Plug-In . SVG Version: 6.00 Build 0)  -->
<svg version="1.1" xmlns="http://www.w3.org/2000/svg" xmlns:xlink="http://www.w3.org/1999/xlink" x="0px" y="0px"
	 viewBox="0 0 464.87 290.97" style="enable-background:new 0 0 464.87 290.97;" xml:space="preserve">
<style type="text/css">
	.st0{fill:#EBEBEB;}
	.st1{fill:#F5F5F5;}
	.st2{fill:#E0E0E0;}
	.st3{fill:#FFFFFF;}
	.st4{fill:#FAFAFA;}
	.st5{display:none;}
	.st6{display:inline;}
	.st7{fill:#FFBE9D;}
	.st8{fill:#EB996E;}
	.st9{fill:#263238;}
	.st10{fill:#455A64;}
	.st11{opacity:0.3;}
	.st12{fill:#FF725E;}
	.st13{fill:#DDA94C;stroke:#2E363B;stroke-miterlimit:10;}
	.st14{fill:#A9C45A;}
</style>
<g id="Background_Complete">
	<g>
		<g>
			<g>
				<g>
					<g>
						<g>
							<g>
								<g>
									<path class="st0" d="M424.11,153.44l-39.08,0c-2.7,0-4.89-2.19-4.89-4.89l0-54.1c0-2.7,2.19-4.89,4.89-4.89l24.79,0
										L429,109.34l0,39.21C429,151.25,426.81,153.44,424.11,153.44z"/>
								</g>
							</g>
						</g>
					</g>
				</g>
				<g>
					<g>
						<g>
							<g>
								<g>
									<path class="st1" d="M409.82,89.56v15.23c0,2.51,2.04,4.55,4.55,4.55l14.64,0L409.82,89.56z"/>
								</g>
							</g>
						</g>
					</g>
				</g>
				<g>
					<g>
						<g>
							<g>
								<g>
									<path class="st2" d="M410.02,106.12c0,0-0.19,3.69,4.01,4.91c0.16,0.05,0.32,0.08,0.48,0.11c1.91,0.34,14.5,2.58,14.5,2.29
										c0-0.31,0-4.09,0-4.09l-14.64,0C414.36,109.34,410.71,109.21,410.02,106.12z"/>
								</g>
							</g>
						</g>
					</g>
				</g>
			</g>
		</g>
		<g>
			<g>
				<g>
					<g>
						<g>
							<g>
								<path class="st2" d="M424.11,153.44c0-0.02,0.29,0.01,0.84-0.1c0.54-0.1,1.37-0.35,2.22-1.03c0.82-0.68,1.67-1.86,1.75-3.45
									c0.02-1.58,0-3.41,0-5.45c-0.01-8.19-0.03-19.91-0.06-34.07l0.04,0.1c-5.81-5.98-12.29-12.65-19.2-19.76l0.12,0.05
									c-4.6,0-9.38,0-14.3,0.01c-2.46,0-4.96,0-7.48,0c-0.63,0-1.26,0-1.9,0c-0.64,0.01-1.28-0.03-1.88,0.07
									c-1.22,0.19-2.35,0.9-3.07,1.91c-0.5,0.7-0.81,1.55-0.86,2.4c-0.03,0.87-0.01,1.77-0.02,2.65c0,1.77,0,3.53,0,5.28
									c0,3.49,0,6.93,0,10.32c0,6.76-0.01,13.29-0.01,19.5c0,3.11,0,6.14-0.01,9.08c0,1.47,0,2.92,0,4.35c0,0.71,0,1.42,0,2.12
									c0.01,0.71-0.05,1.4,0.09,2.06c0.25,1.32,1.1,2.48,2.21,3.14c0.55,0.34,1.17,0.55,1.8,0.64c0.62,0.08,1.28,0.04,1.92,0.05
									c2.57,0,5.03,0.01,7.38,0.01c9.39,0.02,17,0.04,22.26,0.05c2.62,0.01,4.66,0.02,6.05,0.03c0.69,0.01,1.21,0.01,1.57,0.02
									C423.93,153.43,424.11,153.44,424.11,153.44s-0.18,0.01-0.54,0.02c-0.36,0-0.89,0.01-1.57,0.02
									c-1.39,0.01-3.43,0.02-6.05,0.03c-5.27,0.01-12.87,0.03-22.26,0.05c-2.35,0-4.81,0.01-7.38,0.01
									c-0.64-0.01-1.28,0.03-1.96-0.05c-0.67-0.09-1.32-0.32-1.91-0.67c-1.18-0.7-2.07-1.92-2.35-3.32
									c-0.15-0.71-0.09-1.42-0.1-2.11c0-0.7,0-1.41,0-2.12c0-1.43,0-2.88,0-4.35c0-2.94,0-5.97-0.01-9.08
									c0-6.22-0.01-12.74-0.01-19.5c0-3.38,0-6.82,0-10.32c0-1.75,0-3.51,0-5.28c0.01-0.89-0.02-1.76,0.02-2.68
									c0.06-0.92,0.39-1.82,0.93-2.58c0.77-1.09,1.98-1.84,3.29-2.05c0.66-0.11,1.3-0.06,1.93-0.07c0.63,0,1.27,0,1.9,0
									c2.52,0,5.02,0,7.48,0c4.92,0,9.71,0,14.3,0.01h0.07l0.05,0.05c6.9,7.13,13.37,13.8,19.17,19.79l0.04,0.04l0,0.06
									c-0.02,14.16-0.05,25.88-0.06,34.07c-0.01,2.05,0,3.87-0.03,5.46c-0.1,1.63-0.98,2.83-1.82,3.51
									c-0.87,0.69-1.71,0.92-2.26,1.01c-0.28,0.05-0.49,0.06-0.64,0.06C424.19,153.44,424.11,153.44,424.11,153.44z"/>
							</g>
						</g>
					</g>
				</g>
			</g>
		</g>
		<g>
			<g>
				<g>
					<g>
						<g>
							<g>
								<path class="st2" d="M429,109.34c0,0.01-0.13,0.02-0.38,0.03c-0.28,0.01-0.64,0.02-1.08,0.03
									c-0.98,0.01-2.33,0.03-3.97,0.05c-1.69,0.01-3.68,0.02-5.88,0.04c-1.11,0-2.27,0-3.48,0c-1.25-0.02-2.53-0.6-3.4-1.6
									c-0.44-0.5-0.77-1.08-0.96-1.69c-0.21-0.61-0.23-1.28-0.21-1.87c0-1.2,0.01-2.37,0.01-3.47c0.01-2.2,0.03-4.19,0.04-5.88
									c0.02-1.64,0.04-2.98,0.05-3.97c0.01-0.44,0.02-0.79,0.03-1.08c0.01-0.25,0.02-0.38,0.03-0.38s0.02,0.13,0.03,0.38
									c0.01,0.28,0.02,0.64,0.03,1.08c0.01,0.98,0.03,2.33,0.05,3.97c0.01,1.69,0.02,3.68,0.04,5.88c0,1.11,0.01,2.27,0.01,3.47
									c-0.08,1.19,0.26,2.41,1.1,3.34c0.81,0.93,2,1.46,3.16,1.49c1.2,0.01,2.36,0.01,3.47,0.02c2.2,0.01,4.19,0.03,5.88,0.04
									c1.64,0.02,2.98,0.04,3.97,0.05c0.44,0.01,0.79,0.02,1.08,0.03C428.87,109.31,429,109.32,429,109.34z"/>
							</g>
						</g>
					</g>
				</g>
			</g>
		</g>
	</g>
	<g>
		<g>
			<path class="st2" d="M409.08,103.15c0,0.09-4.62,0.17-10.31,0.17c-5.7,0-10.31-0.08-10.31-0.17c0-0.09,4.62-0.17,10.31-0.17
				C404.46,102.98,409.08,103.05,409.08,103.15z"/>
		</g>
	</g>
	<g>
		<g>
			<path class="st2" d="M418.86,110.74c0,0.09-6.81,0.17-15.2,0.17c-8.4,0-15.2-0.08-15.2-0.17c0-0.09,6.81-0.17,15.2-0.17
				C412.05,110.57,418.86,110.65,418.86,110.74z"/>
		</g>
	</g>
	<g>
		<g>
			<path class="st2" d="M418.86,118.34c0,0.09-6.81,0.17-15.2,0.17c-8.4,0-15.2-0.08-15.2-0.17c0-0.09,6.81-0.17,15.2-0.17
				C412.05,118.17,418.86,118.24,418.86,118.34z"/>
		</g>
	</g>
	<g>
		<g>
			<path class="st2" d="M418.86,125.93c0,0.09-6.81,0.17-15.2,0.17c-8.4,0-15.2-0.08-15.2-0.17c0-0.09,6.81-0.17,15.2-0.17
				C412.05,125.76,418.86,125.84,418.86,125.93z"/>
		</g>
	</g>
	<g>
		<g>
			<path class="st2" d="M418.86,133.53c0,0.09-6.81,0.17-15.2,0.17c-8.4,0-15.2-0.08-15.2-0.17s6.81-0.17,15.2-0.17
				C412.05,133.36,418.86,133.43,418.86,133.53z"/>
		</g>
	</g>
	<g>
		<g>
			<path class="st2" d="M418.86,142.89c0,0.09-6.81,0.17-15.2,0.17c-8.4,0-15.2-0.08-15.2-0.17s6.81-0.17,15.2-0.17
				C412.05,142.72,418.86,142.8,418.86,142.89z"/>
		</g>
	</g>
	<g>
		<path class="st2" d="M400.35,142.89l-24.75,0c-2.33,0-4.22-1.89-4.22-4.22l0-6.47c0-2.33,1.89-4.22,4.22-4.22l24.75,0
			c2.33,0,4.22,1.89,4.22,4.22v6.47C404.57,141,402.68,142.89,400.35,142.89z"/>
	</g>
	<g>
		<path class="st3" d="M375.22,132.84h2.56c1.84,0,3.11,1.11,3.11,2.82c0,1.71-1.26,2.82-3.11,2.82h-2.56V132.84z M377.72,137.41
			c1.12,0,1.85-0.67,1.85-1.75c0-1.08-0.73-1.75-1.85-1.75h-1.19v3.49H377.72z"/>
		<path class="st3" d="M381.51,135.66c0-1.67,1.3-2.91,3.08-2.91c1.77,0,3.08,1.23,3.08,2.91c0,1.68-1.31,2.91-3.08,2.91
			C382.82,138.57,381.51,137.33,381.51,135.66z M386.36,135.66c0-1.07-0.76-1.8-1.76-1.8c-1.01,0-1.76,0.73-1.76,1.8
			s0.76,1.8,1.76,1.8C385.61,137.46,386.36,136.73,386.36,135.66z"/>
		<path class="st3" d="M388.31,135.66c0-1.7,1.3-2.91,3.06-2.91c0.97,0,1.79,0.35,2.32,1l-0.84,0.77c-0.38-0.43-0.85-0.66-1.42-0.66
			c-1.05,0-1.8,0.74-1.8,1.8c0,1.06,0.75,1.8,1.8,1.8c0.56,0,1.04-0.23,1.42-0.67l0.84,0.77c-0.53,0.65-1.34,1.01-2.33,1.01
			C389.61,138.57,388.31,137.36,388.31,135.66z"/>
		<path class="st3" d="M398,138.48l-1.36-1.96l-1.34,1.96h-1.5l2.09-2.87l-1.98-2.77h1.48l1.3,1.83l1.27-1.83h1.41l-1.96,2.72
			l2.1,2.91H398z"/>
	</g>
	<g>
		<g>
			<g>
				<g>
					<path class="st0" d="M377.72,223.29l-29.6,51.76l-58.56,0.84c-1.86,0.03-3.39,1.49-3.49,3.35l0,0l59.55,0.17l2.24-0.08
						l74.56,0.15l15.07-25.99l19.25-27.59c1.26-1.81-0.04-4.29-2.24-4.28l-74.43,0.28C379.1,221.92,378.2,222.44,377.72,223.29z"/>
				</g>
			</g>
		</g>
	</g>
	<g>
		<g>
			<g>
				<g>
					<g>
						<path class="st2" d="M456.75,223.6c0,0.01-0.12,0.03-0.36,0.04c-0.28,0.01-0.62,0.02-1.05,0.04
							c-0.98,0.02-2.32,0.04-4.03,0.07c-3.56,0.03-8.6,0.07-14.81,0.12c-12.56,0.03-29.8,0.07-48.85,0.11c-1.19,0-2.38,0-3.56,0
							c-1.12-0.09-2.13,0.41-2.71,1.28c-1.12,2.02-2.23,4.02-3.32,5.98c-2.18,3.93-4.28,7.73-6.29,11.35
							c-4.01,7.21-7.63,13.71-10.68,19.19c-3.04,5.41-5.51,9.8-7.26,12.91c-0.85,1.48-1.52,2.64-2.01,3.49
							c-0.22,0.36-0.39,0.66-0.54,0.9c-0.12,0.2-0.19,0.3-0.21,0.29c-0.01-0.01,0.04-0.12,0.14-0.33c0.13-0.25,0.28-0.56,0.47-0.93
							c0.46-0.87,1.09-2.05,1.88-3.56c1.69-3.13,4.1-7.56,7.05-13.02c3.01-5.5,6.58-12.03,10.54-19.27
							c1.99-3.62,4.08-7.43,6.25-11.37c1.09-1.98,2.2-3.99,3.33-6.03c0.69-1.1,2.09-1.72,3.32-1.61c1.18,0,2.36,0,3.56,0
							c19.05,0.04,36.29,0.08,48.85,0.11c6.21,0.05,11.25,0.09,14.81,0.12c1.7,0.03,3.05,0.05,4.03,0.07
							c0.42,0.01,0.77,0.03,1.05,0.04C456.63,223.57,456.75,223.58,456.75,223.6z"/>
					</g>
				</g>
			</g>
		</g>
	</g>
	<g>
		<g>
			<g>
				<g>
					<path class="st3" d="M404.28,249.62c-1.32,1.46-1.35,3.58-0.07,4.73c1.28,1.15,3.38,0.9,4.7-0.56
						c1.32-1.46,1.35-3.58,0.07-4.73C407.71,247.91,405.6,248.16,404.28,249.62z"/>
				</g>
			</g>
		</g>
	</g>
	<g>
		<g>
			<g>
				<g>
					<g>
						<g>
							<path class="st1" d="M27.46,224.26c0,0.56,0,30.95,0,30.95h-5.17v3.36h5.17v20.72h96.61v-18.85h-7.16v-4.11h7.16v-6.16h3.18
								v-2.8h-3.78v-23.12H27.46z"/>
						</g>
					</g>
				</g>
			</g>
		</g>
		<g>
			<g>
				<g>
					<g>
						<g>
							<polygon class="st2" points="98.41,224.35 98.41,278.95 124.07,278.95 124.07,260.1 116.91,260.1 116.91,256.34 
								124.07,256.47 124.07,250.31 127.31,250.31 127.25,247.13 123.47,247.03 123.47,224.26 							"/>
						</g>
					</g>
				</g>
			</g>
		</g>
		<g>
			<g>
				<g>
					<g>
						<g>
							<g>
								<path class="st2" d="M100.24,258.13c0,0.19-17.48,0.34-39.04,0.34c-21.57,0-39.04-0.15-39.04-0.34
									c0-0.19,17.48-0.34,39.04-0.34C82.76,257.79,100.24,257.94,100.24,258.13z"/>
							</g>
						</g>
					</g>
				</g>
			</g>
		</g>
		<g>
			<g>
				<g>
					<g>
						<g>
							<g>
								<path class="st2" d="M100.24,254.99c0,0.19-17.48,0.34-39.04,0.34c-21.57,0-39.04-0.15-39.04-0.34
									c0-0.19,17.48-0.34,39.04-0.34C82.76,254.65,100.24,254.8,100.24,254.99z"/>
							</g>
						</g>
					</g>
				</g>
			</g>
		</g>
		<g>
			<g>
				<g>
					<g>
						<g>
							<g>
								<path class="st2" d="M105.25,246.53c0,0.19-17.48,0.34-39.04,0.34c-21.57,0-39.04-0.15-39.04-0.34
									c0-0.19,17.48-0.34,39.04-0.34C87.77,246.18,105.25,246.34,105.25,246.53z"/>
							</g>
						</g>
					</g>
				</g>
			</g>
		</g>
		<g>
			<g>
				<g>
					<g>
						<g>
							<g>
								<path class="st2" d="M105.74,269.59c0,0.19-17.48,0.34-39.04,0.34c-21.57,0-39.04-0.15-39.04-0.34
									c0-0.19,17.48-0.34,39.04-0.34C88.26,269.24,105.74,269.4,105.74,269.59z"/>
							</g>
						</g>
					</g>
				</g>
			</g>
		</g>
	</g>
	<g>
		<g>
			<g>
				<g>
					<g>
						<g>
							<g>
								<g>
									<path class="st0" d="M349.83,92.5l-38.18,0c-2.64,0-4.78-2.14-4.78-4.78l0-52.85c0-2.64,2.14-4.78,4.78-4.78l24.21,0
										l18.74,19.32l0,38.31C354.61,90.36,352.47,92.5,349.83,92.5z"/>
								</g>
							</g>
						</g>
					</g>
				</g>
				<g>
					<g>
						<g>
							<g>
								<g>
									<path class="st1" d="M335.87,30.1l0,14.87c0,2.45,1.99,4.44,4.44,4.44l14.3,0L335.87,30.1z"/>
								</g>
							</g>
						</g>
					</g>
				</g>
				<g>
					<g>
						<g>
							<g>
								<g>
									<path class="st2" d="M336.06,46.28c0,0-0.19,3.61,3.92,4.79c0.15,0.04,0.31,0.08,0.47,0.11
										c1.87,0.33,14.16,2.52,14.16,2.24c0-0.31,0-4,0-4l-14.3,0C340.31,49.42,336.74,49.3,336.06,46.28z"/>
								</g>
							</g>
						</g>
					</g>
				</g>
			</g>
		</g>
		<g>
			<g>
				<g>
					<g>
						<g>
							<g>
								<path class="st2" d="M349.83,92.5c0-0.02,0.29,0.01,0.83-0.1c0.53-0.1,1.34-0.34,2.17-1.01c0.8-0.66,1.63-1.82,1.71-3.37
									c0.02-1.54,0-3.33,0-5.32c-0.01-8-0.03-19.45-0.06-33.28l0.04,0.1c-5.68-5.84-12-12.35-18.76-19.3l0.12,0.05
									c-4.49,0-9.16,0-13.97,0.01c-2.4,0-4.84,0-7.31,0c-0.62,0-1.23,0-1.85,0c-0.62,0.01-1.25-0.03-1.83,0.07
									c-1.19,0.19-2.29,0.88-2.99,1.87c-0.49,0.69-0.79,1.51-0.84,2.35c-0.03,0.85-0.01,1.73-0.02,2.59c0,1.73,0,3.45,0,5.15
									c0,3.41,0,6.77,0,10.08c0,6.61-0.01,12.98-0.01,19.05c0,3.04,0,6-0.01,8.87c0,1.44,0,2.86,0,4.25c0,0.7,0,1.39,0,2.08
									c0.01,0.69-0.04,1.37,0.09,2.01c0.25,1.29,1.08,2.42,2.16,3.07c0.54,0.33,1.14,0.54,1.76,0.62
									c0.61,0.08,1.25,0.04,1.88,0.05c2.51,0,4.91,0.01,7.21,0.01c9.18,0.02,16.6,0.04,21.75,0.05c2.56,0.01,4.55,0.02,5.91,0.03
									c0.67,0.01,1.18,0.01,1.54,0.02C349.66,92.49,349.83,92.5,349.83,92.5s-0.18,0.01-0.52,0.02c-0.36,0-0.87,0.01-1.54,0.02
									c-1.36,0.01-3.35,0.02-5.91,0.03c-5.14,0.01-12.57,0.03-21.75,0.05c-2.3,0-4.7,0.01-7.21,0.01
									c-0.63-0.01-1.25,0.03-1.91-0.05c-0.65-0.09-1.29-0.31-1.86-0.65c-1.15-0.68-2.03-1.88-2.29-3.25
									c-0.14-0.69-0.08-1.38-0.1-2.06c0-0.69,0-1.38,0-2.08c0-1.4,0-2.81,0-4.25c0-2.88,0-5.84-0.01-8.87
									c0-6.07-0.01-12.44-0.01-19.05c0-3.3,0-6.67,0-10.08c0-1.71,0-3.42,0-5.15c0.01-0.87-0.02-1.72,0.02-2.61
									c0.06-0.9,0.38-1.78,0.91-2.52c0.75-1.06,1.94-1.8,3.21-2c0.65-0.11,1.27-0.06,1.89-0.07c0.62,0,1.24,0,1.85,0
									c2.47,0,4.9,0,7.31,0c4.81,0,9.48,0,13.97,0.01l0.07,0l0.05,0.05c6.74,6.96,13.06,13.48,18.73,19.33l0.04,0.04l0,0.06
									c-0.02,13.83-0.05,25.28-0.06,33.28c-0.01,2,0,3.78-0.03,5.33c-0.1,1.59-0.96,2.76-1.78,3.43c-0.85,0.67-1.67,0.9-2.21,0.99
									c-0.27,0.05-0.48,0.06-0.62,0.06C349.91,92.5,349.83,92.5,349.83,92.5z"/>
							</g>
						</g>
					</g>
				</g>
			</g>
		</g>
		<g>
			<g>
				<g>
					<g>
						<g>
							<g>
								<path class="st2" d="M354.61,49.42c0,0.01-0.13,0.02-0.37,0.03c-0.28,0.01-0.63,0.02-1.05,0.03
									c-0.96,0.01-2.27,0.03-3.87,0.05c-1.65,0.01-3.59,0.02-5.75,0.04c-1.08,0-2.22,0-3.4,0c-1.22-0.02-2.47-0.58-3.32-1.56
									c-0.43-0.49-0.75-1.06-0.94-1.66c-0.2-0.6-0.23-1.25-0.21-1.82c0-1.18,0.01-2.31,0.01-3.39c0.01-2.15,0.03-4.1,0.04-5.75
									c0.02-1.6,0.04-2.91,0.05-3.87c0.01-0.43,0.02-0.78,0.03-1.05c0.01-0.24,0.02-0.37,0.03-0.37c0.01,0,0.02,0.13,0.03,0.37
									c0.01,0.28,0.02,0.63,0.03,1.05c0.01,0.96,0.03,2.27,0.05,3.87c0.01,1.65,0.02,3.59,0.04,5.75c0,1.08,0.01,2.22,0.01,3.39
									c-0.08,1.16,0.26,2.35,1.07,3.26c0.79,0.91,1.95,1.43,3.08,1.45c1.17,0.01,2.31,0.01,3.39,0.02
									c2.15,0.01,4.1,0.03,5.75,0.04c1.6,0.02,2.91,0.04,3.87,0.05c0.43,0.01,0.78,0.02,1.05,0.03
									C354.49,49.39,354.61,49.41,354.61,49.42z"/>
							</g>
						</g>
					</g>
				</g>
			</g>
		</g>
	</g>
	<g>
		<g>
			<path class="st2" d="M335.15,43.37c0,0.09-4.51,0.17-10.07,0.17c-5.56,0-10.07-0.08-10.07-0.17c0-0.09,4.51-0.17,10.07-0.17
				C330.64,43.2,335.15,43.28,335.15,43.37z"/>
		</g>
	</g>
	<g>
		<g>
			<path class="st2" d="M344.7,50.79c0,0.09-6.65,0.17-14.85,0.17c-8.2,0-14.85-0.08-14.85-0.17s6.65-0.17,14.85-0.17
				C338.05,50.62,344.7,50.7,344.7,50.79z"/>
		</g>
	</g>
	<g>
		<g>
			<path class="st2" d="M344.7,58.21c0,0.09-6.65,0.17-14.85,0.17c-8.2,0-14.85-0.08-14.85-0.17c0-0.09,6.65-0.17,14.85-0.17
				C338.05,58.04,344.7,58.12,344.7,58.21z"/>
		</g>
	</g>
	<g>
		<g>
			<path class="st2" d="M344.7,65.63c0,0.09-6.65,0.17-14.85,0.17c-8.2,0-14.85-0.08-14.85-0.17c0-0.09,6.65-0.17,14.85-0.17
				C338.05,65.46,344.7,65.54,344.7,65.63z"/>
		</g>
	</g>
	<g>
		<g>
			<path class="st2" d="M344.7,73.05c0,0.09-6.65,0.17-14.85,0.17c-8.2,0-14.85-0.08-14.85-0.17c0-0.09,6.65-0.17,14.85-0.17
				C338.05,72.88,344.7,72.96,344.7,73.05z"/>
		</g>
	</g>
	<g>
		<g>
			<path class="st2" d="M344.7,82.2c0,0.09-6.65,0.17-14.85,0.17c-8.2,0-14.85-0.08-14.85-0.17s6.65-0.17,14.85-0.17
				C338.05,82.03,344.7,82.11,344.7,82.2z"/>
		</g>
	</g>
	<g>
		<path class="st2" d="M326.52,82.2h-23.99c-2.33,0-4.22-1.89-4.22-4.22l0-6.13c0-2.33,1.89-4.22,4.22-4.22h23.99
			c2.33,0,4.22,1.89,4.22,4.22v6.13C330.74,80.31,328.85,82.2,326.52,82.2z"/>
	</g>
	<g>
		<path class="st3" d="M310.99,74.38c0,1.23-0.92,1.99-2.39,1.99h-1.11v1.52h-1.27v-5.5h2.38
			C310.07,72.38,310.99,73.14,310.99,74.38z M309.7,74.38c0-0.61-0.39-0.96-1.17-0.96h-1.04v1.91h1.04
			C309.31,75.33,309.7,74.98,309.7,74.38z"/>
		<path class="st3" d="M311.9,72.38h2.5c1.8,0,3.04,1.09,3.04,2.75c0,1.67-1.23,2.75-3.04,2.75h-2.5V72.38z M314.34,76.84
			c1.09,0,1.81-0.65,1.81-1.71c0-1.05-0.72-1.71-1.81-1.71h-1.16v3.41H314.34z"/>
		<path class="st3" d="M319.67,73.4v1.45h2.55v1.02h-2.55v2.01h-1.27v-5.5h4.16v1.02H319.67z"/>
	</g>
	<g>
		<g>
			<g>
				<g>
					<g>
						<g>
							<g>
								
									<rect x="156.99" y="33.79" transform="matrix(-1 -1.224647e-16 1.224647e-16 -1 334.6105 103.1376)" class="st0" width="20.63" height="35.55"/>
							</g>
						</g>
					</g>
				</g>
			</g>
		</g>
		<g>
			<g>
				<g>
					<g>
						<g>
							<g>
								<g>
									
										<rect x="99.45" y="25.53" transform="matrix(-1 -1.224647e-16 1.224647e-16 -1 215.19 95.4409)" class="st0" width="16.29" height="44.38"/>
								</g>
							</g>
						</g>
					</g>
				</g>
			</g>
			<g>
				<g>
					<g>
						<g>
							<g>
								<g>
									<g>
										<path class="st4" d="M99.26,28.74c0-0.14,3.72-0.25,8.32-0.25c4.59,0,8.32,0.11,8.32,0.25c0,0.14-3.72,0.25-8.32,0.25
											C102.99,28.98,99.26,28.87,99.26,28.74z"/>
									</g>
								</g>
							</g>
						</g>
					</g>
				</g>
			</g>
			<g>
				<g>
					<g>
						<g>
							<g>
								<g>
									<g>
										<path class="st4" d="M100.16,30.84c0-0.14,3.52-0.25,7.87-0.25c4.35,0,7.87,0.11,7.87,0.25c0,0.14-3.52,0.25-7.87,0.25
											C103.69,31.09,100.16,30.98,100.16,30.84z"/>
									</g>
								</g>
							</g>
						</g>
					</g>
				</g>
			</g>
			<g>
				<g>
					<g>
						<g>
							<g>
								<g>
									<g>
										<path class="st4" d="M107.13,61.16c-0.14,0-0.25-5.88-0.25-13.13c0-7.25,0.11-13.13,0.25-13.13
											c0.14,0,0.25,5.88,0.25,13.13C107.38,55.28,107.27,61.16,107.13,61.16z"/>
									</g>
								</g>
							</g>
						</g>
					</g>
				</g>
			</g>
			<g>
				<g>
					<g>
						<g>
							<g>
								<g>
									<g>
										<path class="st4" d="M99.45,65.22c0-0.14,3.57-0.25,7.97-0.25c4.4,0,7.97,0.11,7.97,0.25c0,0.14-3.57,0.25-7.97,0.25
											C103.02,65.47,99.45,65.35,99.45,65.22z"/>
									</g>
								</g>
							</g>
						</g>
					</g>
				</g>
			</g>
			<g>
				<g>
					<g>
						<g>
							<g>
								<g>
									<g>
										<path class="st4" d="M99.45,67.12c0-0.14,3.66-0.25,8.17-0.25c4.52,0,8.17,0.11,8.17,0.25c0,0.14-3.66,0.25-8.17,0.25
											C103.11,67.37,99.45,67.26,99.45,67.12z"/>
									</g>
								</g>
							</g>
						</g>
					</g>
				</g>
			</g>
		</g>
		<g>
			<g>
				<g>
					<g>
						<g>
							<g>
								<g>
									
										<rect x="115.73" y="20.73" transform="matrix(-1 -1.224647e-16 1.224647e-16 -1 244.5421 90.6418)" class="st2" width="13.08" height="49.18"/>
								</g>
							</g>
						</g>
					</g>
				</g>
			</g>
			<g>
				<g>
					<g>
						<g>
							<g>
								<g>
									<g>
										<path class="st4" d="M115.65,43.32c0.04-0.05,0.81,0.49,2.02,1.4c1.35,1.02,2.95,2.24,4.72,3.58
											c1.77,1.35,3.37,2.57,4.71,3.59c1.2,0.93,1.93,1.52,1.89,1.58c-0.04,0.05-0.84-0.44-2.1-1.29
											c-1.26-0.86-2.96-2.08-4.81-3.48c-1.84-1.4-3.48-2.72-4.64-3.7C116.29,44.01,115.6,43.37,115.65,43.32z"/>
									</g>
								</g>
							</g>
						</g>
					</g>
				</g>
			</g>
			<g>
				<g>
					<g>
						<g>
							<g>
								<g>
									<g>
										<path class="st4" d="M115.59,35.62c0.09-0.1,3.09,2.32,6.7,5.41c3.61,3.09,6.46,5.68,6.37,5.79
											c-0.09,0.1-3.09-2.32-6.7-5.41C118.35,38.31,115.5,35.72,115.59,35.62z"/>
									</g>
								</g>
							</g>
						</g>
					</g>
				</g>
			</g>
		</g>
		<g>
			<g>
				<g>
					<g>
						<g>
							<g>
								<g>
									<g>
										<g>
											<g>
												<g>
													
														<rect x="58.86" y="23.1" transform="matrix(-1 -1.224647e-16 1.224647e-16 -1 123.9833 93.0411)" class="st0" width="6.26" height="46.85"/>
												</g>
											</g>
										</g>
									</g>
								</g>
							</g>
						</g>
					</g>
				</g>
				<g>
					<g>
						<g>
							<g>
								<g>
									<g>
										<g>
											<g>
												<g>
													<g>
														<path class="st4" d="M59.12,29.48c0,0.16,1.31,0.29,2.93,0.29c1.62,0,2.93-0.13,2.93-0.29c0-0.16-1.31-0.29-2.93-0.29
															C60.43,29.18,59.12,29.32,59.12,29.48z"/>
													</g>
												</g>
											</g>
										</g>
									</g>
								</g>
							</g>
						</g>
					</g>
				</g>
				<g>
					<g>
						<g>
							<g>
								<g>
									<g>
										<g>
											<g>
												<g>
													<g>
														<path class="st4" d="M58.99,28.46c0,0.16,1.31,0.29,2.93,0.29c1.62,0,2.93-0.13,2.93-0.29c0-0.16-1.31-0.29-2.93-0.29
															C60.31,28.16,58.99,28.3,58.99,28.46z"/>
													</g>
												</g>
											</g>
										</g>
									</g>
								</g>
							</g>
						</g>
					</g>
				</g>
				<g>
					<g>
						<g>
							<g>
								<g>
									<g>
										<g>
											<g>
												<g>
													<g>
														<path class="st4" d="M59.12,66.32c0,0.16,1.31,0.29,2.93,0.29c1.62,0,2.93-0.13,2.93-0.29c0-0.16-1.31-0.29-2.93-0.29
															C60.43,66.03,59.12,66.16,59.12,66.32z"/>
													</g>
												</g>
											</g>
										</g>
									</g>
								</g>
							</g>
						</g>
					</g>
				</g>
				<g>
					<g>
						<g>
							<g>
								<g>
									<g>
										<g>
											<g>
												<g>
													<g>
														<path class="st4" d="M58.99,65.3c0,0.16,1.31,0.29,2.93,0.29c1.62,0,2.93-0.13,2.93-0.29c0-0.16-1.31-0.29-2.93-0.29
															C60.31,65.01,58.99,65.14,58.99,65.3z"/>
													</g>
												</g>
											</g>
										</g>
									</g>
								</g>
							</g>
						</g>
					</g>
				</g>
				<g>
					<g>
						<g>
							<g>
								<g>
									<g>
										<g>
											<g>
												<g>
													<g>
														<path class="st4" d="M62.18,59.18c0.16,0,0.29-5.37,0.29-11.98c0-6.62-0.13-11.98-0.29-11.98s-0.29,5.36-0.29,11.98
															C61.89,53.82,62.02,59.18,62.18,59.18z"/>
													</g>
												</g>
											</g>
										</g>
									</g>
								</g>
							</g>
						</g>
					</g>
				</g>
			</g>
			<g>
				<g>
					<g>
						<g>
							<g>
								<g>
									<g>
										<g>
											<g>
												<g>
													
														<rect x="86.91" y="22.8" transform="matrix(-1 -1.224647e-16 1.224647e-16 -1 186.3339 92.4404)" class="st2" width="12.52" height="46.85"/>
												</g>
											</g>
										</g>
									</g>
								</g>
							</g>
						</g>
					</g>
				</g>
				<g>
					<g>
						<g>
							<g>
								<g>
									<g>
										<g>
											<g>
												<g>
													<g>
														<path class="st4" d="M95.9,70.24c0.01,0,0.06-0.08,0.15-0.25c0.09-0.17,0.21-0.43,0.36-0.78
															c0.28-0.7,0.69-1.75,0.91-3.18c0.2-1.4,0.26-3.29-0.73-5.15c-0.49-0.91-1.23-1.79-2.22-2.45
															c-0.98-0.65-2.27-1.06-3.61-0.85c-0.66,0.11-1.32,0.39-1.86,0.86c-0.54,0.46-0.94,1.19-0.9,1.98
															c0.03,0.78,0.49,1.49,1.07,1.99c0.59,0.5,1.34,0.84,2.13,0.91c1.59,0.19,3.23-0.48,4.44-1.62
															c1.25-1.11,2.01-2.78,2.2-4.5c0.21-1.73-0.07-3.53-0.65-5.23c-0.59-1.7-1.54-3.38-3.07-4.57
															c-0.76-0.58-1.7-1-2.7-1.06c-1-0.09-2.07,0.23-2.81,1c-0.37,0.38-0.62,0.91-0.64,1.47c-0.03,0.55,0.15,1.09,0.43,1.53
															c0.56,0.9,1.52,1.48,2.53,1.72c2.05,0.44,4.18-0.37,5.51-1.85c1.35-1.48,1.95-3.42,2.15-5.27
															c0.19-1.86,0.05-3.74-0.54-5.47c-0.57-1.72-1.7-3.27-3.23-4.16c-1.49-0.91-3.38-1.2-4.97-0.52
															c-0.79,0.32-1.48,1.04-1.62,1.91c-0.16,0.84,0.08,1.71,0.57,2.36c1.05,1.32,2.85,1.54,4.22,1.12
															c1.41-0.43,2.49-1.38,3.33-2.36c1.69-2,2.42-4.37,2.5-6.42c0.07-2.07-0.5-3.82-1.16-5.09
															c-0.67-1.28-1.43-2.13-1.97-2.65c-0.28-0.26-0.49-0.45-0.65-0.56c-0.15-0.12-0.24-0.17-0.24-0.17
															c-0.08,0.06,1.37,0.94,2.66,3.48c0.61,1.26,1.13,2.97,1.03,4.97c-0.1,1.98-0.84,4.26-2.48,6.17
															c-0.82,0.94-1.86,1.82-3.14,2.2c-1.24,0.38-2.85,0.13-3.7-0.97c-0.41-0.54-0.6-1.29-0.46-1.97
															c0.12-0.7,0.64-1.25,1.33-1.53c1.39-0.59,3.11-0.33,4.49,0.51c1.4,0.83,2.44,2.25,2.98,3.88
															c0.55,1.63,0.68,3.44,0.5,5.22c-0.19,1.77-0.77,3.59-2.01,4.94c-1.19,1.33-3.16,2.06-4.95,1.67
															c-0.88-0.21-1.7-0.72-2.16-1.46c-0.48-0.73-0.47-1.69,0.14-2.28c0.58-0.61,1.49-0.9,2.35-0.82
															c0.87,0.05,1.7,0.42,2.39,0.94c1.4,1.07,2.32,2.67,2.88,4.29c0.56,1.64,0.83,3.35,0.64,4.98
															c-0.18,1.63-0.87,3.15-2.02,4.19c-1.11,1.06-2.61,1.67-4.03,1.51c-1.38-0.11-2.72-1.16-2.8-2.43
															c-0.04-0.62,0.27-1.22,0.73-1.63c0.46-0.41,1.05-0.67,1.64-0.78c1.21-0.2,2.4,0.16,3.33,0.76
															c0.93,0.61,1.66,1.43,2.13,2.29c0.97,1.75,0.96,3.59,0.79,4.96c-0.18,1.41-0.54,2.46-0.79,3.16
															C96.04,69.87,95.88,70.23,95.9,70.24z"/>
													</g>
												</g>
											</g>
										</g>
									</g>
								</g>
							</g>
						</g>
					</g>
				</g>
			</g>
			<g>
				<g>
					<g>
						<g>
							<g>
								<g>
									<g>
										<g>
											<g>
												<g>
													
														<rect x="65.02" y="27" transform="matrix(-1 -1.224647e-16 1.224647e-16 -1 151.7586 96.6634)" class="st4" width="21.72" height="42.66"/>
												</g>
											</g>
										</g>
									</g>
								</g>
							</g>
						</g>
					</g>
				</g>
				<g>
					<g>
						<g>
							<g>
								<g>
									<g>
										<g>
											<g>
												<g>
													<g>
														<path class="st2" d="M65.77,34.09c0,0.16,4.71,0.29,10.51,0.29c5.81,0,10.51-0.13,10.51-0.29
															c0-0.16-4.71-0.29-10.51-0.29C70.47,33.79,65.77,33.93,65.77,34.09z"/>
													</g>
												</g>
											</g>
										</g>
									</g>
								</g>
							</g>
						</g>
					</g>
				</g>
				<g>
					<g>
						<g>
							<g>
								<g>
									<g>
										<g>
											<g>
												<g>
													<g>
														<path class="st2" d="M65.5,37.32c0,0.16,4.65,0.29,10.38,0.29c5.73,0,10.38-0.13,10.38-0.29
															c0-0.16-4.64-0.29-10.38-0.29C70.14,37.03,65.5,37.16,65.5,37.32z"/>
													</g>
												</g>
											</g>
										</g>
									</g>
								</g>
							</g>
						</g>
					</g>
				</g>
				<g>
					<g>
						<g>
							<g>
								<g>
									<g>
										<g>
											<g>
												<g>
													<g>
														<path class="st2" d="M64.8,64.84c0,0.16,4.89,0.29,10.93,0.29c6.04,0,10.93-0.13,10.93-0.29
															c0-0.16-4.89-0.29-10.93-0.29C69.69,64.55,64.8,64.68,64.8,64.84z"/>
													</g>
												</g>
											</g>
										</g>
									</g>
								</g>
							</g>
						</g>
					</g>
				</g>
				<g>
					<g>
						<g>
							<g>
								<g>
									<g>
										<g>
											<g>
												<g>
													<g>
														<path class="st2" d="M65.09,61.04c0,0.16,4.77,0.29,10.64,0.29c5.88,0,10.65-0.13,10.65-0.29s-4.77-0.29-10.65-0.29
															C69.86,60.74,65.09,60.88,65.09,61.04z"/>
													</g>
												</g>
											</g>
										</g>
									</g>
								</g>
							</g>
						</g>
					</g>
				</g>
			</g>
		</g>
		<g>
			<g>
				<g>
					<g>
						<g>
							<g>
								<g>
									<g>
										<g>
											<g>
												
													<rect x="128.8" y="22.5" transform="matrix(-1 -1.224647e-16 1.224647e-16 -1 270.1234 91.8395)" class="st0" width="12.52" height="46.85"/>
											</g>
										</g>
									</g>
								</g>
							</g>
						</g>
					</g>
				</g>
			</g>
			<g>
				<g>
					<g>
						<g>
							<g>
								<g>
									<g>
										<g>
											<g>
												<g>
													<path class="st4" d="M137.8,69.94c0.01,0,0.06-0.08,0.15-0.25c0.09-0.17,0.21-0.43,0.36-0.78
														c0.28-0.7,0.69-1.75,0.91-3.18c0.2-1.4,0.26-3.29-0.73-5.15c-0.49-0.91-1.23-1.79-2.22-2.45
														c-0.98-0.65-2.27-1.06-3.61-0.85c-0.66,0.11-1.32,0.39-1.86,0.86c-0.54,0.46-0.94,1.19-0.9,1.98
														c0.03,0.78,0.49,1.49,1.07,1.99c0.59,0.5,1.34,0.84,2.13,0.91c1.59,0.19,3.23-0.48,4.44-1.62
														c1.25-1.11,2.01-2.78,2.2-4.5c0.21-1.73-0.07-3.53-0.65-5.23c-0.59-1.7-1.54-3.38-3.07-4.57c-0.76-0.58-1.7-1-2.7-1.06
														c-1-0.09-2.07,0.23-2.81,1c-0.37,0.38-0.62,0.91-0.64,1.47c-0.03,0.55,0.15,1.09,0.43,1.53
														c0.56,0.9,1.52,1.48,2.53,1.72c2.05,0.44,4.18-0.37,5.51-1.85c1.35-1.48,1.95-3.42,2.15-5.27
														c0.19-1.86,0.05-3.74-0.54-5.47c-0.57-1.72-1.7-3.27-3.23-4.16c-1.49-0.91-3.39-1.2-4.97-0.52
														c-0.79,0.32-1.48,1.04-1.62,1.91c-0.16,0.84,0.08,1.71,0.57,2.36c1.05,1.32,2.85,1.54,4.22,1.12
														c1.41-0.43,2.49-1.38,3.33-2.36c1.69-2,2.42-4.37,2.5-6.42c0.07-2.07-0.5-3.82-1.16-5.09
														c-0.67-1.28-1.43-2.13-1.97-2.65c-0.28-0.26-0.49-0.45-0.65-0.56c-0.15-0.12-0.24-0.17-0.24-0.17
														c-0.08,0.06,1.37,0.94,2.66,3.48c0.61,1.26,1.13,2.97,1.03,4.97c-0.1,1.98-0.84,4.26-2.48,6.17
														c-0.81,0.94-1.86,1.82-3.14,2.2c-1.24,0.38-2.85,0.13-3.7-0.97c-0.41-0.54-0.6-1.29-0.46-1.97
														c0.12-0.7,0.64-1.25,1.33-1.53c1.39-0.59,3.11-0.33,4.49,0.51c1.4,0.83,2.44,2.25,2.98,3.88
														c0.55,1.63,0.68,3.44,0.5,5.22c-0.19,1.77-0.77,3.59-2.01,4.94c-1.19,1.33-3.16,2.06-4.95,1.67
														c-0.88-0.21-1.7-0.72-2.16-1.46c-0.48-0.73-0.47-1.69,0.14-2.28c0.58-0.6,1.49-0.9,2.35-0.82
														c0.87,0.05,1.7,0.42,2.39,0.94c1.4,1.07,2.32,2.67,2.88,4.29c0.56,1.64,0.83,3.35,0.64,4.98
														c-0.18,1.63-0.87,3.15-2.02,4.19c-1.11,1.06-2.61,1.67-4.03,1.51c-1.38-0.11-2.72-1.16-2.8-2.43
														c-0.04-0.62,0.27-1.22,0.73-1.63c0.46-0.41,1.05-0.67,1.64-0.78c1.21-0.2,2.4,0.16,3.33,0.76
														c0.93,0.61,1.66,1.43,2.13,2.29c0.97,1.75,0.96,3.59,0.79,4.96c-0.18,1.41-0.54,2.46-0.79,3.16
														C137.93,69.57,137.78,69.93,137.8,69.94z"/>
												</g>
											</g>
										</g>
									</g>
								</g>
							</g>
						</g>
					</g>
				</g>
			</g>
		</g>
		<g>
			<g>
				<g>
					<g>
						<g>
							<g>
								
									<rect x="41.47" y="20.13" transform="matrix(-1 -1.224647e-16 1.224647e-16 -1 100.3316 89.4753)" class="st2" width="17.39" height="49.21"/>
							</g>
						</g>
					</g>
				</g>
			</g>
		</g>
		<g>
			<g>
				<g>
					<g>
						<g>
							<g>
								
									<rect x="141.32" y="25.53" transform="matrix(-1 -1.224647e-16 1.224647e-16 -1 298.9075 94.8751)" class="st2" width="16.27" height="43.81"/>
							</g>
						</g>
					</g>
				</g>
			</g>
		</g>
		<g>
			<g>
				<g>
					<g>
						<g>
							<g>
								<g>
									<path class="st4" d="M158,47.38c0.07-0.08,0.83,0.96,2.59,1.84c0.87,0.44,1.99,0.8,3.27,0.91c1.28,0.1,2.7-0.1,4.06-0.71
										c1.37-0.59,2.63-1.34,3.91-1.78c1.26-0.46,2.54-0.59,3.55-0.32c1.01,0.25,1.7,0.8,2.05,1.25c0.36,0.45,0.42,0.78,0.4,0.78
										c-0.04,0.02-0.16-0.27-0.55-0.65c-0.37-0.38-1.04-0.84-1.99-1.03c-0.94-0.2-2.11-0.05-3.31,0.41
										c-1.21,0.44-2.45,1.2-3.87,1.81c-1.42,0.63-2.95,0.84-4.29,0.7c-1.35-0.14-2.51-0.56-3.39-1.05
										c-0.89-0.49-1.51-1.04-1.9-1.45C158.14,47.67,157.98,47.4,158,47.38z"/>
								</g>
							</g>
						</g>
					</g>
				</g>
			</g>
		</g>
		<g>
			<g>
				<g>
					<g>
						<g>
							<g>
								<g>
									<path class="st4" d="M157.63,51.72c0.07-0.08,0.83,0.96,2.59,1.84c0.87,0.44,1.99,0.8,3.27,0.91
										c1.28,0.1,2.7-0.1,4.06-0.71c1.37-0.59,2.63-1.34,3.91-1.78c1.26-0.46,2.54-0.59,3.55-0.32c1.01,0.25,1.7,0.8,2.05,1.25
										c0.36,0.45,0.42,0.78,0.4,0.78c-0.04,0.02-0.16-0.27-0.55-0.65c-0.37-0.38-1.04-0.84-1.99-1.03
										c-0.94-0.2-2.11-0.05-3.31,0.41c-1.21,0.44-2.45,1.2-3.87,1.81c-1.42,0.63-2.95,0.84-4.29,0.7
										c-1.35-0.14-2.51-0.56-3.39-1.05c-0.89-0.49-1.51-1.04-1.9-1.45C157.77,52,157.61,51.73,157.63,51.72z"/>
								</g>
							</g>
						</g>
					</g>
				</g>
			</g>
		</g>
		<g>
			<g>
				<g>
					<g>
						<g>
							<g>
								<g>
									<path class="st4" d="M157.9,37.68c0-0.14,4.48-0.25,10-0.25c5.53,0,10,0.11,10,0.25c0,0.14-4.48,0.25-10,0.25
										C162.38,37.93,157.9,37.82,157.9,37.68z"/>
								</g>
							</g>
						</g>
					</g>
				</g>
			</g>
		</g>
		<g>
			<g>
				<g>
					<g>
						<g>
							<g>
								<g>
									<path class="st4" d="M150.53,32.59c-0.04,0.08-0.54-0.37-1.42-0.12c-0.41,0.12-0.89,0.42-1.1,0.91
										c-0.23,0.49-0.05,1.14,0.42,1.59c0.46,0.45,1.13,0.6,1.6,0.35c0.49-0.23,0.77-0.72,0.87-1.13
										c0.21-0.88-0.25-1.37-0.17-1.41c0.02-0.02,0.16,0.06,0.31,0.3c0.15,0.24,0.28,0.66,0.2,1.17c-0.08,0.5-0.36,1.13-1.01,1.48
										c-0.66,0.37-1.58,0.16-2.15-0.41c-0.59-0.55-0.83-1.46-0.49-2.13c0.32-0.67,0.94-0.97,1.44-1.07
										c0.51-0.09,0.94,0.02,1.18,0.16C150.46,32.43,150.55,32.57,150.53,32.59z"/>
								</g>
							</g>
						</g>
					</g>
				</g>
			</g>
		</g>
		<g>
			<g>
				<g>
					<g>
						<g>
							<g>
								<g>
									<path class="st4" d="M149.48,64.96c-0.14,0-0.25-6.14-0.25-13.72c0-7.58,0.11-13.72,0.25-13.72
										c0.14,0,0.25,6.14,0.25,13.72C149.73,58.82,149.61,64.96,149.48,64.96z"/>
								</g>
							</g>
						</g>
					</g>
				</g>
			</g>
		</g>
	</g>
	<g>
		<g>
			<g>
				<g>
					<g>
						<rect x="26.25" y="69.09" class="st0" width="168.36" height="9.61"/>
					</g>
				</g>
			</g>
		</g>
	</g>
	<g>
		<g>
			<g>
				<g>
					<g>
						<rect x="179.91" y="69.09" class="st2" width="14.7" height="9.61"/>
					</g>
				</g>
			</g>
		</g>
	</g>
</g>
<g id="Background_Simple" class="st5">
	<g class="st6">
		<path class="st1" d="M618.12,108.23l-2.48-4.09c-20.91-34.46-58.72-55.24-98.59-52.72c-5.12,0.32-10.23,1.02-15.26,2.1
			c-36.25,7.76-67.78,35.17-80.86,70.27c-7.69,20.64-9.84,44.41-24.43,60.8c-18.99,21.33-51.22,22-79.56,21.11
			c-28.34-0.88-60.6-0.13-79.49,21.28c-11.83,13.41-15.59,32.48-14.64,50.44c2.53,47.54,35.66,90.05,77.79,111.18
			c42.13,21.13,91.74,23.02,137.85,13.73c64.6-13.02,126.03-48.78,162.95-104.01C638.32,243.09,647.66,167.84,618.12,108.23z"/>
	</g>
	<g class="st6">
		
			<ellipse transform="matrix(0.2298 -0.9732 0.9732 0.2298 -2.992 229.257)" class="st1" cx="143.34" cy="116.52" rx="18.95" ry="18.95"/>
	</g>
</g>
<g id="Character">
	<g>
		<g>
			<g>
				<g>
					<g>
						<g>
							<g>
								<g>
									<g>
										<g>
											<g>
												<g>
													<g>
														<g>
															<g>
																<g>
																	<g>
																		<g>
																			<g>
																				<g>
																					<path class="st7" d="M203.08,68.36l-0.82,66.14c-0.14,11.25,1.95,27.8,19.75,27.21l0,0
																						c15.4-1.68,19.49-16.25,19.61-26.75c0.06-4.98,0.11-9.13,0.15-9.64c0,0,16.86-1.37,18.28-18.03
																						c0.69-8.05,0.75-24.73,0.64-39.83c-0.12-16.22-12.7-29.61-28.87-30.79l-1.61-0.12
																						C212.8,36.3,202.85,50.94,203.08,68.36z"/>
																				</g>
																			</g>
																		</g>
																	</g>
																</g>
															</g>
														</g>
													</g>
												</g>
											</g>
										</g>
									</g>
								</g>
							</g>
						</g>
					</g>
					<g>
						<g>
							<g>
								<g>
									<g>
										<g>
											<g>
												<g>
													<g>
														<g>
															<g>
																<g>
																	<g>
																		<g>
																			<g>
																				<g>
																					<path class="st8" d="M241.77,125.32c0,0-10.55-0.15-21.23-8c0,0,4.4,12.56,21.14,12.27L241.77,125.32z"/>
																				</g>
																			</g>
																		</g>
																	</g>
																</g>
															</g>
														</g>
													</g>
												</g>
											</g>
										</g>
									</g>
								</g>
							</g>
						</g>
					</g>
				</g>
			</g>
		</g>
		<g>
			<g>
				<g>
					<g>
						<g>
							<g>
								<g>
									<g>
										<g>
											<g>
												<g>
													<g>
														<g>
															<g>
																<g>
																	<g>
																		<g>
																			<g>
																				<g>
																					<g>
																						<g>
																							<g>
																								<g>
																									<path class="st9" d="M232.22,74.28c-0.33,0.34-2.25-1.21-5.04-1.29c-2.79-0.12-4.87,1.29-5.17,0.93
																										c-0.14-0.16,0.2-0.78,1.11-1.41c0.9-0.64,2.41-1.24,4.15-1.18c1.74,0.06,3.18,0.76,4,1.46
																										C232.11,73.5,232.38,74.13,232.22,74.28z"/>
																								</g>
																							</g>
																						</g>
																					</g>
																				</g>
																			</g>
																		</g>
																	</g>
																</g>
															</g>
														</g>
													</g>
												</g>
											</g>
										</g>
									</g>
								</g>
							</g>
							<g>
								<g>
									<g>
										<g>
											<g>
												<g>
													<g>
														<g>
															<g>
																<g>
																	<g>
																		<g>
																			<g>
																				<g>
																					<g>
																						<g>
																							<g>
																								<path class="st9" d="M231.63,80.05c-0.05,1.19-1.09,2.14-2.34,2.11c-1.24-0.02-2.22-1.01-2.17-2.2
																									c0.04-1.19,1.09-2.14,2.33-2.11C230.7,77.88,231.68,78.86,231.63,80.05z"/>
																							</g>
																						</g>
																					</g>
																				</g>
																			</g>
																		</g>
																	</g>
																</g>
															</g>
														</g>
													</g>
												</g>
											</g>
										</g>
									</g>
								</g>
							</g>
							<g>
								<g>
									<g>
										<g>
											<g>
												<g>
													<g>
														<g>
															<g>
																<g>
																	<g>
																		<g>
																			<g>
																				<g>
																					<g>
																						<g>
																							<g>
																								<path class="st9" d="M239.21,93.69c0-0.15,1.61-0.31,4.21-0.45c0.66-0.02,1.29-0.1,1.43-0.54
																									c0.19-0.46-0.03-1.19-0.29-1.97c-0.5-1.63-1.02-3.33-1.57-5.12c-2.17-7.29-3.69-13.26-3.39-13.34
																									c0.29-0.08,2.29,5.75,4.46,13.04c0.52,1.8,1.02,3.51,1.49,5.14c0.19,0.76,0.56,1.64,0.15,2.59
																									c-0.21,0.48-0.72,0.8-1.14,0.88c-0.43,0.1-0.8,0.08-1.12,0.07C240.82,93.94,239.21,93.83,239.21,93.69z"/>
																							</g>
																						</g>
																					</g>
																				</g>
																			</g>
																		</g>
																	</g>
																</g>
															</g>
														</g>
													</g>
												</g>
											</g>
										</g>
									</g>
								</g>
							</g>
						</g>
					</g>
				</g>
				<g>
					<g>
						<g>
							<g>
								<g>
									<g>
										<g>
											<g>
												<g>
													<g>
														<g>
															<g>
																<g>
																	<g>
																		<g>
																			<g>
																				<path class="st9" d="M231.03,63.79c-0.27,0.62-2.5,0.15-5.18,0.29c-2.68,0.08-4.87,0.73-5.18,0.13
																					c-0.14-0.28,0.28-0.85,1.19-1.41c0.9-0.55,2.31-1.03,3.92-1.1c1.6-0.06,3.04,0.3,3.98,0.78
																					C230.7,62.96,231.15,63.5,231.03,63.79z"/>
																			</g>
																		</g>
																	</g>
																</g>
															</g>
														</g>
													</g>
												</g>
											</g>
										</g>
									</g>
								</g>
							</g>
						</g>
					</g>
				</g>
				<g>
					<g>
						<g>
							<g>
								<g>
									<g>
										<g>
											<g>
												<g>
													<g>
														<g>
															<g>
																<g>
																	<g>
																		<g>
																			<g>
																				<path class="st9" d="M257.53,68.96c-0.29,0.5-2.47-0.06-5.11-0.14c-2.64-0.13-4.83,0.26-5.11-0.27
																					c-0.12-0.25,0.31-0.7,1.23-1.1c0.91-0.4,2.32-0.71,3.9-0.64c1.58,0.06,2.98,0.48,3.88,0.96
																					C257.23,68.24,257.66,68.72,257.53,68.96z"/>
																			</g>
																		</g>
																	</g>
																</g>
															</g>
														</g>
													</g>
												</g>
											</g>
										</g>
									</g>
								</g>
							</g>
						</g>
					</g>
				</g>
			</g>
		</g>
		<g>
			<g>
				<g>
					<g>
						<g>
							<g>
								<g>
									<g>
										<g>
											<g>
												<g>
													<g>
														<g>
															<g>
																<path class="st7" d="M203.54,80.8c-0.28-0.14-11.2-4.22-11.67,7.2c-0.47,11.42,11.09,9.53,11.13,9.21
																	C203.03,96.88,203.54,80.8,203.54,80.8z"/>
															</g>
														</g>
													</g>
												</g>
											</g>
										</g>
									</g>
								</g>
							</g>
						</g>
					</g>
				</g>
			</g>
		</g>
		<g>
			<g>
				<g>
					<g>
						<g>
							<g>
								<g>
									<g>
										<g>
											<g>
												<g>
													<g>
														<g>
															<g>
																<g>
																	<path class="st8" d="M199.69,92.73c-0.05-0.04-0.2,0.13-0.55,0.27c-0.33,0.14-0.9,0.22-1.49-0.03
																		c-1.19-0.49-2.13-2.45-2.1-4.51c0.01-1.04,0.27-2.02,0.67-2.83c0.38-0.82,0.95-1.38,1.56-1.47
																		c0.61-0.11,1.03,0.27,1.15,0.59c0.14,0.33,0.06,0.55,0.12,0.57c0.03,0.03,0.25-0.18,0.18-0.66
																		c-0.04-0.23-0.16-0.5-0.42-0.73c-0.27-0.23-0.66-0.36-1.09-0.34c-0.88,0.02-1.71,0.8-2.15,1.69
																		c-0.49,0.89-0.81,1.99-0.82,3.15c-0.02,2.3,1.07,4.51,2.7,5.05c0.79,0.24,1.47,0.03,1.83-0.23
																		C199.65,93.01,199.72,92.75,199.69,92.73z"/>
																</g>
															</g>
														</g>
													</g>
												</g>
											</g>
										</g>
									</g>
								</g>
							</g>
						</g>
					</g>
				</g>
			</g>
		</g>
		<g>
			<g>
				<path class="st9" d="M236.51,101.59c0.12-0.29-2.11-0.96-3.69-3.06c-0.79-1.03-1.24-2.16-1.58-2.98
					c-0.33-0.83-0.59-1.35-0.71-1.31c-0.12,0.04-0.09,0.6,0.1,1.5c0.19,0.89,0.58,2.17,1.47,3.34c0.88,1.19,2.05,1.89,2.92,2.23
					C235.89,101.67,236.48,101.69,236.51,101.59z"/>
			</g>
		</g>
		<g>
			<g>
				<path class="st9" d="M282.8,52.51c-0.18-0.67-0.67-1.22-1.27-1.57c-1.3-0.77-2.81-0.67-4.26-0.69
					c-4.42-0.07-8.8-1.42-12.52-3.81c-1.74-2.51-3.7-4.87-5.83-7.06c-5.05-5.2-9.2-8.75-13.5-10.48
					c-5.56-2.24-14.85-3.14-20.64-1.62c-5.79,1.52-11,6.22-11.8,12.16c-3.25-2.75-8.13-2.72-12.08-1.13l-0.1-0.04
					c-4.41,1.57-6.91,6.23-8.21,10.72c-1.3,4.49-1.85,9.3-4.23,13.33c-0.5,0.84-1.09,1.85-0.65,2.73c0.34,0.68,1.2,0.96,1.95,0.85
					c0.75-0.11,1.41-0.52,2.05-0.93c-0.49,1.18-0.98,2.35-1.47,3.53c1.59,0.28,3.25,0.15,4.79-0.32c0.94,4.2,2.05,9,3.13,11.85
					c1.84-0.01,3.53,0.13,4.66,1.15c1.54,1.39,2.23,4,4.8,3.01c1.31-0.5,2.5-3.24,2.93-4.57c2.9-8.83,3.86-18.28,2.81-27.51
					c1.82-1.95,4.03-3.54,6.45-4.66l-0.2,0.18c4.65-1.62,9.92-3.21,14.33-1.02c3.42,1.69,5.44,5.25,8,8.08
					c4.85,5.37,11.4,8.3,18.63,8.61c0.25,4.69-0.15,11.32,0.1,16l3.94-7.51l0,0.04c0.32-0.55,0.59-1.1,0.85-1.66l0.09-0.17l0-0.02
					c0.41-0.89,0.8-1.79,1.32-2.67c0.02,0.01,0.03,0.03,0.04,0.04c2.54,2.24,6.28-1.19,4.28-3.92c-0.4-0.54-0.87-1.02-1.42-1.42
					c1.16,1.09,2.89,1.61,4.41,1.14c1.52-0.47,2.7-2.01,2.57-3.6c-0.09-1.08-0.86-2.05-1.84-2.48c2.05,0.16,4.15-0.29,5.94-1.31
					C282.05,55.09,283.2,53.99,282.8,52.51z"/>
			</g>
		</g>
		<g>
			<g>
				<path class="st10" d="M218.23,41.35c0.03,0.04-0.7,0.44-1.67,1.53c-0.96,1.08-2.05,2.97-2.56,5.53
					c-0.26,1.27-0.43,2.7-0.43,4.23c-0.01,1.53,0.12,3.18,0.23,4.91c0.11,1.73,0.24,3.56,0.13,5.46c-0.06,0.95-0.17,1.92-0.38,2.88
					c-0.21,0.95-0.46,1.98-1.18,2.79c-0.57,0.66-1.52,0.96-2.35,0.79c-0.83-0.15-1.57-0.59-2.12-1.19
					c-1.07-1.25-1.34-2.84-1.61-4.24l0.35,0.04c-0.57,1.26-1.16,2.5-2.03,3.49c-0.85,1-2.04,1.66-3.24,1.76
					c-0.6,0.05-1.2-0.04-1.72-0.3c-0.52-0.26-0.91-0.69-1.17-1.15c-0.25-0.47-0.38-0.98-0.35-1.48c0.03-0.49,0.22-0.96,0.53-1.3
					l0.18,0.16c-1.28,1.46-2.64,2.25-3.58,2.68c-0.47,0.22-0.85,0.35-1.11,0.43c-0.26,0.08-0.39,0.11-0.4,0.1
					c0-0.01,0.13-0.06,0.38-0.16c0.25-0.1,0.62-0.25,1.08-0.48c0.91-0.47,2.22-1.27,3.45-2.72l0.18,0.16
					c-0.56,0.59-0.59,1.64-0.11,2.47c0.24,0.41,0.59,0.8,1.05,1.02c0.46,0.22,1.01,0.31,1.56,0.25c1.1-0.11,2.21-0.73,3.01-1.68
					c0.82-0.95,1.39-2.16,1.95-3.41l0.24-0.53l0.11,0.58c0.27,1.4,0.55,2.92,1.53,4.05c0.49,0.54,1.16,0.94,1.89,1.07
					c0.73,0.14,1.5-0.1,2-0.67c0.63-0.71,0.88-1.68,1.09-2.62c0.2-0.94,0.32-1.89,0.37-2.82c0.11-1.87,0-3.69-0.1-5.42
					c-0.11-1.73-0.22-3.38-0.2-4.93c0.01-1.55,0.2-3,0.48-4.29c0.55-2.6,1.7-4.5,2.71-5.57C217.47,41.7,218.23,41.35,218.23,41.35z"
					/>
			</g>
		</g>
		<g>
			<g>
				<path class="st10" d="M269.75,57.55c0,0.01-0.04,0.04-0.13,0.11c-0.11,0.08-0.25,0.18-0.42,0.3c-0.18,0.14-0.41,0.3-0.71,0.45
					c-0.29,0.17-0.62,0.37-1.01,0.53c-1.55,0.74-4.03,1.47-7.13,1.28c-3.07-0.17-6.76-1.26-10.05-3.71
					c-3.33-2.39-6.25-5.92-8.64-9.95c-1.21-2.02-2.2-4.08-3.29-5.99c-1.08-1.91-2.28-3.68-3.72-5.07c-1.43-1.4-3.09-2.44-4.8-2.91
					c-0.85-0.25-1.71-0.31-2.53-0.29c-0.82,0.04-1.6,0.21-2.32,0.45c-1.44,0.48-2.59,1.27-3.47,2.09c-0.88,0.82-1.47,1.69-1.88,2.44
					c-0.76,1.53-0.8,2.51-0.86,2.5c-0.01,0,0-0.06,0.01-0.17c0.02-0.14,0.05-0.31,0.08-0.51c0.08-0.45,0.27-1.09,0.63-1.88
					c0.39-0.77,0.98-1.67,1.86-2.53c0.88-0.85,2.06-1.68,3.53-2.19c0.74-0.25,1.54-0.43,2.39-0.48c0.85-0.03,1.75,0.03,2.63,0.28
					c1.78,0.48,3.49,1.54,4.96,2.97c1.49,1.42,2.71,3.22,3.8,5.14c1.1,1.92,2.09,3.99,3.29,5.98c2.37,4.01,5.25,7.49,8.51,9.86
					c3.23,2.43,6.83,3.52,9.86,3.73c3.05,0.21,5.5-0.46,7.05-1.15C268.98,58.12,269.72,57.51,269.75,57.55z"/>
			</g>
		</g>
		<g>
			<g>
				<path class="st10" d="M271.27,50.24c0.01,0.02-0.2,0.17-0.6,0.42c-0.39,0.25-1,0.57-1.77,0.9c-0.77,0.34-1.72,0.66-2.8,0.92
					c-1.08,0.25-2.3,0.43-3.58,0.47c-1.28,0.03-2.51-0.07-3.61-0.24c-1.09-0.19-2.07-0.45-2.85-0.74c-0.79-0.28-1.41-0.56-1.82-0.78
					c-0.41-0.22-0.63-0.35-0.62-0.38c0.03-0.07,0.95,0.41,2.53,0.9c0.79,0.25,1.75,0.47,2.82,0.65c1.08,0.15,2.28,0.24,3.54,0.21
					c1.26-0.05,2.45-0.21,3.51-0.44c1.06-0.24,2.01-0.52,2.78-0.83C270.35,50.7,271.23,50.17,271.27,50.24z"/>
			</g>
		</g>
		<g>
			<g>
				<g>
					<g>
						<g>
							<g>
								<g>
									<g>
										<g>
											<g>
												<path class="st9" d="M257.65,75.33c-0.33,0.34-2.25-1.21-5.04-1.29c-2.79-0.12-4.87,1.29-5.17,0.93
													c-0.14-0.16,0.2-0.78,1.11-1.41c0.9-0.64,2.41-1.24,4.15-1.18c1.74,0.06,3.18,0.76,4,1.46
													C257.54,74.55,257.81,75.18,257.65,75.33z"/>
											</g>
										</g>
									</g>
								</g>
							</g>
						</g>
					</g>
				</g>
			</g>
		</g>
		<g>
			<g>
				<g>
					<g>
						<g>
							<g>
								<g>
									<g>
										<g>
											<path class="st9" d="M254.81,80.86c-0.05,1.19-1.09,2.14-2.34,2.11c-1.24-0.02-2.22-1.01-2.17-2.2
												c0.04-1.19,1.09-2.14,2.33-2.11C253.88,78.69,254.85,79.67,254.81,80.86z"/>
										</g>
									</g>
								</g>
							</g>
						</g>
					</g>
				</g>
			</g>
		</g>
	</g>
	<g>
		<path class="st7" d="M358.86,141.76c0-4.84-4.62-4.84-4.62-4.84c-1.76-2.31-3.74-1.47-3.74-1.47l-7.49,5.05
			c-1.1,1.89-8.37,9.05-8.37,9.05c-1.98-1.47-1.98-4.42-4.36-7.99c-2.37-3.58-7.75-3.16-7.75-3.16s4.18,9.47,4.62,15.36
			c0.44,5.89-3.22,22.32-3.22,22.32l21.16,5.95c0,0,1.34-9.01,3.71-9.74c2.85-0.88,4.44-5.09,4.44-5.09
			c3.09-6.25,9.35-15.33,10.23-19.96C364.36,142.6,358.86,141.76,358.86,141.76z"/>
	</g>
	<g>
		<g>
			<g>
				<path class="st10" d="M201.48,131.3c13.48,8.47,27.06,11.66,40.82,6.17l20.68,5.28l20.35,135.95l-119.31,1.04l5.88-31.58
					l14.79-113.45L201.48,131.3z"/>
			</g>
			<g>
				<path class="st10" d="M262.99,142.75c0,0,16.09,6.68,22.23,18.38c6.14,11.7,16.01,44.54,16.01,44.54l18.18-33.38l33.73,8.62
					c0,0-25.11,69.26-31.41,75.57c-6.9,6.9-25.71,13.86-34.92,8.49c-9.21-5.37-11.08-25.76-11.08-25.76L262.99,142.75z"/>
			</g>
			<g>
				<g>
					<path class="st9" d="M264.1,199.61c-0.09,0-0.17-6.04-0.17-13.49c0-7.45,0.08-13.49,0.17-13.49c0.09,0,0.17,6.04,0.17,13.49
						C264.26,193.58,264.19,199.61,264.1,199.61z"/>
				</g>
			</g>
			<g>
				<g>
					<path class="st9" d="M270.39,150.52c0.05,0.02-0.28,0.86-0.78,2.23c-0.51,1.37-1.18,3.26-1.84,5.38
						c-0.66,2.12-1.17,4.07-1.53,5.48c-0.35,1.41-0.56,2.29-0.61,2.28c-0.02,0,0-0.23,0.06-0.63c0.06-0.4,0.17-0.99,0.32-1.7
						c0.3-1.43,0.78-3.39,1.44-5.52c0.66-2.13,1.37-4.02,1.94-5.37c0.28-0.67,0.52-1.21,0.7-1.58
						C270.26,150.71,270.37,150.51,270.39,150.52z"/>
				</g>
			</g>
		</g>
		<g>
			<g>
				<path class="st10" d="M182.52,185.62l3.73-51.22c0,0-28.08,2.61-37.37,22.42c-7.83,16.7-29.45,66.93-31.76,73.8
					c-6.79,20.16,3.82,47.89,47.54,46.28l4.99-27.41L182.52,185.62z"/>
			</g>
			<g>
				<g>
					<path class="st9" d="M151.07,255.19c-0.01-0.01,0.07-0.17,0.23-0.49c0.18-0.34,0.41-0.8,0.71-1.38
						c0.65-1.22,1.56-2.93,2.68-5.04c0.29-0.53,0.58-1.09,0.89-1.67c0.32-0.57,0.68-1.2,1.28-1.65c0.6-0.45,1.39-0.64,2.16-0.62
						c0.78,0.01,1.55,0.18,2.33,0.38c1.55,0.41,3.14,0.99,4.7,1.78c0.78,0.4,1.55,0.86,2.26,1.44l0.26,0.23
						c0.1,0.09,0.18,0.23,0.22,0.35c0.08,0.24,0.12,0.47,0.14,0.71c0.05,0.47,0.04,0.93,0.03,1.39c-0.07,1.85-0.3,3.64-0.53,5.36
						c-0.24,1.72-0.5,3.37-0.76,4.95c-0.53,3.14-1.06,5.97-1.51,8.33c-0.46,2.34-0.83,4.25-1.1,5.6c-0.13,0.64-0.23,1.14-0.3,1.52
						c-0.07,0.35-0.1,0.53-0.11,0.53c-0.01,0,0-0.19,0.05-0.54c0.05-0.35,0.13-0.87,0.24-1.53c0.24-1.36,0.58-3.27,0.99-5.62
						c0.42-2.37,0.93-5.2,1.44-8.34c0.25-1.57,0.51-3.22,0.74-4.94c0.23-1.72,0.45-3.5,0.52-5.32c0.01-0.45,0.02-0.91-0.03-1.35
						c-0.02-0.22-0.06-0.44-0.12-0.62c-0.04-0.1-0.07-0.16-0.13-0.22l-0.25-0.22c-0.68-0.56-1.43-1.01-2.19-1.4
						c-1.53-0.78-3.1-1.36-4.63-1.77c-0.76-0.2-1.52-0.37-2.25-0.38c-0.73-0.02-1.44,0.15-1.99,0.55c-0.55,0.4-0.9,0.99-1.22,1.55
						c-0.32,0.57-0.62,1.13-0.91,1.65c-1.16,2.08-2.1,3.78-2.77,4.99c-0.32,0.56-0.58,1.01-0.77,1.35
						C151.18,255.04,151.08,255.2,151.07,255.19z"/>
				</g>
			</g>
			<g>
				<g>
					<path class="st9" d="M130.77,230.86c0-0.01,0.11-0.01,0.33-0.01c0.25,0.01,0.57,0.02,0.94,0.04c0.82,0.04,2,0.11,3.46,0.24
						c1.46,0.14,3.2,0.34,5.1,0.74c1.9,0.4,3.97,1.01,6,1.99c2.02,0.99,3.82,2.18,5.28,3.48c1.44,1.31,2.55,2.71,3.2,4.05
						c0.66,1.33,0.93,2.52,0.97,3.34c0.06,0.41,0.01,0.73,0.02,0.95c-0.01,0.22-0.02,0.33-0.03,0.33c-0.04,0-0.02-0.46-0.12-1.26
						c-0.08-0.81-0.38-1.96-1.05-3.25c-0.66-1.29-1.77-2.65-3.2-3.93c-1.45-1.26-3.22-2.44-5.22-3.41c-2-0.96-4.04-1.58-5.92-1.99
						c-1.88-0.41-3.61-0.64-5.06-0.81c-1.45-0.16-2.63-0.27-3.45-0.35c-0.38-0.04-0.68-0.07-0.94-0.1
						C130.88,230.89,130.76,230.87,130.77,230.86z"/>
				</g>
			</g>
			<g>
				<g>
					<path class="st9" d="M160.81,228.27c0.04,0.02-0.22,0.79-0.7,2.02c-0.48,1.23-1.2,2.9-2.02,4.73c-0.8,1.78-1.53,3.4-2.11,4.68
						c-0.54,1.2-0.87,1.94-0.92,1.92c-0.04-0.02,0.22-0.79,0.7-2.02c0.48-1.23,1.2-2.9,2.02-4.73c0.8-1.78,1.53-3.4,2.11-4.68
						C160.43,229,160.77,228.26,160.81,228.27z"/>
				</g>
			</g>
			<g>
				<g>
					<path class="st9" d="M176.35,187.96c-0.09,0-0.17-3.25-0.17-7.25c0-4.01,0.08-7.25,0.17-7.25c0.09,0,0.17,3.25,0.17,7.25
						C176.52,184.71,176.45,187.96,176.35,187.96z"/>
				</g>
			</g>
			<g class="st11">
				<g>
					<path d="M156.04,246.01c-7.39,2.58-12.38,9.28-14.4,16.84c-0.21,0.79-0.35,1.73,0.18,2.35c0.55,0.64,1.6,0.63,2.32,0.19
						c0.72-0.44,1.2-1.18,1.64-1.89C149.34,257.8,152.82,252.52,156.04,246.01L156.04,246.01z"/>
				</g>
			</g>
			<g>
				<g class="st11">
					<g>
						<path d="M146.87,231.39c-3.86-2.15-8.31-3.07-12.72-3.34c-1.73-0.1-3.45,0.1-5.14,0.45c-2.3,0.48-4.96,1.65-5.46,3.31
							c5.3-1.66,13.11-0.57,18.54,0.62c5.48,1.2,9.92,4.3,12.98,9.19C153.76,237.5,150.66,233.5,146.87,231.39z"/>
					</g>
				</g>
			</g>
			<g>
				<g>
					<path class="st9" d="M172.22,166.14c-0.02,0-0.11-0.28-0.26-0.81c-0.14-0.53-0.36-1.28-0.67-2.2
						c-0.61-1.84-1.62-4.34-3.12-6.89c-1.51-2.55-3.19-4.65-4.51-6.08c-0.66-0.71-1.21-1.28-1.6-1.65c-0.39-0.38-0.6-0.6-0.58-0.62
						s0.25,0.17,0.67,0.52c0.42,0.35,1,0.89,1.69,1.59c1.37,1.39,3.11,3.49,4.63,6.07c1.51,2.58,2.51,5.12,3.06,6.99
						c0.28,0.94,0.47,1.71,0.57,2.24C172.2,165.84,172.24,166.14,172.22,166.14z"/>
				</g>
			</g>
		</g>
	</g>
	<g>
		<g>
			<path class="st12" d="M182.54,279.72l-31.29-75.5c-1.43-3.45,0.36-6.24,4-6.24h6.3c2.57,0,4.32-1.41,4.49-3.62l0.21-2.78
				c0.17-2.21,1.92-3.62,4.49-3.62h29.92c2.33,0,4.97,1.17,6.93,3.06l2.43,2.35c1.96,1.9,4.59,3.06,6.92,3.06h38.1
				c3.64,0,7.71,2.79,9.1,6.24l31.02,77.04H182.54z"/>
		</g>
	</g>
	<g>
		<g>
			<path class="st13" d="M182.54,279.72l-31.29-75.5c-1.43-3.45,0.36-6.24,4-6.24h6.3c2.57,0,4.32-1.41,4.49-3.62l0.21-2.78
				c0.17-2.21,1.92-3.62,4.49-3.62h29.92c2.33,0,4.97,1.17,6.93,3.06l2.43,2.35c1.96,1.9,4.59,3.06,6.92,3.06h38.1
				c3.64,0,7.71,2.79,9.1,6.24l31.02,77.04H182.54z"/>
		</g>
	</g>
	<g>
		<path class="st2" d="M177.36,254.08l-11.8-45.63c-0.78-3,1.19-6.02,3.93-6.02H262c1.83,0,3.44,1.39,3.94,3.4l17.18,68.68
			c0.75,3.02-0.45,4.82-3.19,4.79l-93.07,0.03c-1.8-0.02-3.38-1.39-3.89-3.37L177.36,254.08z"/>
	</g>
	<g>
		<g>
			<path class="st0" d="M183.76,277.65l-5.03-71.86c-0.18-2.55,1.84-4.71,4.4-4.71h95.85v76.57H183.76z"/>
		</g>
		<g>
			<g>
				<g>
					<g>
						<path class="st4" d="M182.68,279.3l11.4-74.08c0.53-2.41,2.7-4.14,5.21-4.14h96.96c3.83,0,6.41,3.85,4.9,7.3l-20.94,67.79
							L182.68,279.3z"/>
					</g>
				</g>
			</g>
		</g>
	</g>
	<g>
		<g>
			<g>
				<g>
					<g>
						<path class="st13" d="M182.54,279.68l23.52-69.38c0.98-2.89,3.6-4.82,6.54-4.82h99.96c3.22,0,5.49,3.3,4.46,6.48l-21.87,67.75
							L182.54,279.68z"/>
					</g>
				</g>
			</g>
		</g>
	</g>
	<g class="st11">
		<g>
			<path d="M230.86,268.07c0,0-3.77,0.17-5.51,0.29c-8.28,0.57-16.7-0.93-24.29-4.31c-2.35-1.05-4.84-2.53-5.55-5
				c-0.8-2.77,1-5.66,3.19-7.53c2.19-1.88,4.85-3.22,6.75-5.39c1.9-2.17,2.8-5.68,0.93-7.87l-0.52,0.38
				c-1.35,3.43-5.12,5.08-8.24,7.04c-5.79,3.64-10.21,9.41-12.21,15.95c-1.1,3.59-1.39,7.78,0.79,10.84
				c1.55,2.17,4.07,3.4,6.57,4.33c7.56,2.8,15.64,2.91,23.71,2.92c2.55,0,10.37-0.1,10.37-0.1c2.46-0.67,3.27-1.95,4.75-4.02
				C232.96,273.68,232.67,269.56,230.86,268.07z"/>
		</g>
	</g>
	<g>
		<g>
			<g>
				<path class="st7" d="M230.86,268.07l-26.07-3.92l-10.12-5.82c-1.33-0.77-2.25-2.14-2.33-3.68c0-0.03,0-0.06,0-0.09
					c-0.08-1.92,1.09-3.67,2.86-4.41c3.21-1.35,8.3-3.15,10.47-6.95c3.12-5.46,0-6.6,0-6.6l-21.77,8.7l-15.41,10.49l-3.1,17.49
					l21.5,7.02c0,0,23.96,1.35,30.57,0.61c6.61-0.74,6.61-3.82,6.61-3.82c1.23-0.38,3.71-2.56,3.71-4.59
					C231,269.49,230.86,268.07,230.86,268.07"/>
			</g>
		</g>
		<g>
			<g>
				<g>
					<path class="st8" d="M197.52,275.59c0.01-0.03,0.39,0.05,1.07,0.21c0.68,0.17,1.67,0.38,2.9,0.63c2.45,0.49,5.88,1,9.7,1.16
						c3.82,0.15,7.27-0.1,9.76-0.4c1.24-0.15,2.25-0.29,2.94-0.4c0.69-0.11,1.08-0.15,1.09-0.12c0.01,0.03-0.37,0.13-1.05,0.29
						c-0.68,0.16-1.69,0.35-2.93,0.54c-2.49,0.38-5.97,0.68-9.82,0.53c-3.85-0.15-7.3-0.72-9.75-1.29
						c-1.23-0.29-2.21-0.55-2.88-0.77C197.88,275.75,197.51,275.62,197.52,275.59z"/>
				</g>
			</g>
		</g>
		<g>
			<g>
				<g>
					<path class="st8" d="M199.9,271.56c0.01-0.03,0.4,0.05,1.09,0.21c0.69,0.17,1.7,0.39,2.95,0.63c2.49,0.49,5.98,0.97,9.85,1.09
						c3.88,0.11,7.39-0.14,9.91-0.45c1.26-0.15,2.28-0.3,2.98-0.41c0.7-0.11,1.1-0.15,1.1-0.12c0.01,0.03-0.37,0.13-1.07,0.29
						c-0.69,0.17-1.71,0.36-2.97,0.55c-2.52,0.39-6.06,0.7-9.96,0.59c-3.9-0.12-7.41-0.66-9.9-1.23c-1.25-0.28-2.25-0.55-2.93-0.77
						C200.26,271.73,199.89,271.59,199.9,271.56z"/>
				</g>
			</g>
		</g>
	</g>
	<g>
		<g>
			<g>
				<g>
					<g>
						<g>
							<g>
								<g>
									<path class="st0" d="M353.66,175.14l-46.32,9.15c-3.2,0.63-6.31-1.45-6.94-4.65l-12.66-64.11
										c-0.63-3.2,1.45-6.31,4.65-6.94l29.38-5.8l27.37,18.95l9.18,46.47C358.94,171.4,356.86,174.5,353.66,175.14z"/>
								</g>
							</g>
						</g>
					</g>
				</g>
				<g>
					<g>
						<g>
							<g>
								<g>
									<path class="st1" d="M321.76,102.78l3.56,18.04c0.59,2.98,3.48,4.91,6.45,4.33l17.35-3.42L321.76,102.78z"/>
								</g>
							</g>
						</g>
					</g>
				</g>
				<g>
					<g>
						<g>
							<g>
								<g>
									<path class="st2" d="M325.87,122.36c0,0,0.64,4.42,5.9,4.88c0.2,0.02,0.4,0.02,0.6,0.02c2.35-0.04,17.78-0.34,17.72-0.68
										c-0.07-0.37-0.96-4.85-0.96-4.85l-17.35,3.43C331.78,125.15,327.42,125.86,325.87,122.36z"/>
								</g>
							</g>
						</g>
					</g>
				</g>
			</g>
		</g>
		<g>
			<g>
				<g>
					<g>
						<g>
							<g>
								<path class="st9" d="M353.66,175.14c0,0,0.08-0.03,0.25-0.07c0.17-0.04,0.41-0.11,0.73-0.24c0.62-0.25,1.55-0.73,2.39-1.74
									c0.81-1,1.55-2.6,1.27-4.51c-0.34-1.88-0.8-4.04-1.28-6.46c-1.93-9.7-4.69-23.59-8.03-40.36l0.06,0.09
									c-8.28-5.73-17.52-12.11-27.38-18.93l0.12,0.03c-5.45,1.08-11.12,2.2-16.95,3.35c-2.92,0.58-5.88,1.16-8.87,1.75
									c-0.75,0.15-1.5,0.3-2.25,0.44c-0.75,0.16-1.52,0.26-2.21,0.52c-1.4,0.52-2.59,1.62-3.21,3c-0.43,0.96-0.6,2.03-0.46,3.07
									c0.16,1.04,0.4,2.1,0.6,3.15c0.41,2.1,0.83,4.18,1.23,6.25c0.82,4.14,1.62,8.22,2.41,12.23c1.58,8.02,3.1,15.75,4.56,23.12
									c0.72,3.68,1.43,7.27,2.12,10.76c0.34,1.74,0.68,3.46,1.01,5.16c0.17,0.85,0.33,1.69,0.5,2.52
									c0.18,0.83,0.27,1.67,0.59,2.42c0.61,1.52,1.9,2.69,3.38,3.22c0.74,0.27,1.53,0.38,2.3,0.33c0.76-0.05,1.53-0.25,2.29-0.39
									c3.04-0.6,5.96-1.17,8.75-1.72c11.14-2.18,20.16-3.94,26.4-5.16c3.11-0.6,5.53-1.07,7.18-1.39
									c0.82-0.15,1.44-0.27,1.87-0.35C353.44,175.17,353.66,175.14,353.66,175.14s-0.21,0.05-0.63,0.14
									c-0.43,0.09-1.05,0.22-1.86,0.38c-1.65,0.33-4.06,0.82-7.17,1.45c-6.23,1.24-15.24,3.04-26.37,5.26
									c-2.78,0.55-5.7,1.13-8.74,1.74c-0.76,0.14-1.52,0.34-2.33,0.4c-0.81,0.05-1.63-0.06-2.4-0.34
									c-1.55-0.55-2.89-1.78-3.54-3.37c-0.34-0.8-0.43-1.65-0.61-2.47c-0.17-0.83-0.33-1.67-0.5-2.52
									c-0.34-1.69-0.68-3.41-1.02-5.16c-0.69-3.49-1.4-7.08-2.13-10.76c-1.46-7.37-2.99-15.1-4.57-23.11
									c-0.79-4.01-1.6-8.09-2.42-12.23c-0.41-2.07-0.82-4.15-1.24-6.25c-0.2-1.06-0.43-2.09-0.6-3.17
									c-0.15-1.1,0.03-2.24,0.49-3.25c0.66-1.46,1.91-2.63,3.4-3.18c0.75-0.28,1.52-0.38,2.27-0.54c0.75-0.15,1.5-0.3,2.25-0.44
									c2.99-0.59,5.95-1.17,8.87-1.75c5.83-1.15,11.51-2.27,16.95-3.34l0.07-0.01l0.06,0.04c9.85,6.83,19.08,13.23,27.36,18.96
									l0.05,0.03l0.01,0.06c3.29,16.79,6.01,30.68,7.92,40.39c0.46,2.43,0.91,4.58,1.24,6.48c0.26,1.94-0.49,3.57-1.33,4.58
									c-0.87,1.02-1.81,1.49-2.44,1.73c-0.32,0.12-0.57,0.19-0.74,0.22C353.74,175.12,353.66,175.14,353.66,175.14z"/>
							</g>
						</g>
					</g>
				</g>
			</g>
		</g>
		<g>
			<g>
				<g>
					<g>
						<g>
							<g>
								<path class="st9" d="M349.13,121.72c0,0.01-0.15,0.05-0.44,0.12c-0.32,0.07-0.75,0.17-1.27,0.28
									c-1.15,0.24-2.74,0.57-4.69,0.98c-1.99,0.4-4.35,0.88-6.96,1.41c-1.31,0.26-2.69,0.53-4.12,0.81
									c-1.48,0.26-3.11-0.11-4.38-1.09c-0.63-0.48-1.15-1.09-1.52-1.77c-0.38-0.67-0.57-1.45-0.69-2.15
									c-0.28-1.43-0.55-2.81-0.8-4.12c-0.5-2.62-0.96-4.98-1.34-6.98c-0.36-1.96-0.66-3.56-0.88-4.71
									c-0.09-0.53-0.17-0.96-0.22-1.28c-0.05-0.29-0.07-0.45-0.05-0.45c0.01,0,0.05,0.15,0.12,0.44c0.07,0.32,0.17,0.75,0.28,1.27
									c0.24,1.15,0.57,2.74,0.98,4.69c0.4,1.99,0.88,4.35,1.41,6.96c0.26,1.31,0.54,2.69,0.82,4.11c0.13,0.73,0.29,1.41,0.66,2.06
									c0.35,0.64,0.84,1.21,1.44,1.67c1.19,0.92,2.73,1.27,4.12,1.03c1.43-0.28,2.8-0.54,4.11-0.79c2.62-0.5,4.98-0.96,6.98-1.34
									c1.96-0.36,3.56-0.66,4.71-0.88c0.53-0.09,0.96-0.16,1.28-0.22C348.97,121.73,349.13,121.71,349.13,121.72z"/>
							</g>
						</g>
					</g>
				</g>
			</g>
		</g>
	</g>
	<g>
		<g>
			<path class="st9" d="M324.07,119.05c0.02,0.09-5.44,1.25-12.19,2.58c-6.75,1.33-12.23,2.34-12.25,2.25
				c-0.02-0.09,5.44-1.25,12.19-2.58C318.56,119.97,324.05,118.96,324.07,119.05z"/>
		</g>
	</g>
	<g>
		<g>
			<path class="st9" d="M337.44,125.76c0.02,0.09-8.03,1.76-17.98,3.72c-9.95,1.97-18.03,3.48-18.05,3.39
				c-0.02-0.09,8.03-1.76,17.99-3.72C329.34,127.19,337.42,125.67,337.44,125.76z"/>
		</g>
	</g>
	<g>
		<g>
			<path class="st9" d="M339.22,134.76c0.02,0.09-8.03,1.76-17.98,3.72c-9.95,1.97-18.03,3.48-18.05,3.39
				c-0.02-0.09,8.03-1.76,17.99-3.72C331.12,136.19,339.2,134.67,339.22,134.76z"/>
		</g>
	</g>
	<g>
		<g>
			<path class="st9" d="M304.96,150.88c-0.02-0.09,8.03-1.76,17.98-3.72c9.95-1.97,18.03-3.48,18.05-3.39
				c0.02,0.09-8.03,1.76-17.99,3.72C313.06,149.45,304.98,150.97,304.96,150.88z"/>
		</g>
	</g>
	<g>
		<g>
			<path class="st9" d="M342.77,152.77c0.02,0.09-8.03,1.76-17.98,3.72c-9.95,1.97-18.03,3.48-18.05,3.39
				c-0.02-0.09,8.03-1.76,17.99-3.72C334.67,154.19,342.75,152.67,342.77,152.77z"/>
		</g>
	</g>
	<g>
		<g>
			<path class="st9" d="M344.55,161.77c0.02,0.09-8.03,1.76-17.98,3.72c-9.95,1.97-18.03,3.48-18.05,3.39
				c-0.02-0.09,8.03-1.76,17.99-3.72C336.45,163.2,344.53,161.68,344.55,161.77z"/>
		</g>
	</g>
	<g>
		<g>
			<path class="st14" d="M323.89,168.03l-31.06,6.13c-2.29,0.45-4.51-1.04-4.96-3.32l-1.86-9.39c-0.45-2.29,1.04-4.51,3.32-4.96
				l31.06-6.13c2.29-0.45,4.51,1.04,4.96,3.32l1.86,9.39C327.66,165.36,326.18,167.58,323.89,168.03z"/>
		</g>
	</g>
	<g>
		<path class="st3" d="M295.97,161.15l3.03-0.6c2.19-0.43,3.94,0.59,4.34,2.61c0.4,2.02-0.84,3.64-3.02,4.07l-3.03,0.6
			L295.97,161.15z M300,165.98c1.33-0.26,2.04-1.23,1.79-2.5c-0.25-1.28-1.28-1.9-2.6-1.64l-1.41,0.28l0.82,4.14L300,165.98z"/>
		<path class="st3" d="M304.09,163.02c-0.39-1.98,0.86-3.76,2.97-4.18c2.1-0.41,3.94,0.74,4.34,2.73c0.39,1.99-0.87,3.76-2.97,4.18
			C306.32,166.17,304.49,165,304.09,163.02z M309.84,161.88c-0.25-1.27-1.32-1.96-2.51-1.73c-1.19,0.24-1.92,1.28-1.67,2.55
			c0.25,1.27,1.32,1.96,2.51,1.72C309.36,164.2,310.09,163.15,309.84,161.88z"/>
		<path class="st3" d="M312.15,161.43c-0.4-2.01,0.86-3.76,2.94-4.17c1.15-0.23,2.2,0,2.98,0.64l-0.81,1.11
			c-0.55-0.43-1.17-0.58-1.83-0.45c-1.25,0.25-1.96,1.3-1.72,2.56c0.25,1.26,1.31,1.96,2.56,1.72c0.67-0.13,1.18-0.51,1.52-1.12
			l1.17,0.72c-0.48,0.9-1.36,1.51-2.52,1.74C314.37,164.58,312.54,163.44,312.15,161.43z"/>
	</g>
	<g>
		<g>
			<g>
				<path class="st7" d="M346.37,127.42c0,0,3.42-4.33,6.06-1.91c2.63,2.42,1.87,3.67-0.63,7.5c0,0,5.59-0.29,3.8,5.45
					c0,0,5.57-0.62,5.04,4.08c0,0,4.21,4.12,2.02,6.77c-2.19,2.65-10.12,7.45-12.13,6.62c-2-0.82-2.02-3.66-2.02-3.66
					s-2.38-1.07-3.04-2.33c-0.66-1.26,0.47-3.02,0.47-3.02s-2.01-2.05-2.51-2.63c-0.5-0.57,0.27-3.24,0.27-3.24l3.21-3.11
					c0,0-4.42,1.92-5.34,1.19c-0.92-0.73-1.96-1.37-0.97-2.7c0.99-1.34,4.49-4.33,4.49-4.33L346.37,127.42z"/>
			</g>
		</g>
		<g>
			<g>
				<g>
					<path class="st8" d="M348.95,152.6c-0.05-0.06,0.54-0.68,1.45-1.76c0.91-1.05,2.2-2.61,4.08-3.74
						c1.85-1.13,3.54-2.04,4.59-2.95c1.07-0.88,1.49-1.66,1.56-1.61c0.05,0.02-0.26,0.89-1.31,1.89c-1.02,1.02-2.75,2.01-4.56,3.12
						c-1.82,1.09-3.1,2.54-4.09,3.54C349.69,152.11,349,152.66,348.95,152.6z"/>
				</g>
			</g>
		</g>
		<g>
			<g>
				<g>
					<path class="st8" d="M345.85,147.76c-0.1-0.1,1.95-2.32,4.59-4.95c1.32-1.3,2.46-2.55,3.44-3.33c0.96-0.79,1.69-1.08,1.72-1.02
						c0.04,0.07-0.6,0.46-1.47,1.3c-0.88,0.82-1.97,2.11-3.31,3.42C348.18,145.81,345.96,147.86,345.85,147.76z"/>
				</g>
			</g>
		</g>
		<g>
			<g>
				<g>
					<path class="st8" d="M346.91,137.95c-0.1-0.13,1.16-1.14,2.57-2.48c1.43-1.33,2.13-2.76,2.27-2.7
						c0.15,0.03-0.39,1.69-1.89,3.08C348.38,137.24,346.98,138.05,346.91,137.95z"/>
				</g>
			</g>
		</g>
		<g>
			<g>
				<g>
					<path class="st8" d="M346.37,127.41c0.01,0-0.01,0.11-0.06,0.32c-0.06,0.24-0.13,0.54-0.22,0.91c-0.22,0.84-0.52,2-0.9,3.48
						l-0.01,0.03l-0.03,0.02c-0.65,0.57-1.37,1.22-2.15,1.96c-0.76,0.75-1.68,1.55-2.39,2.55c-0.16,0.25-0.27,0.54-0.24,0.81
						c0.03,0.27,0.2,0.53,0.43,0.75c0.23,0.23,0.51,0.43,0.79,0.65c0.23,0.2,0.54,0.2,0.89,0.18c1.39-0.16,2.86-0.74,4.34-1.34
						l1.03-0.43l-0.8,0.78c-1.01,0.99-2.09,2.04-3.2,3.13l0.05-0.07c-0.41,0.99-0.66,2.25-0.16,3.25c0.56,1,1.54,1.84,2.53,2.58
						l0.22,0.16l-0.18,0.21c-0.7,0.82-1.19,2.13-0.28,2.93c0.81,0.84,1.93,1.49,3.03,2.07l-0.38,0.21l0.01-0.06c0,0,0-0.03,0-0.02
						l0,0c0.07,0.08-0.15-0.19,0.15,0.23c0.72-0.34,0.21-0.14,0.37-0.2l0,0l0,0l-0.01,0.12l0,0.26c0.01,0.18,0.02,0.35,0.05,0.53
						c0.05,0.35,0.14,0.69,0.28,1.01c0.14,0.32,0.33,0.61,0.57,0.85c0.24,0.23,0.54,0.44,0.83,0.48c0.65,0.07,1.41-0.17,2.11-0.42
						c0.71-0.26,1.41-0.59,2.1-0.94c1.31-0.68,2.55-1.44,3.74-2.26c1.17-0.82,2.32-1.69,3.27-2.68c0.49-0.49,0.8-1.04,0.85-1.68
						c0.06-0.63-0.1-1.28-0.34-1.88c-0.5-1.21-1.33-2.28-2.2-3.2l-0.08-0.08l0.01-0.12c0.03-0.63,0.06-1.28-0.19-1.84
						c-0.22-0.56-0.62-1.02-1.13-1.33c-1.03-0.62-2.31-0.73-3.45-0.66l-0.32,0.02l0.08-0.32c0.08-0.35,0.18-0.69,0.26-1.04
						c0.02-0.35,0.12-0.69,0.08-1.03c0.02-0.68-0.2-1.32-0.58-1.82c-0.79-1-2.17-1.3-3.33-1.3l-0.37,0l0.2-0.3
						c0.67-1.02,1.32-1.98,1.8-2.94c0.23-0.48,0.41-0.97,0.46-1.45c0.05-0.48-0.07-0.95-0.29-1.35c-0.46-0.79-1.12-1.48-1.76-1.91
						c-0.68-0.42-1.46-0.4-2.09-0.21c-1.27,0.4-2.07,1.17-2.6,1.63c-0.26,0.24-0.45,0.44-0.58,0.57
						C346.45,127.35,346.38,127.41,346.37,127.41c-0.01,0,0.04-0.09,0.16-0.23c0.12-0.14,0.29-0.36,0.55-0.61
						c0.25-0.26,0.58-0.57,1-0.88c0.42-0.32,0.95-0.66,1.61-0.87c0.65-0.22,1.52-0.26,2.29,0.19c0.17,0.13,0.35,0.26,0.53,0.39
						c0.16,0.15,0.32,0.31,0.48,0.46c0.31,0.34,0.64,0.69,0.88,1.14c0.24,0.44,0.39,0.98,0.34,1.53c-0.04,0.55-0.23,1.08-0.47,1.58
						c-0.49,1-1.13,1.98-1.79,3l-0.17-0.3c0.65-0.02,1.3,0.07,1.95,0.28c0.64,0.21,1.28,0.57,1.74,1.15
						c0.45,0.57,0.7,1.33,0.68,2.07c0.04,0.38-0.06,0.74-0.08,1.12c-0.07,0.37-0.17,0.73-0.26,1.1l-0.24-0.3
						c1.24-0.08,2.56,0.01,3.75,0.71c0.58,0.35,1.07,0.9,1.33,1.56c0.29,0.66,0.26,1.38,0.23,2.07l-0.07-0.21
						c0.93,0.97,1.77,2.05,2.32,3.36c0.27,0.65,0.45,1.37,0.39,2.13c-0.03,0.38-0.15,0.74-0.31,1.09c-0.2,0.33-0.42,0.65-0.67,0.9
						c-1,1.05-2.15,1.92-3.35,2.76c-1.2,0.83-2.46,1.61-3.79,2.3c-0.7,0.36-1.42,0.7-2.16,0.97c-0.75,0.26-1.5,0.53-2.38,0.44
						c-0.93-0.2-1.47-0.91-1.8-1.64c-0.16-0.37-0.26-0.76-0.31-1.15c-0.03-0.19-0.05-0.39-0.05-0.58l0-0.29l0.01-0.15l0-0.03l0-0.01
						c0.16-0.06-0.35,0.14,0.37-0.2c0.3,0.41,0.09,0.15,0.15,0.23v0.02l0,0.05l-0.01,0.08l-0.04,0.39l-0.34-0.18
						c-1.15-0.61-2.26-1.25-3.18-2.2c-0.22-0.25-0.43-0.53-0.54-0.87c-0.11-0.34-0.11-0.7-0.04-1.03c0.14-0.66,0.46-1.21,0.87-1.71
						l0.04,0.37c-1.04-0.8-2.03-1.61-2.67-2.77c-0.31-0.6-0.36-1.28-0.3-1.9c0.07-0.62,0.23-1.2,0.47-1.77l0.02-0.04l0.03-0.03
						c1.12-1.08,2.2-2.12,3.22-3.1l0.24,0.35c-1.52,0.61-2.97,1.17-4.48,1.34c-0.36,0.03-0.83,0.01-1.15-0.27
						c-0.27-0.22-0.56-0.43-0.81-0.69c-0.25-0.25-0.49-0.58-0.52-0.98c-0.03-0.39,0.13-0.74,0.31-1.03
						c0.79-1.08,1.69-1.83,2.48-2.58c0.8-0.73,1.54-1.37,2.2-1.92l-0.04,0.06c0.43-1.48,0.77-2.64,1.01-3.47
						c0.11-0.36,0.2-0.66,0.28-0.89C346.33,127.5,346.36,127.4,346.37,127.41z"/>
				</g>
			</g>
		</g>
	</g>
	<path class="st13" d="M-92.45,428.52c-7.22-0.32-43.32-22.81-43.32-22.81s-11.31,22.16-11.62,26.66s8.79,40.49,8.79,40.49h-38.61
		c0,0-1.17-12.63-1.41-26.48c-0.11-6.39,0-13,0.47-18.83c1.57-18.31,7.84-70,7.84-70l6.29,0.64c0,0,1.78,0.6,4.57,1.57
		c7.43,2.58,22,7.86,28.39,11.6c8.78,5.14,21,13.5,27,17.36s20.09,12.53,22.91,24.1S-85.23,428.84-92.45,428.52z"/>
</g>
<g id="Files">
	<g>
		<g>
			<g>
				<g>
					<g>
						<g>
							<g>
								<g>
									<path class="st0" d="M111.15,162.25H71.3c-2.75,0-4.99-2.23-4.99-4.99l0-55.16c0-2.75,2.23-4.99,4.99-4.99h25.27
										l19.56,20.16v39.98C116.14,160.02,113.91,162.25,111.15,162.25z"/>
								</g>
							</g>
						</g>
					</g>
				</g>
				<g>
					<g>
						<g>
							<g>
								<g>
									<path class="st1" d="M96.58,97.12v15.52c0,2.56,2.08,4.64,4.64,4.64l14.93,0L96.58,97.12z"/>
								</g>
							</g>
						</g>
					</g>
				</g>
				<g>
					<g>
						<g>
							<g>
								<g>
									<path class="st2" d="M96.78,114c0,0-0.2,3.77,4.09,5c0.16,0.05,0.33,0.08,0.49,0.11c1.95,0.35,14.78,2.63,14.78,2.34
										c0-0.32,0-4.17,0-4.17h-14.93C101.21,117.28,97.49,117.15,96.78,114z"/>
								</g>
							</g>
						</g>
					</g>
				</g>
			</g>
		</g>
		<g>
			<g>
				<g>
					<g>
						<g>
							<g>
								<path class="st9" d="M111.15,162.25c0-0.02,0.3,0.01,0.86-0.1c0.56-0.1,1.4-0.35,2.26-1.05c0.84-0.69,1.7-1.9,1.79-3.52
									c0.03-1.61,0-3.47,0-5.56c-0.01-8.35-0.03-20.3-0.06-34.74l0.04,0.1c-5.92-6.1-12.53-12.89-19.58-20.15l0.12,0.05
									c-4.69,0-9.56,0-14.58,0.01c-2.51,0-5.05,0-7.63,0c-0.64,0-1.29,0-1.94,0c-0.65,0.01-1.3-0.03-1.91,0.07
									c-1.24,0.2-2.39,0.92-3.13,1.95c-0.51,0.72-0.83,1.58-0.88,2.45c-0.04,0.88-0.01,1.81-0.02,2.71c0,1.81,0,3.6,0,5.38
									c0,3.56,0,7.07,0,10.52c0,6.9-0.01,13.55-0.01,19.89c0,3.17,0,6.26-0.01,9.26c0,1.5,0,2.98,0,4.44c0,0.73,0,1.45,0,2.17
									c0.01,0.72-0.05,1.43,0.09,2.1c0.26,1.35,1.12,2.53,2.26,3.21c0.57,0.34,1.2,0.56,1.84,0.65c0.64,0.08,1.31,0.04,1.96,0.05
									c2.62,0,5.13,0.01,7.52,0.01c9.58,0.02,17.33,0.04,22.7,0.05c2.67,0.01,4.75,0.02,6.17,0.03c0.7,0.01,1.23,0.01,1.6,0.02
									C110.97,162.24,111.15,162.25,111.15,162.25s-0.19,0.01-0.55,0.02c-0.37,0-0.91,0.01-1.6,0.02
									c-1.42,0.01-3.5,0.02-6.17,0.03c-5.37,0.01-13.12,0.03-22.7,0.05c-2.4,0-4.91,0.01-7.52,0.01c-0.65-0.01-1.31,0.03-2-0.05
									c-0.68-0.09-1.35-0.32-1.94-0.68c-1.2-0.71-2.11-1.96-2.39-3.38c-0.15-0.72-0.09-1.44-0.1-2.15c0-0.72,0-1.44,0-2.17
									c0-1.46,0-2.94,0-4.44c0-3,0-6.09-0.01-9.26c0-6.34-0.01-12.99-0.01-19.89c0-3.45,0-6.96,0-10.52c0-1.78,0-3.57,0-5.38
									c0.01-0.91-0.02-1.8,0.02-2.73c0.06-0.94,0.4-1.86,0.94-2.63c0.79-1.11,2.02-1.88,3.35-2.09c0.67-0.11,1.33-0.06,1.97-0.07
									c0.65,0,1.29,0,1.94,0c2.57,0,5.12,0,7.63,0c5.02,0,9.9,0,14.58,0.01l0.07,0l0.05,0.05c7.04,7.27,13.63,14.07,19.55,20.18
									l0.04,0.04l0,0.06c-0.02,14.44-0.05,26.39-0.06,34.74c-0.01,2.09,0,3.94-0.03,5.57c-0.1,1.66-1,2.88-1.86,3.58
									c-0.89,0.7-1.74,0.94-2.31,1.03c-0.28,0.05-0.5,0.06-0.65,0.06C111.23,162.25,111.15,162.25,111.15,162.25z"/>
							</g>
						</g>
					</g>
				</g>
			</g>
		</g>
		<g>
			<g>
				<g>
					<g>
						<g>
							<g>
								<path class="st9" d="M116.14,117.28c0,0.01-0.13,0.02-0.38,0.03c-0.29,0.01-0.65,0.02-1.1,0.03c-1,0.01-2.37,0.03-4.04,0.05
									c-1.72,0.01-3.75,0.02-6,0.04c-1.13,0-2.32,0-3.55,0c-1.27-0.02-2.57-0.61-3.46-1.63c-0.45-0.51-0.78-1.1-0.98-1.73
									c-0.21-0.62-0.23-1.3-0.22-1.9c0-1.23,0.01-2.41,0.01-3.54c0.01-2.25,0.03-4.28,0.04-6c0.02-1.67,0.04-3.04,0.05-4.04
									c0.01-0.45,0.02-0.81,0.03-1.1c0.01-0.25,0.02-0.38,0.03-0.38s0.02,0.13,0.03,0.38c0.01,0.29,0.02,0.65,0.03,1.1
									c0.01,1,0.03,2.37,0.05,4.04c0.01,1.72,0.02,3.75,0.04,6c0,1.13,0.01,2.31,0.01,3.54c-0.01,0.62,0.01,1.21,0.21,1.8
									c0.18,0.58,0.5,1.13,0.91,1.61c0.83,0.95,2.04,1.49,3.22,1.52c1.23,0.01,2.41,0.01,3.54,0.02c2.25,0.01,4.28,0.03,6,0.04
									c1.67,0.02,3.04,0.04,4.04,0.05c0.45,0.01,0.81,0.02,1.1,0.03C116.01,117.26,116.14,117.27,116.14,117.28z"/>
							</g>
						</g>
					</g>
				</g>
			</g>
		</g>
	</g>
	<g>
		<g>
			<path class="st9" d="M95.82,110.97c0,0.09-4.71,0.17-10.51,0.17c-5.81,0-10.51-0.08-10.51-0.17c0-0.09,4.71-0.17,10.51-0.17
				C91.12,110.8,95.82,110.88,95.82,110.97z"/>
		</g>
	</g>
	<g>
		<g>
			<path class="st9" d="M105.8,118.71c0,0.09-6.94,0.17-15.5,0.17c-8.56,0-15.5-0.08-15.5-0.17c0-0.09,6.94-0.17,15.5-0.17
				C98.86,118.55,105.8,118.62,105.8,118.71z"/>
		</g>
	</g>
	<g>
		<g>
			<path class="st9" d="M105.8,126.46c0,0.09-6.94,0.17-15.5,0.17c-8.56,0-15.5-0.08-15.5-0.17s6.94-0.17,15.5-0.17
				C98.86,126.29,105.8,126.37,105.8,126.46z"/>
		</g>
	</g>
	<g>
		<g>
			<path class="st9" d="M105.8,134.2c0,0.09-6.94,0.17-15.5,0.17c-8.56,0-15.5-0.08-15.5-0.17c0-0.09,6.94-0.17,15.5-0.17
				C98.86,134.03,105.8,134.11,105.8,134.2z"/>
		</g>
	</g>
	<g>
		<g>
			<path class="st9" d="M105.8,141.95c0,0.09-6.94,0.17-15.5,0.17c-8.56,0-15.5-0.08-15.5-0.17c0-0.09,6.94-0.17,15.5-0.17
				C98.86,141.78,105.8,141.85,105.8,141.95z"/>
		</g>
	</g>
	<g>
		<g>
			<path class="st9" d="M105.8,149.69c0,0.09-6.94,0.17-15.5,0.17c-8.56,0-15.5-0.08-15.5-0.17c0-0.09,6.94-0.17,15.5-0.17
				C98.86,149.52,105.8,149.6,105.8,149.69z"/>
		</g>
	</g>
	<g>
		<g>
			<path class="st14" d="M87.01,151.5H61.6c-2.33,0-4.22-1.89-4.22-4.22l0-6.77c0-2.33,1.89-4.22,4.22-4.22h25.41
				c2.33,0,4.22,1.89,4.22,4.22l0,6.77C91.23,149.61,89.34,151.5,87.01,151.5z"/>
		</g>
	</g>
	<g>
		<path class="st3" d="M70.63,143.33c0,1.28-0.96,2.08-2.5,2.08h-1.16v1.58h-1.33v-5.75h2.49
			C69.67,141.24,70.63,142.04,70.63,143.33z M69.29,143.33c0-0.63-0.41-1-1.22-1h-1.08v2h1.08
			C68.88,144.32,69.29,143.95,69.29,143.33z"/>
		<path class="st3" d="M71.58,141.24h2.61c1.88,0,3.17,1.13,3.17,2.87c0,1.74-1.29,2.87-3.17,2.87h-2.61V141.24z M74.12,145.9
			c1.14,0,1.89-0.68,1.89-1.78c0-1.1-0.75-1.78-1.89-1.78h-1.21v3.56H74.12z"/>
		<path class="st3" d="M79.68,142.31v1.52h2.66v1.07h-2.66v2.09h-1.33v-5.75h4.34v1.07H79.68z"/>
	</g>
	<g>
		<g>
			<g>
				<g>
					<g>
						<g>
							<g>
								<g>
									<path class="st0" d="M85.77,253.14l-39.43,0c-2.72,0-4.93-2.21-4.93-4.93l0-54.57c0-2.72,2.21-4.93,4.93-4.93l25,0
										l19.36,19.95l0,39.55C90.7,250.93,88.49,253.14,85.77,253.14z"/>
								</g>
							</g>
						</g>
					</g>
				</g>
				<g>
					<g>
						<g>
							<g>
								<g>
									<path class="st1" d="M71.35,188.7v15.36c0,2.53,2.05,4.59,4.59,4.59l14.77,0L71.35,188.7z"/>
								</g>
							</g>
						</g>
					</g>
				</g>
				<g>
					<g>
						<g>
							<g>
								<g>
									<path class="st2" d="M71.55,205.41c0,0-0.19,3.72,4.05,4.95c0.16,0.05,0.32,0.08,0.49,0.11c1.93,0.34,14.62,2.6,14.62,2.31
										c0-0.32,0-4.13,0-4.13H75.94C75.94,208.65,72.25,208.53,71.55,205.41z"/>
								</g>
							</g>
						</g>
					</g>
				</g>
			</g>
		</g>
		<g>
			<g>
				<g>
					<g>
						<g>
							<g>
								<path class="st9" d="M85.77,253.14c0-0.02,0.3,0.01,0.85-0.1c0.55-0.1,1.38-0.35,2.24-1.04c0.83-0.68,1.68-1.88,1.77-3.48
									c0.03-1.59,0-3.44,0-5.5c-0.01-8.26-0.03-20.08-0.06-34.37l0.04,0.1c-5.86-6.03-12.4-12.76-19.37-19.93l0.12,0.05
									c-4.64,0-9.46,0-14.43,0.01c-2.48,0-5,0-7.55,0c-0.64,0-1.27,0-1.92,0c-0.64,0.01-1.29-0.03-1.89,0.07
									c-1.23,0.2-2.37,0.91-3.09,1.93c-0.51,0.71-0.82,1.56-0.87,2.43c-0.03,0.87-0.01,1.79-0.02,2.68c0,1.79,0,3.56,0,5.32
									c0,3.52,0,7,0,10.41c0,6.82-0.01,13.4-0.01,19.67c0,3.13,0,6.19-0.01,9.16c0,1.48,0,2.95,0,4.39c0,0.72,0,1.43,0,2.14
									c0.01,0.71-0.05,1.42,0.09,2.08c0.26,1.33,1.11,2.5,2.23,3.17c0.56,0.34,1.18,0.56,1.82,0.64c0.63,0.08,1.3,0.04,1.94,0.05
									c2.59,0,5.07,0.01,7.44,0.01c9.48,0.02,17.15,0.04,22.46,0.05c2.64,0.01,4.7,0.02,6.11,0.03c0.69,0.01,1.22,0.01,1.59,0.02
									C85.59,253.13,85.77,253.14,85.77,253.14s-0.18,0.01-0.54,0.02c-0.37,0-0.9,0.01-1.59,0.02c-1.41,0.01-3.46,0.02-6.11,0.03
									c-5.31,0.01-12.98,0.03-22.46,0.05c-2.37,0-4.85,0.01-7.44,0.01c-0.65-0.01-1.29,0.03-1.98-0.05
									c-0.67-0.09-1.33-0.32-1.92-0.67c-1.19-0.71-2.09-1.94-2.37-3.35c-0.15-0.71-0.09-1.43-0.1-2.13c0-0.71,0-1.42,0-2.14
									c0-1.44,0-2.9,0-4.39c0-2.97,0-6.03-0.01-9.16c0-6.27-0.01-12.85-0.01-19.67c0-3.41,0-6.88,0-10.41c0-1.76,0-3.54,0-5.32
									c0.01-0.9-0.02-1.78,0.02-2.7c0.06-0.93,0.39-1.84,0.93-2.6c0.78-1.1,2-1.86,3.31-2.07c0.67-0.11,1.31-0.06,1.95-0.07
									c0.64,0,1.28,0,1.92,0c2.55,0,5.06,0,7.55,0c4.97,0,9.79,0,14.43,0.01h0.07l0.05,0.05c6.96,7.19,13.49,13.92,19.34,19.96
									l0.04,0.04l0,0.06c-0.02,14.28-0.05,26.1-0.06,34.37c-0.01,2.06,0,3.9-0.03,5.51c-0.1,1.64-0.99,2.85-1.84,3.54
									c-0.88,0.69-1.73,0.93-2.28,1.02c-0.28,0.05-0.5,0.06-0.64,0.06C85.84,253.15,85.77,253.14,85.77,253.14z"/>
							</g>
						</g>
					</g>
				</g>
			</g>
		</g>
		<g>
			<g>
				<g>
					<g>
						<g>
							<g>
								<path class="st9" d="M90.7,208.65c0,0.01-0.13,0.02-0.38,0.03c-0.29,0.01-0.65,0.02-1.09,0.03c-0.99,0.01-2.35,0.03-4,0.05
									c-1.7,0.01-3.71,0.02-5.93,0.04c-1.12,0-2.29,0-3.51,0c-1.26-0.02-2.55-0.6-3.43-1.61c-0.44-0.5-0.77-1.09-0.97-1.71
									c-0.21-0.61-0.23-1.29-0.22-1.88c0-1.21,0.01-2.39,0.01-3.5c0.01-2.22,0.03-4.23,0.04-5.93c0.02-1.65,0.04-3.01,0.05-4
									c0.01-0.44,0.02-0.8,0.03-1.09c0.01-0.25,0.02-0.38,0.03-0.38s0.02,0.13,0.03,0.38c0.01,0.29,0.02,0.65,0.03,1.09
									c0.01,0.99,0.03,2.35,0.05,4c0.01,1.7,0.02,3.71,0.04,5.93c0,1.12,0.01,2.29,0.01,3.5c-0.01,0.62,0.01,1.2,0.21,1.78
									c0.18,0.58,0.49,1.12,0.9,1.59c0.82,0.94,2.01,1.48,3.19,1.5c1.21,0.01,2.38,0.01,3.5,0.02c2.22,0.01,4.23,0.03,5.93,0.04
									c1.65,0.02,3.01,0.04,4,0.05c0.44,0.01,0.8,0.02,1.09,0.03C90.57,208.63,90.7,208.64,90.7,208.65z"/>
							</g>
						</g>
					</g>
				</g>
			</g>
		</g>
	</g>
	<g>
		<g>
			<path class="st9" d="M70.6,202.41c0,0.09-4.66,0.17-10.4,0.17c-5.75,0-10.4-0.08-10.4-0.17c0-0.09,4.66-0.17,10.4-0.17
				C65.95,202.24,70.6,202.32,70.6,202.41z"/>
		</g>
	</g>
	<g>
		<g>
			<path class="st9" d="M80.47,210.07c0,0.09-6.87,0.17-15.33,0.17c-8.47,0-15.34-0.08-15.34-0.17c0-0.09,6.86-0.17,15.34-0.17
				C73.61,209.9,80.47,209.98,80.47,210.07z"/>
		</g>
	</g>
	<g>
		<g>
			<path class="st9" d="M80.47,217.73c0,0.09-6.87,0.17-15.33,0.17c-8.47,0-15.34-0.08-15.34-0.17c0-0.09,6.86-0.17,15.34-0.17
				C73.61,217.56,80.47,217.64,80.47,217.73z"/>
		</g>
	</g>
	<g>
		<g>
			<path class="st9" d="M80.47,225.39c0,0.09-6.87,0.17-15.33,0.17c-8.47,0-15.34-0.08-15.34-0.17s6.86-0.17,15.34-0.17
				C73.61,225.23,80.47,225.3,80.47,225.39z"/>
		</g>
	</g>
	<g>
		<g>
			<path class="st9" d="M80.47,233.06c0,0.09-6.87,0.17-15.33,0.17c-8.47,0-15.34-0.08-15.34-0.17s6.86-0.17,15.34-0.17
				C73.61,232.89,80.47,232.96,80.47,233.06z"/>
		</g>
	</g>
	<g>
		<g>
			<path class="st9" d="M80.47,240.72c0,0.09-6.87,0.17-15.33,0.17c-8.47,0-15.34-0.08-15.34-0.17c0-0.09,6.86-0.17,15.34-0.17
				C73.61,240.55,80.47,240.62,80.47,240.72z"/>
		</g>
	</g>
	<g>
		<g>
			<path class="st14" d="M61.84,242.5H36.79c-2.33,0-4.22-1.89-4.22-4.22v-6.6c0-2.33,1.89-4.22,4.22-4.22l25.04,0
				c2.33,0,4.22,1.89,4.22,4.22v6.6C66.06,240.61,64.17,242.5,61.84,242.5z"/>
		</g>
	</g>
	<g>
		<path class="st3" d="M45.68,234.42c0,1.27-0.95,2.05-2.47,2.05h-1.15v1.57h-1.32v-5.68h2.46
			C44.73,232.36,45.68,233.15,45.68,234.42z M44.35,234.42c0-0.63-0.41-0.99-1.21-0.99h-1.07v1.97h1.07
			C43.94,235.41,44.35,235.04,44.35,234.42z"/>
		<path class="st3" d="M51.54,234.42c0,1.27-0.95,2.05-2.47,2.05h-1.14v1.57h-1.32v-5.68h2.46
			C50.59,232.36,51.54,233.15,51.54,234.42z M50.21,234.42c0-0.63-0.41-0.99-1.21-0.99h-1.07v1.97H49
			C49.8,235.41,50.21,235.04,50.21,234.42z"/>
		<path class="st3" d="M53.5,233.43h-1.82v-1.07h4.95v1.07h-1.82v4.61H53.5V233.43z"/>
	</g>
	<g>
		<g>
			<g>
				<g>
					<g>
						<g>
							<g>
								<path class="st0" d="M163.29,97.25h-39.17c-2.71,0-4.9-2.19-4.9-4.9l0-54.22c0-2.71,2.19-4.9,4.9-4.9h24.84l19.23,19.82
									v39.3C168.19,95.06,166,97.25,163.29,97.25z"/>
							</g>
						</g>
					</g>
				</g>
			</g>
			<g>
				<g>
					<g>
						<g>
							<g>
								<path class="st1" d="M148.96,33.23v15.26c0,2.52,2.04,4.56,4.56,4.56l14.67,0L148.96,33.23z"/>
							</g>
						</g>
					</g>
				</g>
			</g>
			<g>
				<g>
					<g>
						<g>
							<g>
								<path class="st2" d="M149.16,49.83c0,0-0.19,3.7,4.02,4.92c0.16,0.05,0.32,0.08,0.48,0.11c1.92,0.34,14.53,2.59,14.53,2.3
									c0-0.31,0-4.1,0-4.1h-14.67C153.52,53.05,149.86,52.92,149.16,49.83z"/>
							</g>
						</g>
					</g>
				</g>
			</g>
		</g>
	</g>
	<g>
		<g>
			<g>
				<g>
					<g>
						<g>
							<path class="st9" d="M163.29,97.25c0-0.02,0.29,0.01,0.85-0.1c0.55-0.1,1.37-0.35,2.22-1.04c0.82-0.68,1.67-1.87,1.75-3.46
								c0.02-1.58,0-3.42,0-5.46c-0.01-8.21-0.03-19.96-0.06-34.15l0.04,0.1c-5.82-5.99-12.32-12.68-19.25-19.81l0.12,0.05
								c-4.61,0-9.4,0-14.34,0.01c-2.47,0-4.97,0-7.5,0c-0.63,0-1.27,0-1.9,0c-0.64,0.01-1.28-0.03-1.88,0.07
								c-1.22,0.2-2.35,0.9-3.07,1.92c-0.5,0.7-0.81,1.55-0.87,2.41c-0.03,0.87-0.01,1.78-0.02,2.66c0,1.78,0,3.54,0,5.29
								c0,3.5,0,6.95,0,10.34c0,6.78-0.01,13.32-0.01,19.55c0,3.11,0,6.15-0.01,9.1c0,1.48,0,2.93,0,4.36c0,0.72,0,1.43,0,2.13
								c0.01,0.71-0.05,1.41,0.09,2.06c0.25,1.33,1.1,2.48,2.22,3.15c0.56,0.34,1.18,0.55,1.81,0.64c0.63,0.08,1.29,0.04,1.93,0.05
								c2.57,0,5.04,0.01,7.39,0.01c9.42,0.02,17.04,0.04,22.31,0.05c2.63,0.01,4.67,0.02,6.07,0.03c0.69,0.01,1.21,0.01,1.58,0.02
								C163.11,97.24,163.29,97.25,163.29,97.25s-0.18,0.01-0.54,0.02c-0.36,0-0.89,0.01-1.58,0.02c-1.4,0.01-3.44,0.02-6.07,0.03
								c-5.28,0.01-12.9,0.03-22.31,0.05c-2.36,0-4.82,0.01-7.39,0.01c-0.64-0.01-1.29,0.03-1.96-0.05
								c-0.67-0.09-1.32-0.32-1.91-0.67c-1.18-0.7-2.08-1.92-2.35-3.33c-0.15-0.71-0.09-1.42-0.1-2.12c0-0.7,0-1.41,0-2.13
								c0-1.43,0-2.89,0-4.36c0-2.95,0-5.99-0.01-9.1c0-6.23-0.01-12.77-0.01-19.55c0-3.39,0-6.84,0-10.34c0-1.75,0-3.51,0-5.29
								c0.01-0.89-0.02-1.77,0.02-2.68c0.06-0.92,0.39-1.83,0.93-2.58c0.77-1.09,1.99-1.84,3.29-2.05c0.66-0.11,1.3-0.06,1.94-0.07
								c0.64,0,1.27,0,1.9,0c2.53,0,5.03,0,7.5,0c4.93,0,9.73,0,14.34,0.01h0.07l0.05,0.05c6.92,7.14,13.4,13.84,19.22,19.84
								l0.04,0.04l0,0.06c-0.02,14.19-0.05,25.94-0.06,34.15c-0.01,2.05,0,3.88-0.03,5.47c-0.1,1.63-0.98,2.83-1.83,3.52
								c-0.87,0.69-1.72,0.92-2.27,1.01c-0.28,0.05-0.49,0.06-0.64,0.06C163.37,97.26,163.29,97.25,163.29,97.25z"/>
						</g>
					</g>
				</g>
			</g>
		</g>
	</g>
	<g>
		<g>
			<g>
				<g>
					<g>
						<g>
							<path class="st9" d="M168.19,53.05c0,0.01-0.13,0.02-0.38,0.03c-0.28,0.01-0.64,0.02-1.08,0.03
								c-0.98,0.01-2.33,0.03-3.97,0.05c-1.69,0.01-3.69,0.02-5.89,0.04c-1.11,0-2.28,0-3.49,0c-1.25-0.02-2.53-0.6-3.41-1.6
								c-0.44-0.5-0.77-1.08-0.96-1.7c-0.21-0.61-0.23-1.28-0.22-1.87c0-1.21,0.01-2.37,0.01-3.48c0.01-2.21,0.03-4.2,0.04-5.9
								c0.02-1.64,0.04-2.99,0.05-3.97c0.01-0.44,0.02-0.8,0.03-1.08c0.01-0.25,0.02-0.38,0.03-0.38c0.01,0,0.02,0.13,0.03,0.38
								c0.01,0.28,0.02,0.64,0.03,1.08c0.01,0.98,0.03,2.33,0.05,3.97c0.01,1.69,0.02,3.69,0.04,5.9c0,1.11,0.01,2.28,0.01,3.48
								c-0.01,0.61,0.01,1.19,0.2,1.77c0.18,0.57,0.49,1.11,0.89,1.58c0.81,0.93,2,1.47,3.16,1.49c1.2,0.01,2.37,0.01,3.48,0.02
								c2.21,0.01,4.2,0.03,5.89,0.04c1.64,0.02,2.99,0.04,3.97,0.05c0.44,0.01,0.8,0.02,1.08,0.03
								C168.06,53.02,168.19,53.04,168.19,53.05z"/>
						</g>
					</g>
				</g>
			</g>
		</g>
	</g>
	<g>
		<path class="st9" d="M148.22,46.84c0,0.09-4.63,0.17-10.33,0.17c-5.71,0-10.33-0.08-10.33-0.17c0-0.09,4.63-0.17,10.33-0.17
			C143.6,46.67,148.22,46.75,148.22,46.84z"/>
	</g>
	<g>
		<path class="st9" d="M158.03,54.46c0,0.09-6.82,0.17-15.24,0.17c-8.42,0-15.24-0.08-15.24-0.17c0-0.09,6.82-0.17,15.24-0.17
			C151.21,54.29,158.03,54.36,158.03,54.46z"/>
	</g>
	<g>
		<path class="st9" d="M158.03,62.07c0,0.09-6.82,0.17-15.24,0.17c-8.42,0-15.24-0.08-15.24-0.17c0-0.09,6.82-0.17,15.24-0.17
			C151.21,61.9,158.03,61.98,158.03,62.07z"/>
	</g>
	<g>
		<path class="st9" d="M158.03,69.68c0,0.09-6.82,0.17-15.24,0.17c-8.42,0-15.24-0.08-15.24-0.17c0-0.09,6.82-0.17,15.24-0.17
			C151.21,69.51,158.03,69.59,158.03,69.68z"/>
	</g>
	<g>
		<path class="st9" d="M158.03,77.29c0,0.09-6.82,0.17-15.24,0.17c-8.42,0-15.24-0.08-15.24-0.17c0-0.09,6.82-0.17,15.24-0.17
			C151.21,77.13,158.03,77.2,158.03,77.29z"/>
	</g>
	<g>
		<path class="st9" d="M158.03,84.91c0,0.09-6.82,0.17-15.24,0.17c-8.42,0-15.24-0.08-15.24-0.17c0-0.09,6.82-0.17,15.24-0.17
			C151.21,84.74,158.03,84.81,158.03,84.91z"/>
	</g>
	<path class="st14" d="M139.48,86.68h-24.83c-2.33,0-4.22-1.89-4.22-4.22v-6.51c0-2.33,1.89-4.22,4.22-4.22h24.83
		c2.33,0,4.22,1.89,4.22,4.22v6.51C143.71,84.79,141.82,86.68,139.48,86.68z"/>
	<path class="st3" d="M122.13,82.24l-1.36-1.96l-1.34,1.96h-1.5l2.09-2.87l-1.99-2.78h1.49l1.3,1.83l1.28-1.83h1.41l-1.97,2.73
		l2.11,2.92H122.13z"/>
	<path class="st3" d="M124.15,76.59h1.31v4.58h2.83v1.07h-4.14V76.59z"/>
	<path class="st3" d="M128.55,81.69l0.44-0.98c0.48,0.35,1.19,0.59,1.86,0.59c0.77,0,1.09-0.26,1.09-0.61
		c0-1.06-3.29-0.33-3.29-2.43c0-0.96,0.77-1.76,2.38-1.76c0.71,0,1.44,0.17,1.96,0.5l-0.4,0.99c-0.52-0.3-1.07-0.44-1.57-0.44
		c-0.78,0-1.07,0.29-1.07,0.65c0,1.04,3.28,0.32,3.28,2.4c0,0.94-0.78,1.75-2.4,1.75C129.95,82.34,129.05,82.07,128.55,81.69z"/>
	<g>
		<g>
			<g>
				<g>
					<g>
						<g>
							<g>
								<g>
									<path class="st0" d="M405.61,260.8l-39.8,0c-2.75,0-4.98-2.23-4.98-4.98l0-55.09c0-2.75,2.23-4.98,4.98-4.98l25.24,0
										l19.54,20.14l0,39.93C410.59,258.57,408.36,260.8,405.61,260.8z"/>
								</g>
							</g>
						</g>
					</g>
				</g>
				<g>
					<g>
						<g>
							<g>
								<g>
									<path class="st1" d="M391.05,195.75l0,15.5c0,2.56,2.07,4.63,4.63,4.63l14.91,0L391.05,195.75z"/>
								</g>
							</g>
						</g>
					</g>
				</g>
				<g>
					<g>
						<g>
							<g>
								<g>
									<path class="st2" d="M391.25,212.61c0,0-0.2,3.76,4.08,5c0.16,0.05,0.33,0.08,0.49,0.11c1.95,0.35,14.76,2.63,14.76,2.33
										c0-0.32,0-4.17,0-4.17l-14.91,0C395.68,215.89,391.96,215.76,391.25,212.61z"/>
								</g>
							</g>
						</g>
					</g>
				</g>
			</g>
		</g>
		<g>
			<g>
				<g>
					<g>
						<g>
							<g>
								<path class="st9" d="M405.61,260.8c0-0.02,0.3,0.01,0.86-0.1c0.55-0.1,1.4-0.35,2.26-1.05c0.83-0.69,1.7-1.9,1.78-3.51
									c0.03-1.61,0-3.47,0-5.55c-0.01-8.34-0.03-20.27-0.06-34.69l0.04,0.1c-5.92-6.09-12.51-12.88-19.55-20.12l0.12,0.05
									c-4.68,0-9.55,0-14.56,0.01c-2.51,0-5.05,0-7.62,0c-0.64,0-1.29,0-1.93,0c-0.65,0.01-1.3-0.03-1.91,0.07
									c-1.24,0.2-2.39,0.92-3.13,1.95c-0.51,0.72-0.83,1.57-0.88,2.45c-0.04,0.88-0.01,1.81-0.02,2.7c0,1.8,0,3.59,0,5.37
									c0,3.56,0,7.06,0,10.51c0,6.89-0.01,13.53-0.01,19.86c0,3.16,0,6.25-0.01,9.25c0,1.5,0,2.98,0,4.43c0,0.73,0,1.45,0,2.16
									c0.01,0.72-0.05,1.43,0.09,2.1c0.26,1.35,1.12,2.52,2.25,3.2c0.56,0.34,1.19,0.56,1.84,0.65c0.64,0.08,1.31,0.04,1.96,0.05
									c2.61,0,5.12,0.01,7.51,0.01c9.57,0.02,17.31,0.04,22.67,0.05c2.67,0.01,4.74,0.02,6.16,0.03c0.7,0.01,1.23,0.01,1.6,0.02
									C405.42,260.79,405.61,260.8,405.61,260.8s-0.18,0.01-0.55,0.02c-0.37,0-0.9,0.01-1.6,0.02c-1.42,0.01-3.49,0.02-6.16,0.03
									c-5.36,0.01-13.1,0.03-22.67,0.05c-2.39,0-4.9,0.01-7.51,0.01c-0.65-0.01-1.31,0.03-1.99-0.05
									c-0.68-0.09-1.34-0.32-1.94-0.68c-1.2-0.71-2.11-1.95-2.39-3.38c-0.15-0.72-0.09-1.44-0.1-2.15c0-0.72,0-1.44,0-2.16
									c0-1.45,0-2.93,0-4.43c0-3,0-6.08-0.01-9.25c0-6.33-0.01-12.97-0.01-19.86c0-3.44,0-6.95,0-10.51c0-1.78,0-3.57,0-5.37
									c0.01-0.91-0.02-1.79,0.02-2.73c0.06-0.94,0.4-1.86,0.94-2.62c0.78-1.11,2.02-1.87,3.34-2.08c0.67-0.11,1.32-0.06,1.97-0.07
									c0.65,0,1.29,0,1.93,0c2.57,0,5.11,0,7.62,0c5.01,0,9.89,0,14.56,0.01h0.07l0.05,0.05c7.03,7.26,13.62,14.06,19.52,20.15
									l0.04,0.04l0,0.06c-0.02,14.42-0.05,26.35-0.06,34.69c-0.01,2.08,0,3.94-0.03,5.56c-0.1,1.65-1,2.88-1.85,3.57
									c-0.88,0.7-1.74,0.94-2.3,1.03c-0.28,0.05-0.5,0.06-0.65,0.06C405.68,260.8,405.61,260.8,405.61,260.8z"/>
							</g>
						</g>
					</g>
				</g>
			</g>
		</g>
		<g>
			<g>
				<g>
					<g>
						<g>
							<g>
								<path class="st9" d="M410.59,215.89c0,0.01-0.13,0.02-0.38,0.03c-0.29,0.01-0.65,0.02-1.1,0.03c-1,0.01-2.37,0.03-4.04,0.05
									c-1.72,0.01-3.75,0.02-5.99,0.04c-1.13,0-2.31,0-3.54,0c-1.27-0.02-2.57-0.61-3.46-1.62c-0.45-0.5-0.78-1.1-0.98-1.72
									c-0.21-0.62-0.23-1.3-0.22-1.9c0-1.23,0.01-2.41,0.01-3.54c0.01-2.24,0.03-4.27,0.04-5.99c0.02-1.67,0.04-3.04,0.05-4.04
									c0.01-0.45,0.02-0.81,0.03-1.1c0.01-0.25,0.02-0.38,0.03-0.38c0.01,0,0.02,0.13,0.03,0.38c0.01,0.29,0.02,0.65,0.03,1.1
									c0.01,1,0.03,2.37,0.05,4.04c0.01,1.72,0.02,3.75,0.04,5.99c0,1.13,0.01,2.31,0.01,3.54c-0.01,0.62,0.01,1.21,0.21,1.8
									c0.18,0.58,0.49,1.13,0.91,1.6c0.83,0.95,2.03,1.49,3.22,1.52c1.22,0.01,2.4,0.01,3.53,0.02c2.24,0.01,4.27,0.03,5.99,0.04
									c1.67,0.02,3.04,0.04,4.04,0.05c0.45,0.01,0.81,0.02,1.1,0.03C410.45,215.87,410.59,215.88,410.59,215.89z"/>
							</g>
						</g>
					</g>
				</g>
			</g>
		</g>
	</g>
	<g>
		<g>
			<path class="st9" d="M390.3,209.58c0,0.09-4.7,0.17-10.5,0.17c-5.8,0-10.5-0.08-10.5-0.17c0-0.09,4.7-0.17,10.5-0.17
				C385.6,209.42,390.3,209.49,390.3,209.58z"/>
		</g>
	</g>
	<g>
		<g>
			<path class="st9" d="M400.26,217.32c0,0.09-6.93,0.17-15.48,0.17c-8.55,0-15.48-0.08-15.48-0.17c0-0.09,6.93-0.17,15.48-0.17
				C393.33,217.15,400.26,217.23,400.26,217.32z"/>
		</g>
	</g>
	<g>
		<g>
			<path class="st9" d="M400.26,225.05c0,0.09-6.93,0.17-15.48,0.17c-8.55,0-15.48-0.08-15.48-0.17c0-0.09,6.93-0.17,15.48-0.17
				C393.33,224.88,400.26,224.96,400.26,225.05z"/>
		</g>
	</g>
	<g>
		<g>
			<path class="st9" d="M400.26,232.79c0,0.09-6.93,0.17-15.48,0.17c-8.55,0-15.48-0.08-15.48-0.17c0-0.09,6.93-0.17,15.48-0.17
				C393.33,232.62,400.26,232.69,400.26,232.79z"/>
		</g>
	</g>
	<g>
		<g>
			<path class="st9" d="M400.26,240.52c0,0.09-6.93,0.17-15.48,0.17c-8.55,0-15.48-0.08-15.48-0.17c0-0.09,6.93-0.17,15.48-0.17
				C393.33,240.35,400.26,240.43,400.26,240.52z"/>
		</g>
	</g>
	<g>
		<g>
			<path class="st9" d="M400.26,250.06c0,0.09-6.93,0.17-15.48,0.17c-8.55,0-15.48-0.08-15.48-0.17c0-0.09,6.93-0.17,15.48-0.17
				C393.33,249.89,400.26,249.97,400.26,250.06z"/>
		</g>
	</g>
	<g>
		<g>
			<path class="st14" d="M381.49,250.06l-25.36,0c-2.33,0-4.22-1.89-4.22-4.22v-6.75c0-2.33,1.89-4.22,4.22-4.22l25.36,0
				c2.33,0,4.22,1.89,4.22,4.22v6.75C385.71,248.17,383.82,250.06,381.49,250.06z"/>
		</g>
	</g>
	<path class="st3" d="M355.82,239.82h2.61c1.88,0,3.16,1.13,3.16,2.87c0,1.74-1.29,2.87-3.16,2.87h-2.61V239.82z M358.36,244.47
		c1.14,0,1.89-0.68,1.89-1.78s-0.75-1.78-1.89-1.78h-1.21v3.56H358.36z"/>
	<path class="st3" d="M362.23,242.69c0-1.71,1.33-2.97,3.14-2.97c1.8,0,3.14,1.25,3.14,2.97c0,1.71-1.34,2.97-3.14,2.97
		C363.56,245.66,362.23,244.4,362.23,242.69z M367.17,242.69c0-1.09-0.77-1.84-1.8-1.84c-1.02,0-1.8,0.75-1.8,1.84
		c0,1.09,0.77,1.84,1.8,1.84C366.4,244.53,367.17,243.78,367.17,242.69z"/>
	<path class="st3" d="M369.15,242.69c0-1.73,1.33-2.97,3.12-2.97c0.99,0,1.82,0.36,2.36,1.02l-0.85,0.79
		c-0.39-0.44-0.87-0.67-1.44-0.67c-1.07,0-1.84,0.75-1.84,1.84c0,1.08,0.76,1.84,1.84,1.84c0.57,0,1.06-0.23,1.44-0.68l0.85,0.79
		c-0.54,0.66-1.37,1.02-2.37,1.02C370.48,245.66,369.15,244.42,369.15,242.69z"/>
	<path class="st3" d="M379.02,245.56l-1.39-1.99l-1.36,1.99h-1.53l2.12-2.92l-2.02-2.82h1.51l1.32,1.86l1.3-1.86h1.43l-2,2.77
		l2.14,2.97H379.02z"/>
	<rect x="-270.85" y="59.15" class="st14" width="124.92" height="117.26"/>
</g>
<g id="Desk">
	<g>
		<path class="st9" d="M448.83,279.72c0,0.09-96.55,0.17-215.62,0.17c-119.11,0-215.64-0.08-215.64-0.17
			c0-0.09,96.53-0.17,215.64-0.17C352.28,279.55,448.83,279.62,448.83,279.72z"/>
	</g>
</g>
</svg>
